<?xml version="1.0" encoding="utf-8"?>
<!-- Generator: Adobe Illustrator 24.0.3, SVG Export Plug-In . SVG Version: 6.00 Build 0)  -->
<svg version="1.1" id="Layer_1" xmlns="http://www.w3.org/2000/svg" xmlns:xlink="http://www.w3.org/1999/xlink" x="0px" y="0px"
	 viewBox="0 0 22.033 48.182" style="enable-background:new 0 0 22.033 48.182;" xml:space="preserve">
<style type="text/css">
	.st0{fill:#FFD700;}
	.st1{fill:none;stroke:#FFD700;stroke-miterlimit:10;}
</style>
<path class="st0" d="M11.017,28.755L11.017,28.755c-0.74,0-1.346-0.606-1.346-1.346V1.346C9.671,0.606,10.276,0,11.017,0h0
	c0.74,0,1.346,0.606,1.346,1.346v26.062C12.363,28.149,11.757,28.755,11.017,28.755z"/>
<path class="st0" d="M17.019,4.127h-5.267c-0.405,0-0.736-0.331-0.736-0.736v0c0-0.405,0.331-0.736,0.736-0.736h5.267
	c0.405,0,0.736,0.331,0.736,0.736v0C17.755,3.795,17.424,4.127,17.019,4.127z"/>
<path class="st0" d="M17.019,8.171h-5.267c-0.405,0-0.736-0.331-0.736-0.736v0c0-0.405,0.331-0.736,0.736-0.736h5.267
	c0.405,0,0.736,0.331,0.736,0.736v0C17.755,7.84,17.424,8.171,17.019,8.171z"/>
<path class="st0" d="M11.5,7.403v-3.98c0-0.422,0.346-0.768,0.768-0.768h1.165c0.422,0,0.768,0.346,0.768,0.768v3.98
	c0,0.422-0.346,0.768-0.768,0.768h-1.165C11.846,8.171,11.5,7.826,11.5,7.403z"/>
<path class="st0" d="M14.201,6.101c0.052,0.092,0.143,0.228,0.293,0.356c0.161,0.137,0.322,0.207,0.424,0.243
	c-0.239,0-0.479,0-0.718,0V6.101z"/>
<path class="st0" d="M14.201,4.725c0.052-0.092,0.143-0.228,0.293-0.356c0.161-0.137,0.322-0.207,0.424-0.243
	c-0.239,0-0.479,0-0.718,0V4.725z"/>
<ellipse transform="matrix(0.5304 -0.8478 0.8478 0.5304 -31.8379 23.9982)" class="st1" cx="5.741" cy="40.735" rx="6.564" ry="4.621"/>
<ellipse class="st1" cx="10.951" cy="41.118" rx="3.672" ry="6.564"/>
<ellipse transform="matrix(0.8478 -0.5304 0.5304 0.8478 -19.1238 14.8414)" class="st1" cx="16.292" cy="40.735" rx="4.621" ry="6.564"/>
<circle class="st1" cx="10.951" cy="32.975" r="3.083"/>
<circle class="st1" cx="6.492" cy="33.406" r="1.148"/>
<circle class="st1" cx="15.182" cy="33.406" r="1.148"/>
<path class="st0" d="M13.151,27.935h-4.4c-0.538,0-0.978,0.44-0.978,0.978v0c0,0.538,0.44,0.978,0.978,0.978h4.4
	c0.538,0,0.978-0.44,0.978-0.978v0C14.129,28.375,13.689,27.935,13.151,27.935z"/>
<path class="st0" d="M12.852,27.189H9.05c-0.205,0-0.373,0.168-0.373,0.373v0c0,0.205,0.168,0.373,0.373,0.373h3.802
	c0.205,0,0.373-0.168,0.373-0.373v0C13.225,27.357,13.057,27.189,12.852,27.189z"/>
<g>
</g>
<g>
</g>
<g>
</g>
<g>
</g>
<g>
</g>
</svg>
