<?xml version="1.0" encoding="utf-8"?>
<!-- Generator: Adobe Illustrator 24.0.3, SVG Export Plug-In . SVG Version: 6.00 Build 0)  -->
<svg version="1.1" id="Layer_1" xmlns="http://www.w3.org/2000/svg" xmlns:xlink="http://www.w3.org/1999/xlink" x="0px" y="0px"
	 viewBox="0 0 28.103 47.363" style="enable-background:new 0 0 28.103 47.363;" xml:space="preserve">
<style type="text/css">
	.st0{fill:#FFD700;}
	.st1{fill:none;stroke:#FFD700;stroke-linejoin:round;stroke-miterlimit:10;}
	.st2{fill:#BDD8C4;}
</style>
<path class="st0" d="M16.321,45.103c0,1.25-1.02,2.26-2.27,2.26s-2.27-1.01-2.27-2.26H16.321z"/>
<path class="st0" d="M17.439,40.239h-6.775c-0.306,0-0.557-0.251-0.557-0.557l0,0c0-0.306,0.251-0.557,0.557-0.557h6.775
	c0.306,0,0.557,0.251,0.557,0.557l0,0C17.996,39.989,17.745,40.239,17.439,40.239z"/>
<path class="st0" d="M17.439,42.239h-6.775c-0.306,0-0.557-0.251-0.557-0.557l0,0c0-0.306,0.251-0.557,0.557-0.557h6.775
	c0.306,0,0.557,0.251,0.557,0.557l0,0C17.996,41.989,17.745,42.239,17.439,42.239z"/>
<path class="st0" d="M16.735,44.239h-5.367c-0.306,0-0.557-0.251-0.557-0.557l0,0c0-0.306,0.251-0.557,0.557-0.557h5.367
	c0.306,0,0.557,0.251,0.557,0.557l0,0C17.292,43.989,17.041,44.239,16.735,44.239z"/>
<path class="st1" d="M24.219,19.706c0,2.911-1.696,4.861-3.043,7.257c-1.848,3.288-3.072,6.791-3.622,10.511
	c0,0-3.498-0.065-3.498-0.065s-3.458,0.064-3.498,0.065c0.187-0.003-1.275-5.359-1.437-5.796c-0.789-2.133-1.818-4.177-3.065-6.079
	c-1.219-1.859-2.172-3.593-2.172-5.893c0-5.289,4.551-9.581,10.172-9.581C19.668,10.124,24.219,14.416,24.219,19.706z"/>
<path class="st0" d="M14.051,7.821L14.051,7.821c-0.325,0-0.591-0.266-0.591-0.591V0.591C13.46,0.266,13.726,0,14.051,0h0
	c0.325,0,0.591,0.266,0.591,0.591v6.638C14.643,7.555,14.377,7.821,14.051,7.821z"/>
<path class="st0" d="M20.906,9.057L20.906,9.057c-0.291-0.146-0.409-0.503-0.263-0.794l2.254-4.485
	c0.146-0.291,0.503-0.409,0.794-0.263l0,0c0.291,0.146,0.409,0.503,0.263,0.794L21.7,8.794C21.554,9.084,21.196,9.203,20.906,9.057z
	"/>
<path class="st0" d="M7.483,9.057L7.483,9.057C7.773,8.91,7.892,8.553,7.746,8.263L5.492,3.777C5.346,3.487,4.989,3.368,4.698,3.514
	l0,0C4.407,3.66,4.289,4.018,4.435,4.308l2.254,4.485C6.835,9.084,7.192,9.203,7.483,9.057z"/>
<g>
	<g>
		<path class="st2" d="M13.119,34.64c0.104-3.661-0.281-7.512-1.866-10.858c-0.277-0.586-0.67-1.629-1.342-1.868
			c-0.646-0.23-1.055,0.45-1.117,0.998c-0.204,1.789,2.148,2.433,3.524,2.085c1.453-0.367,2.555-2.033,1.993-3.521
			c-0.289-0.765-1.144-0.395-1.513,0.121c-0.424,0.593-0.398,1.426-0.104,2.066c0.697,1.515,3.183,1.886,4.452,0.899
			c0.595-0.463,0.876-1.237,0.764-1.976c-0.097-0.637-0.581-1.314-1.284-1.33c-0.833-0.02-1.213,0.909-1.29,1.601
			c-0.133,1.205-0.048,2.474-0.007,3.682c0.091,2.663,0.317,5.321,0.286,7.988c-0.007,0.604,0.492,0.569,0.499-0.026
			c0.032-2.788-0.216-5.566-0.297-8.351c-0.019-0.663-0.029-1.326-0.021-1.988c0.007-0.604-0.116-1.599,0.606-1.856
			c0.263-0.094,0.548-0.035,0.762,0.148c0.45,0.387,0.159,0.856-0.201,1.152c-0.499,0.409-1.196,0.49-1.818,0.465
			c-0.543-0.022-1.115-0.133-1.57-0.448c-0.356-0.247-0.754-0.712-0.479-1.176c0.126-0.212,0.679-0.656,0.835-0.285
			c0.189,0.449-0.5,1.198-0.806,1.43c-0.492,0.373-1.116,0.515-1.725,0.501c-0.54-0.013-1.126-0.15-1.593-0.43
			c-0.226-0.135-0.723-0.575-0.267-0.765c0.4-0.167,0.702,0.333,0.868,0.607c0.58,0.96,0.996,2.019,1.317,3.091
			c0.754,2.514,0.975,5.191,0.901,7.806c-0.004,0.157,0.003,0.55,0.207,0.605C13.031,35.059,13.115,34.797,13.119,34.64
			L13.119,34.64z"/>
	</g>
</g>
<path class="st0" d="M25.298,13.398L25.298,13.398c-0.215-0.244-0.191-0.62,0.053-0.835l1.77-1.558
	c0.244-0.215,0.62-0.191,0.835,0.053v0c0.215,0.244,0.191,0.62-0.053,0.835l-1.77,1.558C25.889,13.666,25.513,13.642,25.298,13.398z
	"/>
<path class="st0" d="M2.804,13.398L2.804,13.398c0.215-0.244,0.191-0.62-0.053-0.835l-1.77-1.558
	c-0.244-0.215-0.62-0.191-0.835,0.053l0,0c-0.215,0.244-0.191,0.62,0.053,0.835l1.77,1.558C2.214,13.666,2.589,13.642,2.804,13.398z
	"/>
<g>
</g>
<g>
</g>
<g>
</g>
<g>
</g>
<g>
</g>
</svg>
