<?xml version="1.0" encoding="utf-8"?>
<!-- Generator: Adobe Illustrator 25.0.0, SVG Export Plug-In . SVG Version: 6.00 Build 0)  -->
<svg version="1.1" xmlns="http://www.w3.org/2000/svg" xmlns:xlink="http://www.w3.org/1999/xlink" x="0px" y="0px"
	 viewBox="0 0 23.999 34.001" style="enable-background:new 0 0 23.999 34.001;" xml:space="preserve">
<style type="text/css">
	.st0{fill:#FFD700;}
	.st1{opacity:0.42;fill:#353232;}
	.st2{fill:#FFF7CC;}
</style>
<g id="Layer_2">
	<g>
		<path class="st0" d="M18.85,1.001l4.146,3.633v2.247c0,0.152-0.128,0.28-0.28,0.28H1.28C1.128,7.161,1,7.032,1,6.881v-5.6
			c0-0.157,0.123-0.28,0.28-0.28H18.85 M19.226,0.001H1.28C0.57,0.001,0,0.571,0,1.281v5.6c0,0.7,0.57,1.28,1.28,1.28h21.436
			c0.71,0,1.28-0.58,1.28-1.28v-2.7L19.226,0.001L19.226,0.001z"/>
	</g>
</g>
<g id="Layer_3">
	<path class="st1" d="M23.996,4.181v0.07c-1.07,0.14-2.15,0.28-3.23,0.42c-0.76,0.1-1.45-0.39-1.54-1.08l-0.46-3.47
		c-0.01-0.04-0.01-0.08-0.01-0.12h0.47L23.996,4.181z"/>
	<g>
		<path class="st2" d="M20.565,2.504l1.114,0.976l-0.727,0.096c-0.137,0-0.259-0.106-0.277-0.242L20.565,2.504 M19.224,0l0.46,3.466
			c0.085,0.641,0.638,1.111,1.268,1.111c0.056,0,0.112-0.004,0.168-0.011l2.879-0.382L19.224,0L19.224,0z"/>
	</g>
</g>
<g id="Layer_4">
	<g>
		<path class="st0" d="M18.849,26.841l4.146,3.633v2.247c0,0.152-0.128,0.28-0.28,0.28H1.28c-0.152,0-0.28-0.128-0.28-0.28v-5.6
			c0-0.157,0.123-0.28,0.28-0.28H18.849 M19.225,25.841H1.28c-0.71,0-1.28,0.57-1.28,1.28v5.6c0,0.7,0.57,1.28,1.28,1.28h21.435
			c0.71,0,1.28-0.58,1.28-1.28v-2.7L19.225,25.841L19.225,25.841z"/>
	</g>
	<path class="st1" d="M23.995,30.021v0.07c-1.07,0.14-2.15,0.28-3.23,0.42c-0.76,0.1-1.45-0.39-1.54-1.08l-0.46-3.47
		c-0.01-0.04-0.01-0.08-0.01-0.12h0.47L23.995,30.021z"/>
	<g>
		<path class="st2" d="M20.564,28.344l1.114,0.976l-0.727,0.096c-0.137,0-0.259-0.106-0.277-0.242L20.564,28.344 M19.223,25.84
			l0.46,3.466c0.085,0.641,0.638,1.111,1.268,1.111c0.056,0,0.112-0.004,0.168-0.011l2.879-0.382L19.223,25.84L19.223,25.84z"/>
	</g>
</g>
<g id="Layer_5">
	<g>
		<path class="st0" d="M18.847,13.92l4.146,3.633V19.8c0,0.152-0.128,0.28-0.28,0.28H1.28C1.128,20.08,1,19.952,1,19.8v-5.6
			c0-0.157,0.123-0.28,0.28-0.28H18.847 M19.223,12.92H1.28C0.57,12.92,0,13.49,0,14.2v5.6c0,0.7,0.57,1.28,1.28,1.28h21.433
			c0.71,0,1.28-0.58,1.28-1.28v-2.7L19.223,12.92L19.223,12.92z"/>
	</g>
	<path class="st1" d="M23.993,17.1v0.07c-1.07,0.14-2.15,0.28-3.23,0.42c-0.76,0.1-1.45-0.39-1.54-1.08l-0.46-3.47
		c-0.01-0.04-0.01-0.08-0.01-0.12h0.47L23.993,17.1z"/>
	<g>
		<path class="st2" d="M20.562,15.424l1.114,0.976l-0.727,0.096c-0.137,0-0.259-0.106-0.277-0.242L20.562,15.424 M19.221,12.92
			l0.46,3.466c0.085,0.641,0.638,1.111,1.268,1.111c0.056,0,0.112-0.004,0.168-0.011l2.879-0.382L19.221,12.92L19.221,12.92z"/>
	</g>
	<g>
	</g>
	<g>
	</g>
	<g>
	</g>
	<g>
	</g>
	<g>
	</g>
</g>
</svg>
