<?xml version="1.0" encoding="utf-8"?>
<!-- Generator: Adobe Illustrator 25.0.0, SVG Export Plug-In . SVG Version: 6.00 Build 0)  -->
<svg version="1.1" id="Layer_1" xmlns="http://www.w3.org/2000/svg" xmlns:xlink="http://www.w3.org/1999/xlink" x="0px" y="0px"
	 viewBox="0 0 35.995 1.157" style="enable-background:new 0 0 35.995 1.157;" xml:space="preserve">
<style type="text/css">
	.st0{fill:#FFD700;stroke:#FFD700;stroke-miterlimit:10;}
</style>
<path class="st0" d="M4.011,0.5H0.579C0.535,0.5,0.5,0.535,0.5,0.579v0c0,0.043,0.035,0.079,0.079,0.079h3.432
	c0.043,0,0.079-0.035,0.079-0.079v0C4.089,0.535,4.054,0.5,4.011,0.5z"/>
<path class="st0" d="M10.011,0.5H6.579C6.535,0.5,6.5,0.535,6.5,0.579v0c0,0.043,0.035,0.079,0.079,0.079h3.432
	c0.043,0,0.079-0.035,0.079-0.079v0C10.089,0.535,10.054,0.5,10.011,0.5z"/>
<path class="st0" d="M16.011,0.5h-3.432c-0.043,0-0.079,0.035-0.079,0.079v0c0,0.043,0.035,0.079,0.079,0.079h3.432
	c0.043,0,0.079-0.035,0.079-0.079v0C16.089,0.535,16.054,0.5,16.011,0.5z"/>
<path class="st0" d="M22.011,0.5h-3.432c-0.043,0-0.079,0.035-0.079,0.079v0c0,0.043,0.035,0.079,0.079,0.079h3.432
	c0.043,0,0.079-0.035,0.079-0.079v0C22.089,0.535,22.054,0.5,22.011,0.5z"/>
<path class="st0" d="M28.011,0.5h-3.432c-0.043,0-0.079,0.035-0.079,0.079v0c0,0.043,0.035,0.079,0.079,0.079h3.432
	c0.043,0,0.079-0.035,0.079-0.079v0C28.089,0.535,28.054,0.5,28.011,0.5z"/>
<path class="st0" d="M34.011,0.5h-3.432c-0.043,0-0.079,0.035-0.079,0.079v0c0,0.043,0.035,0.079,0.079,0.079h3.432
	c0.043,0,0.079-0.035,0.079-0.079v0C34.089,0.535,34.054,0.5,34.011,0.5z"/>
<g>
</g>
<g>
</g>
<g>
</g>
<g>
</g>
<g>
</g>
</svg>
