<?xml version="1.0" encoding="utf-8"?>
<!-- Generator: Adobe Illustrator 25.0.0, SVG Export Plug-In . SVG Version: 6.00 Build 0)  -->
<svg version="1.1" id="Layer_3" xmlns="http://www.w3.org/2000/svg" xmlns:xlink="http://www.w3.org/1999/xlink" x="0px" y="0px"
	 viewBox="0 0 78.162 86.239" style="enable-background:new 0 0 78.162 86.239;" xml:space="preserve">
<style type="text/css">
	.st0{fill:#6387AC;}
</style>
<g>
	<g>
		<path class="st0" d="M8.312,83.971C22.604,56.172,43.74,32.456,69.867,15.268c4.819-3.17,0.315-10.967-4.542-7.771
			c-27.38,18.011-49.791,42.77-64.783,71.931C-2.103,84.571,5.66,89.129,8.312,83.971L8.312,83.971z"/>
	</g>
</g>
<g id="Layer_4">
	<g>
		<g>
			<path class="st0" d="M50.565,9c7.697,0.01,15.395,0.019,23.092,0.029c-1.446-1.899-2.893-3.798-4.339-5.696
				c-2.441,8.563-2.75,17.177-1.181,25.925c1.021,5.692,9.696,3.28,8.679-2.393c-1.28-7.136-0.802-14.183,1.181-21.14
				c0.804-2.82-1.439-5.693-4.339-5.696C65.96,0.019,58.263,0.01,50.565,0C44.774-0.007,44.765,8.993,50.565,9L50.565,9z"/>
		</g>
	</g>
</g>
<g>
</g>
<g>
</g>
<g>
</g>
<g>
</g>
<g>
</g>
</svg>
