<?xml version="1.0" encoding="utf-8"?>
<!-- Generator: Adobe Illustrator 25.0.0, SVG Export Plug-In . SVG Version: 6.00 Build 0)  -->
<svg version="1.1" id="Layer_1" xmlns="http://www.w3.org/2000/svg" xmlns:xlink="http://www.w3.org/1999/xlink" x="0px" y="0px"
	 viewBox="0 0 130.626 38.677" style="enable-background:new 0 0 130.626 38.677;" xml:space="preserve">
<style type="text/css">
	.st0{fill:#6387AC;}
</style>
<g>
	<g>
		<path class="st0" d="M1.47,10.043c17.18,9.652,35.872,17.06,55.688,18.512c21.517,1.576,42.209-5.772,63.378-8.117
			c3.796-0.42,3.839-6.425,0-6c-19.967,2.211-39.552,8.957-59.791,8.309c-19.991-0.641-39.009-8.2-56.246-17.885
			C1.128,2.968-1.9,8.149,1.47,10.043L1.47,10.043z"/>
	</g>
</g>
<g id="Layer_2">
	<g>
		<g>
			<path class="st0" d="M106.97,5.59c5.958,4.873,11.917,9.746,17.875,14.619c0.228-1.767,0.455-3.534,0.683-5.301
				c-7.086,4.927-12.817,11.141-17.001,18.699c-2.106,3.803,3.722,7.212,5.828,3.407c3.62-6.539,8.436-12.006,14.58-16.278
				c1.61-1.12,2.496-3.818,0.683-5.301c-5.958-4.873-11.917-9.746-17.875-14.619C108.408-1.911,103.605,2.838,106.97,5.59
				L106.97,5.59z"/>
		</g>
	</g>
</g>
<g>
</g>
<g>
</g>
<g>
</g>
<g>
</g>
<g>
</g>
</svg>
