<?xml version="1.0" encoding="utf-8"?>
<!-- Generator: Adobe Illustrator 24.0.3, SVG Export Plug-In . SVG Version: 6.00 Build 0)  -->
<svg version="1.1" id="Layer_1" xmlns="http://www.w3.org/2000/svg" xmlns:xlink="http://www.w3.org/1999/xlink" x="0px" y="0px"
	 viewBox="0 0 18.288 8.977" style="enable-background:new 0 0 18.288 8.977;" xml:space="preserve">
<style type="text/css">
	.st0{fill:#FFFFFF;}
</style>
<path class="st0" d="M3.908,8.836C3.303,8.715,2.726,8.654,2.177,8.654S1.059,8.715,0.469,8.836H0.404
	c-0.082,0-0.154-0.03-0.217-0.091S0.094,8.616,0.094,8.54s0.024-0.144,0.073-0.202S0.293,8.24,0.398,8.221
	C0.656,8.166,0.91,8.127,1.16,8.104v-5.52C0.973,2.76,0.819,2.898,0.7,3S0.504,3.167,0.469,3.196S0.374,3.24,0.29,3.24
	S0.137,3.21,0.082,3.149S0,3.029,0,2.971c0-0.117,0.035-0.207,0.105-0.27L0.234,2.59c1.02-0.902,1.842-1.725,2.467-2.467
	c0.074-0.074,0.153-0.111,0.237-0.111s0.158,0.033,0.223,0.1S3.252,0.25,3.24,0.328v7.775c0.125,0.02,0.254,0.038,0.387,0.056
	s0.252,0.038,0.357,0.062c0.191,0.035,0.287,0.141,0.287,0.316c0,0.102-0.035,0.177-0.105,0.226S4.031,8.836,3.973,8.836H3.908z
	 M2.625,1.131c-0.109,0.125-0.393,0.416-0.85,0.873v6.053C1.842,8.049,1.91,8.045,1.98,8.045c0.145,0,0.271,0,0.378,0
	s0.196,0.004,0.267,0.012V1.131z"/>
<path class="st0" d="M6.674,8.033c0.297-0.074,0.565-0.111,0.806-0.111S7.917,7.935,8.071,7.96s0.306,0.054,0.454,0.085
	C8.9,8.131,9.179,8.174,9.36,8.174s0.329-0.018,0.443-0.053c0.113-0.035,0.211-0.076,0.293-0.123
	c0.113-0.062,0.201-0.125,0.264-0.188s0.136-0.094,0.22-0.094s0.156,0.033,0.217,0.1s0.091,0.127,0.091,0.182
	c0,0.172-0.16,0.352-0.48,0.539c-0.305,0.176-0.633,0.264-0.985,0.264c-0.211,0-0.457-0.029-0.738-0.088
	C8.148,8.596,7.77,8.537,7.547,8.537c-0.496,0-0.988,0.115-1.477,0.346C6.043,8.898,5.992,8.906,5.918,8.906
	s-0.139-0.03-0.193-0.091S5.643,8.701,5.643,8.654V8.549c0-0.098,0.067-0.254,0.202-0.469s0.263-0.391,0.384-0.527
	c0.129-0.148,0.354-0.368,0.674-0.659s0.595-0.547,0.823-0.768S8.16,5.654,8.344,5.373c0.414-0.641,0.621-1.391,0.621-2.25
	c0-0.57-0.168-1.043-0.504-1.418C8.121,1.33,7.689,1.143,7.166,1.143c-0.41,0-0.742,0.119-0.996,0.357
	C5.92,1.738,5.795,2.059,5.795,2.461c0,0.098,0.008,0.193,0.023,0.287c0.211-0.262,0.484-0.393,0.82-0.393
	c0.289,0,0.535,0.102,0.738,0.305s0.305,0.449,0.305,0.738c0,0.285-0.102,0.533-0.305,0.744C7.174,4.35,6.928,4.453,6.639,4.453
	c-0.605,0-1.039-0.332-1.301-0.996C5.236,3.199,5.186,2.874,5.186,2.481S5.269,1.74,5.435,1.436s0.382-0.562,0.647-0.773
	C6.629,0.221,7.27,0,8.004,0c0.848,0,1.554,0.271,2.119,0.814c0.564,0.543,0.847,1.229,0.847,2.057c0,1.242-0.6,2.338-1.799,3.287
	C8.83,6.432,8.501,6.672,8.183,6.879S7.58,7.278,7.33,7.456S6.861,7.826,6.674,8.033z M7.066,3.398c0-0.121-0.042-0.224-0.126-0.308
	S6.755,2.965,6.636,2.965S6.415,3.007,6.331,3.091S6.205,3.277,6.205,3.398s0.042,0.224,0.126,0.308s0.186,0.126,0.305,0.126
	S6.856,3.79,6.94,3.706S7.066,3.52,7.066,3.398z M8.895,5.643c0.973-0.801,1.459-1.725,1.459-2.771c0-0.656-0.223-1.197-0.668-1.623
	C9.24,0.826,8.68,0.615,8.004,0.615h-0.17c0.039,0.012,0.111,0.035,0.217,0.07c0.488,0.184,0.864,0.486,1.128,0.908
	S9.574,2.51,9.574,3.076C9.574,4.057,9.348,4.912,8.895,5.643z"/>
<path class="st0" d="M12.68,5.941c-0.039,0.195-0.059,0.402-0.059,0.621s0.038,0.433,0.114,0.642s0.183,0.392,0.319,0.548
	c0.297,0.328,0.689,0.492,1.178,0.492c0.949,0,1.578-0.41,1.887-1.23c0.109-0.293,0.164-0.607,0.164-0.943s-0.039-0.605-0.117-0.809
	S15.983,4.878,15.85,4.72s-0.287-0.294-0.463-0.407s-0.359-0.205-0.551-0.275c-0.371-0.145-0.744-0.217-1.119-0.217h-0.146
	c-0.09,0-0.162-0.032-0.217-0.097s-0.082-0.14-0.082-0.226s0.035-0.158,0.105-0.217l2.953-2.426h-3.65
	c-0.09,0-0.164-0.029-0.223-0.088S12.37,0.637,12.37,0.551s0.029-0.159,0.088-0.22S12.59,0.24,12.68,0.24h4.477
	c0.086,0,0.16,0.033,0.223,0.1s0.094,0.141,0.094,0.223s-0.037,0.156-0.111,0.223l-1.834,1.447c1.84,0.434,2.76,1.525,2.76,3.275
	c0,0.777-0.189,1.445-0.568,2.004c-0.324,0.484-0.781,0.857-1.371,1.119c-0.527,0.23-1.032,0.346-1.515,0.346
	s-0.883-0.056-1.201-0.167s-0.597-0.272-0.835-0.483c-0.523-0.453-0.785-1.055-0.785-1.805c0-0.453,0.055-0.723,0.164-0.809
	c0.059-0.047,0.13-0.07,0.214-0.07s0.153,0.033,0.208,0.1S12.68,5.875,12.68,5.941z M17.672,5.42c0-0.328-0.055-0.634-0.164-0.917
	s-0.25-0.525-0.422-0.727s-0.362-0.365-0.571-0.492s-0.413-0.228-0.612-0.302c-0.258-0.098-0.574-0.18-0.949-0.246L14.35,3.252
	c0.695,0.055,1.289,0.332,1.781,0.832c0.508,0.512,0.762,1.131,0.762,1.857c0,0.863-0.236,1.561-0.709,2.092
	c0.484-0.23,0.859-0.578,1.125-1.043C17.551,6.557,17.672,6.033,17.672,5.42z"/>
<g>
</g>
<g>
</g>
<g>
</g>
<g>
</g>
<g>
</g>
</svg>
