<?xml version="1.0" encoding="utf-8"?>
<!-- Generator: Adobe Illustrator 24.0.3, SVG Export Plug-In . SVG Version: 6.00 Build 0)  -->
<svg version="1.1" id="Layer_6_copy" xmlns="http://www.w3.org/2000/svg" xmlns:xlink="http://www.w3.org/1999/xlink" x="0px"
	 y="0px" viewBox="0 0 29.37 25.71" style="enable-background:new 0 0 29.37 25.71;" xml:space="preserve">
<style type="text/css">
	.st0{fill:#FFFFFF;}
</style>
<g>
	<path class="st0" d="M15.14,14.99c0.09,0.08,0.13,0.18,0.13,0.29c0,0.11-0.04,0.2-0.13,0.29c-0.08,0.09-0.18,0.13-0.3,0.13
		c-0.11,0-0.21-0.04-0.29-0.13c-0.07-0.09-0.11-0.18-0.11-0.29c0-0.11,0.04-0.21,0.11-0.29c0.08-0.09,0.18-0.13,0.29-0.13
		C14.96,14.86,15.06,14.9,15.14,14.99z"/>
	<path class="st0" d="M8.54,14.99c-0.09-0.09-0.19-0.13-0.3-0.13c-0.12,0-0.21,0.04-0.29,0.13c-0.08,0.08-0.12,0.18-0.12,0.29
		c0,0.11,0.04,0.2,0.12,0.29c0.08,0.09,0.17,0.13,0.29,0.13c0.11,0,0.21-0.04,0.3-0.13c0.08-0.09,0.12-0.18,0.12-0.29
		C8.66,15.17,8.62,15.07,8.54,14.99z M21.75,14.99c-0.08-0.09-0.18-0.13-0.3-0.13c-0.11,0-0.21,0.04-0.29,0.13
		c-0.08,0.08-0.11,0.18-0.11,0.29c0,0.11,0.03,0.2,0.11,0.29c0.08,0.09,0.18,0.13,0.29,0.13c0.12,0,0.22-0.04,0.3-0.13
		c0.08-0.09,0.13-0.18,0.13-0.29C21.88,15.17,21.83,15.07,21.75,14.99z M21.75,14.99c-0.08-0.09-0.18-0.13-0.3-0.13
		c-0.11,0-0.21,0.04-0.29,0.13c-0.08,0.08-0.11,0.18-0.11,0.29c0,0.11,0.03,0.2,0.11,0.29c0.08,0.09,0.18,0.13,0.29,0.13
		c0.12,0,0.22-0.04,0.3-0.13c0.08-0.09,0.13-0.18,0.13-0.29C21.88,15.17,21.83,15.07,21.75,14.99z M8.54,14.99
		c-0.09-0.09-0.19-0.13-0.3-0.13c-0.12,0-0.21,0.04-0.29,0.13c-0.08,0.08-0.12,0.18-0.12,0.29c0,0.11,0.04,0.2,0.12,0.29
		c0.08,0.09,0.17,0.13,0.29,0.13c0.11,0,0.21-0.04,0.3-0.13c0.08-0.09,0.12-0.18,0.12-0.29C8.66,15.17,8.62,15.07,8.54,14.99z
		 M8.54,14.99c-0.09-0.09-0.19-0.13-0.3-0.13c-0.12,0-0.21,0.04-0.29,0.13c-0.08,0.08-0.12,0.18-0.12,0.29
		c0,0.11,0.04,0.2,0.12,0.29c0.08,0.09,0.17,0.13,0.29,0.13c0.11,0,0.21-0.04,0.3-0.13c0.08-0.09,0.12-0.18,0.12-0.29
		C8.66,15.17,8.62,15.07,8.54,14.99z M8.66,4.68C8.55,4.56,8.41,4.5,8.24,4.5c-0.16,0-0.31,0.06-0.43,0.18s-0.18,0.3-0.18,0.53
		c0,0.24,0.02,0.55,0.05,0.95c0.04,0.39,0.08,0.8,0.14,1.25c0.09,0.67,0.23,1.61,0.42,2.8c0.4-2.36,0.59-4.06,0.59-5.1
		C8.83,4.94,8.78,4.8,8.66,4.68z M15.27,4.68c-0.12-0.12-0.26-0.18-0.42-0.18c-0.16,0-0.31,0.06-0.43,0.18s-0.18,0.3-0.18,0.53
		c0,0.24,0.02,0.55,0.05,0.95c0.04,0.39,0.08,0.8,0.14,1.25c0.09,0.67,0.22,1.61,0.41,2.8c0.4-2.36,0.6-4.06,0.6-5.1
		C15.44,4.94,15.38,4.8,15.27,4.68z M21.75,14.99c-0.08-0.09-0.18-0.13-0.3-0.13c-0.11,0-0.21,0.04-0.29,0.13
		c-0.08,0.08-0.11,0.18-0.11,0.29c0,0.11,0.03,0.2,0.11,0.29c0.08,0.09,0.18,0.13,0.29,0.13c0.12,0,0.22-0.04,0.3-0.13
		c0.08-0.09,0.13-0.18,0.13-0.29C21.88,15.17,21.83,15.07,21.75,14.99z M21.75,14.99c-0.08-0.09-0.18-0.13-0.3-0.13
		c-0.11,0-0.21,0.04-0.29,0.13c-0.08,0.08-0.11,0.18-0.11,0.29c0,0.11,0.03,0.2,0.11,0.29c0.08,0.09,0.18,0.13,0.29,0.13
		c0.12,0,0.22-0.04,0.3-0.13c0.08-0.09,0.13-0.18,0.13-0.29C21.88,15.17,21.83,15.07,21.75,14.99z M15.27,4.68
		c-0.12-0.12-0.26-0.18-0.42-0.18c-0.16,0-0.31,0.06-0.43,0.18s-0.18,0.3-0.18,0.53c0,0.24,0.02,0.55,0.05,0.95
		c0.04,0.39,0.08,0.8,0.14,1.25c0.09,0.67,0.22,1.61,0.41,2.8c0.4-2.36,0.6-4.06,0.6-5.1C15.44,4.94,15.38,4.8,15.27,4.68z
		 M8.66,4.68C8.55,4.56,8.41,4.5,8.24,4.5c-0.16,0-0.31,0.06-0.43,0.18s-0.18,0.3-0.18,0.53c0,0.24,0.02,0.55,0.05,0.95
		c0.04,0.39,0.08,0.8,0.14,1.25c0.09,0.67,0.23,1.61,0.42,2.8c0.4-2.36,0.59-4.06,0.59-5.1C8.83,4.94,8.78,4.8,8.66,4.68z
		 M8.54,14.99c-0.09-0.09-0.19-0.13-0.3-0.13c-0.12,0-0.21,0.04-0.29,0.13c-0.08,0.08-0.12,0.18-0.12,0.29
		c0,0.11,0.04,0.2,0.12,0.29c0.08,0.09,0.17,0.13,0.29,0.13c0.11,0,0.21-0.04,0.3-0.13c0.08-0.09,0.12-0.18,0.12-0.29
		C8.66,15.17,8.62,15.07,8.54,14.99z M14.68,0C6.57,0,0,4.66,0,10.42c0,4.16,3.44,7.76,8.41,9.42c-0.28,1.96-0.56,3.91-0.85,5.87
		l6.39-4.88c0.23,0.01,0.48,0.01,0.73,0.01c8.11,0,14.69-4.66,14.69-10.42S22.79,0,14.68,0z M9.46,15.79
		c-0.07,0.16-0.16,0.3-0.28,0.42c-0.25,0.26-0.57,0.39-0.94,0.39c-0.37,0-0.69-0.13-0.95-0.39c-0.25-0.26-0.38-0.57-0.38-0.94
		c0-0.57,0.27-0.97,0.81-1.2c0.16-0.07,0.33-0.11,0.52-0.11c0.36,0,0.67,0.13,0.94,0.38c0.25,0.25,0.38,0.56,0.38,0.94
		C9.56,15.46,9.53,15.63,9.46,15.79z M9.26,9.65c-0.33,2.03-0.51,3.15-0.55,3.36c-0.05,0.35-0.21,0.53-0.47,0.53
		c-0.11,0-0.21-0.04-0.29-0.11C7.86,13.36,7.81,13.22,7.77,13c-0.03-0.21-0.07-0.48-0.13-0.82c-0.06-0.33-0.12-0.73-0.19-1.19
		c-0.08-0.46-0.16-0.97-0.25-1.53C7.11,8.9,7.04,8.36,6.97,7.84c-0.16-1.17-0.24-1.98-0.24-2.4c0-0.43,0.04-0.73,0.12-0.91
		c0.08-0.19,0.19-0.35,0.32-0.48c0.3-0.3,0.65-0.45,1.07-0.45c0.42,0,0.78,0.15,1.07,0.45c0.3,0.3,0.45,0.64,0.45,1.02
		C9.76,6.1,9.59,7.63,9.26,9.65z M16.06,15.79c-0.07,0.16-0.16,0.3-0.27,0.42c-0.26,0.26-0.57,0.39-0.95,0.39
		c-0.37,0-0.68-0.13-0.94-0.39s-0.39-0.57-0.39-0.94c0-0.57,0.27-0.97,0.82-1.2c0.16-0.07,0.33-0.11,0.51-0.11
		c0.37,0,0.68,0.13,0.95,0.38c0.25,0.25,0.38,0.56,0.38,0.94C16.17,15.46,16.13,15.63,16.06,15.79z M15.87,9.65
		c-0.33,2.03-0.51,3.15-0.55,3.36c-0.05,0.35-0.21,0.53-0.48,0.53c-0.1,0-0.2-0.04-0.29-0.11c-0.08-0.07-0.14-0.21-0.17-0.43
		c-0.03-0.21-0.07-0.48-0.13-0.82c-0.06-0.33-0.12-0.73-0.2-1.19c-0.07-0.46-0.15-0.97-0.24-1.53c-0.09-0.56-0.17-1.1-0.24-1.62
		c-0.15-1.17-0.23-1.98-0.23-2.4c0-0.43,0.04-0.73,0.12-0.91c0.07-0.19,0.18-0.35,0.32-0.48c0.29-0.3,0.65-0.45,1.06-0.45
		c0.42,0,0.78,0.15,1.07,0.45c0.31,0.3,0.45,0.64,0.45,1.02C16.36,6.1,16.2,7.63,15.87,9.65z M22.67,15.79
		c-0.07,0.16-0.16,0.3-0.28,0.42c-0.25,0.26-0.56,0.39-0.94,0.39c-0.37,0-0.68-0.13-0.94-0.39s-0.39-0.57-0.39-0.94
		c0-0.57,0.27-0.97,0.81-1.2c0.16-0.07,0.34-0.11,0.52-0.11c0.37,0,0.68,0.13,0.94,0.38s0.38,0.56,0.38,0.94
		C22.77,15.46,22.74,15.63,22.67,15.79z M22.48,9.65c-0.34,2.03-0.52,3.15-0.55,3.36c-0.05,0.35-0.21,0.53-0.48,0.53
		c-0.11,0-0.2-0.04-0.29-0.11c-0.08-0.07-0.14-0.21-0.17-0.43c-0.03-0.21-0.08-0.48-0.13-0.82c-0.06-0.33-0.13-0.73-0.2-1.19
		c-0.07-0.46-0.15-0.97-0.24-1.53c-0.09-0.56-0.17-1.1-0.24-1.62c-0.15-1.17-0.23-1.98-0.23-2.4c0-0.43,0.04-0.73,0.11-0.91
		c0.08-0.19,0.19-0.35,0.33-0.48c0.29-0.3,0.65-0.45,1.06-0.45c0.42,0,0.78,0.15,1.07,0.45c0.3,0.3,0.45,0.64,0.45,1.02
		C22.97,6.1,22.81,7.63,22.48,9.65z M21.46,4.5c-0.17,0-0.31,0.06-0.43,0.18s-0.18,0.3-0.18,0.53c0,0.24,0.01,0.55,0.05,0.95
		c0.03,0.39,0.08,0.8,0.14,1.25c0.08,0.67,0.22,1.61,0.41,2.8c0.4-2.36,0.6-4.06,0.6-5.1c0-0.17-0.06-0.31-0.17-0.43
		C21.76,4.56,21.62,4.5,21.46,4.5z M21.45,14.86c-0.11,0-0.21,0.04-0.29,0.13c-0.08,0.08-0.11,0.18-0.11,0.29
		c0,0.11,0.03,0.2,0.11,0.29c0.08,0.09,0.18,0.13,0.29,0.13c0.12,0,0.22-0.04,0.3-0.13c0.08-0.09,0.13-0.18,0.13-0.29
		c0-0.11-0.05-0.21-0.13-0.29C21.67,14.9,21.57,14.86,21.45,14.86z M14.85,4.5c-0.16,0-0.31,0.06-0.43,0.18s-0.18,0.3-0.18,0.53
		c0,0.24,0.02,0.55,0.05,0.95c0.04,0.39,0.08,0.8,0.14,1.25c0.09,0.67,0.22,1.61,0.41,2.8c0.4-2.36,0.6-4.06,0.6-5.1
		c0-0.17-0.06-0.31-0.17-0.43C15.15,4.56,15.01,4.5,14.85,4.5z M8.24,4.5c-0.16,0-0.31,0.06-0.43,0.18s-0.18,0.3-0.18,0.53
		c0,0.24,0.02,0.55,0.05,0.95c0.04,0.39,0.08,0.8,0.14,1.25c0.09,0.67,0.23,1.61,0.42,2.8c0.4-2.36,0.59-4.06,0.59-5.1
		c0-0.17-0.05-0.31-0.17-0.43C8.55,4.56,8.41,4.5,8.24,4.5z M8.24,14.86c-0.12,0-0.21,0.04-0.29,0.13
		c-0.08,0.08-0.12,0.18-0.12,0.29c0,0.11,0.04,0.2,0.12,0.29c0.08,0.09,0.17,0.13,0.29,0.13c0.11,0,0.21-0.04,0.3-0.13
		c0.08-0.09,0.12-0.18,0.12-0.29c0-0.11-0.04-0.21-0.12-0.29C8.45,14.9,8.35,14.86,8.24,14.86z M8.54,14.99
		c-0.09-0.09-0.19-0.13-0.3-0.13c-0.12,0-0.21,0.04-0.29,0.13c-0.08,0.08-0.12,0.18-0.12,0.29c0,0.11,0.04,0.2,0.12,0.29
		c0.08,0.09,0.17,0.13,0.29,0.13c0.11,0,0.21-0.04,0.3-0.13c0.08-0.09,0.12-0.18,0.12-0.29C8.66,15.17,8.62,15.07,8.54,14.99z
		 M8.66,4.68C8.55,4.56,8.41,4.5,8.24,4.5c-0.16,0-0.31,0.06-0.43,0.18s-0.18,0.3-0.18,0.53c0,0.24,0.02,0.55,0.05,0.95
		c0.04,0.39,0.08,0.8,0.14,1.25c0.09,0.67,0.23,1.61,0.42,2.8c0.4-2.36,0.59-4.06,0.59-5.1C8.83,4.94,8.78,4.8,8.66,4.68z
		 M21.75,14.99c-0.08-0.09-0.18-0.13-0.3-0.13c-0.11,0-0.21,0.04-0.29,0.13c-0.08,0.08-0.11,0.18-0.11,0.29
		c0,0.11,0.03,0.2,0.11,0.29c0.08,0.09,0.18,0.13,0.29,0.13c0.12,0,0.22-0.04,0.3-0.13c0.08-0.09,0.13-0.18,0.13-0.29
		C21.88,15.17,21.83,15.07,21.75,14.99z M21.75,14.99c-0.08-0.09-0.18-0.13-0.3-0.13c-0.11,0-0.21,0.04-0.29,0.13
		c-0.08,0.08-0.11,0.18-0.11,0.29c0,0.11,0.03,0.2,0.11,0.29c0.08,0.09,0.18,0.13,0.29,0.13c0.12,0,0.22-0.04,0.3-0.13
		c0.08-0.09,0.13-0.18,0.13-0.29C21.88,15.17,21.83,15.07,21.75,14.99z M8.66,4.68C8.55,4.56,8.41,4.5,8.24,4.5
		c-0.16,0-0.31,0.06-0.43,0.18s-0.18,0.3-0.18,0.53c0,0.24,0.02,0.55,0.05,0.95c0.04,0.39,0.08,0.8,0.14,1.25
		c0.09,0.67,0.23,1.61,0.42,2.8c0.4-2.36,0.59-4.06,0.59-5.1C8.83,4.94,8.78,4.8,8.66,4.68z M8.54,14.99
		c-0.09-0.09-0.19-0.13-0.3-0.13c-0.12,0-0.21,0.04-0.29,0.13c-0.08,0.08-0.12,0.18-0.12,0.29c0,0.11,0.04,0.2,0.12,0.29
		c0.08,0.09,0.17,0.13,0.29,0.13c0.11,0,0.21-0.04,0.3-0.13c0.08-0.09,0.12-0.18,0.12-0.29C8.66,15.17,8.62,15.07,8.54,14.99z
		 M21.75,14.99c-0.08-0.09-0.18-0.13-0.3-0.13c-0.11,0-0.21,0.04-0.29,0.13c-0.08,0.08-0.11,0.18-0.11,0.29
		c0,0.11,0.03,0.2,0.11,0.29c0.08,0.09,0.18,0.13,0.29,0.13c0.12,0,0.22-0.04,0.3-0.13c0.08-0.09,0.13-0.18,0.13-0.29
		C21.88,15.17,21.83,15.07,21.75,14.99z M21.75,14.99c-0.08-0.09-0.18-0.13-0.3-0.13c-0.11,0-0.21,0.04-0.29,0.13
		c-0.08,0.08-0.11,0.18-0.11,0.29c0,0.11,0.03,0.2,0.11,0.29c0.08,0.09,0.18,0.13,0.29,0.13c0.12,0,0.22-0.04,0.3-0.13
		c0.08-0.09,0.13-0.18,0.13-0.29C21.88,15.17,21.83,15.07,21.75,14.99z"/>
</g>
<g>
</g>
<g>
</g>
<g>
</g>
<g>
</g>
<g>
</g>
</svg>
