<?xml version="1.0" encoding="utf-8"?>
<!-- Generator: Adobe Illustrator 24.0.3, SVG Export Plug-In . SVG Version: 6.00 Build 0)  -->
<svg version="1.1" xmlns="http://www.w3.org/2000/svg" xmlns:xlink="http://www.w3.org/1999/xlink" x="0px" y="0px"
	 viewBox="0 0 28.241 23.18" style="enable-background:new 0 0 28.241 23.18;" xml:space="preserve">
<style type="text/css">
	.st0{fill:#FFFFFF;}
</style>
<g id="body">
	<path class="st0" d="M4.894,19.75c0.06,0.34-0.13,0.66-0.44,0.79c-0.42,0.17-0.84,0.32-1.29,0.39c-0.21,0.04-1.85,0.21-1.92-0.05
		c-0.05-0.2-0.1-0.4-0.15-0.6l3.76-0.74C4.874,19.61,4.884,19.68,4.894,19.75z"/>
	<path class="st0" d="M14.874,21.55l-0.03,1.63h-7.61c-0.27,0-0.51-0.15-0.63-0.39c-0.22-0.42-0.4-0.8-0.5-1.24H14.874z"/>
	<path class="st0" d="M15.214,5.29l-0.32,15.54h-8.89c-0.04-0.38-0.07-0.75-0.09-1.13c-0.12-1.97-0.18-3.94-0.21-5.91
		c-0.03-2.54-0.07-5.07-0.07-7.61c-0.07,0-0.77,0.64-0.83,0.74c-0.47,0.8-0.55,1.81-0.71,2.71c-0.2,1.08-0.36,2.18-0.39,3.28
		c-0.03,1.46,0.46,2.87,0.72,4.29c0.09,0.5,0.18,1,0.28,1.49l-3.81,0.74c-0.58-2.55-1-5.22-0.87-7.8c0.06-1.02,0.13-1.65,0.16-1.91
		c0.09-0.78,0.21-1.55,0.37-2.32c0.27-1.29,0.64-2.58,1.27-3.74c0.02-0.03,0.03-0.05,0.05-0.07c0.51-0.82,1.08-1.5,1.98-1.9
		c0.66-0.3,1.35-0.44,2.05-0.59c0.68-0.14,1.37-0.29,2.05-0.43c-0.01,0.05-0.01,0.11-0.01,0.16c-0.01,1.1,0.92,2.18,1.31,2.59
		c0.17,0.17,0.35,0.34,0.55,0.49c0.9,0.72,2.01,1.2,3.23,1.38c0.11,0.02,0.22,0.04,0.33,0.05c0.26,0.02,0.52,0.04,0.78,0.04
		C14.504,5.38,14.864,5.35,15.214,5.29z"/>
	<path class="st0" d="M23.394,19.5l3.76,0.73c-0.05,0.22-0.11,0.44-0.16,0.65c-0.06,0.26-1.71,0.09-1.92,0.05
		c-0.44-0.07-0.87-0.22-1.28-0.39c-0.32-0.13-0.5-0.45-0.45-0.79C23.364,19.67,23.374,19.58,23.394,19.5z"/>
	<path class="st0" d="M22.134,21.55c-0.1,0.44-0.27,0.82-0.49,1.24c-0.13,0.24-0.37,0.39-0.63,0.39h-7.61l-0.03-1.63H22.134z"/>
	<path class="st0" d="M27.354,19.39l-3.8-0.75c0.09-0.48,0.18-0.96,0.27-1.44c0.26-1.42,0.75-2.83,0.71-4.29
		c-0.02-1.1-0.19-2.2-0.38-3.28c-0.16-0.9-0.25-1.91-0.71-2.71c-0.07-0.1-0.77-0.74-0.84-0.74c0,2.54-0.03,5.07-0.07,7.61
		c-0.03,1.97-0.09,3.94-0.21,5.91c-0.02,0.38-0.05,0.75-0.09,1.13h-8.88l-0.32-15.54c0.11,0.02,0.22,0.04,0.33,0.05
		c0.26,0.02,0.52,0.04,0.78,0.04c0.36,0,0.72-0.03,1.07-0.09c0.29-0.03,0.58-0.09,0.87-0.17c1.18-0.32,2.19-0.93,2.93-1.75
		c0.63-0.7,1.35-1.73,1.24-2.71c0.69,0.15,1.38,0.3,2.08,0.44c0.7,0.15,1.4,0.29,2.05,0.59c0.9,0.4,1.48,1.08,1.99,1.9
		c0.01,0.02,0.03,0.04,0.04,0.07c0.63,1.16,1.01,2.45,1.27,3.74c0.16,0.77,0.28,1.54,0.37,2.32c0.03,0.26,0.11,0.89,0.16,1.91
		C28.354,14.19,27.934,16.85,27.354,19.39z"/>
</g>
<g id="Layer_2_copy_2">
	<g>
		<path class="st0" d="M18.264,2.71c-0.64,0.71-1.52,1.19-2.45,1.44c-0.19,0.05-0.38,0.1-0.58,0.13c-0.36,0.07-0.72,0.1-1.09,0.1
			c-0.22,0-0.45-0.01-0.68-0.04c-0.15-0.02-0.3-0.04-0.45-0.07c-0.93-0.17-1.84-0.54-2.59-1.14c-0.16-0.12-0.31-0.26-0.45-0.41
			c-0.37-0.38-1.04-1.22-1.03-1.89c0-0.14,0.02-0.27,0.09-0.38c0.01-0.04,0.03-0.07,0.06-0.1C9.284,0.1,9.614,0,9.954,0
			c0.38,0,0.77,0.12,1.02,0.27c0.27,0.18,0.43,0.46,0.64,0.69c0.61,0.68,1.54,1.14,2.46,1.14h0.14c0.93-0.05,1.81-0.57,2.42-1.26
			c0.39-0.43,0.99-0.81,1.6-0.81c0.22,0,0.44,0.05,0.64,0.17c0.13,0.07,0.22,0.15,0.27,0.24C19.594,1.09,18.664,2.26,18.264,2.71z"
			/>
	</g>
	<g>
	</g>
	<g>
	</g>
	<g>
	</g>
	<g>
	</g>
	<g>
	</g>
</g>
</svg>
