<?xml version="1.0" encoding="utf-8"?>
<!-- Generator: Adobe Illustrator 25.0.0, SVG Export Plug-In . SVG Version: 6.00 Build 0)  -->
<svg version="1.1" id="Layer_1" xmlns="http://www.w3.org/2000/svg" xmlns:xlink="http://www.w3.org/1999/xlink" x="0px" y="0px"
	 viewBox="0 0 48.982 44.935" style="enable-background:new 0 0 48.982 44.935;" xml:space="preserve">
<style type="text/css">
	.st0{fill:#FFFFFF;}
</style>
<path class="st0" d="M41.079,24.177c-0.17-1.34-0.75-2.69-1.83-3.5c-0.97-0.73-2.65-1.01-3.65-0.16c-0.86,0.75-1.01,2.07-2.1,2.65
	c-1.13,0.59-2.46,0.26-2.69-1.12c-0.23-1.47,0.73-3.13,1.52-4.3c1.5-2.2,2.8-4.9,2.34-7.63c-0.46-2.69-2.58-4.64-5.09-5.49
	c-7.91-2.66-16.89,0.6-22.55,6.33c-8.63,8.74-9.42,21.94-1.78,29.49c9.06,8.95,28.6,3.41,34.33-7.89
	C40.869,30.027,41.459,27.197,41.079,24.177z M8.059,31.817c-1.92,0.33-3.7-0.74-3.98-2.4c-0.29-1.65,1.03-3.26,2.95-3.59
	c1.91-0.33,3.69,0.75,3.98,2.4C11.289,29.887,9.969,31.487,8.059,31.817z M9.469,17.757c-1.27-1.47-1.27-3.55,0-4.65
	s3.33-0.8,4.6,0.67c1.27,1.46,1.27,3.54,0,4.64C12.799,19.517,10.739,19.217,9.469,17.757z M19.409,38.827
	c-0.38,1.9-2.02,3.18-3.67,2.85c-1.64-0.33-2.67-2.14-2.29-4.04c0.38-1.91,2.02-3.18,3.67-2.85
	C18.769,35.117,19.789,36.917,19.409,38.827z M23.229,15.287c-1.6-0.52-2.4-2.44-1.79-4.29c0.6-1.84,2.39-2.91,3.98-2.39
	c1.6,0.53,2.4,2.45,1.79,4.29C26.609,14.747,24.819,15.817,23.229,15.287z M32.389,36.667c-1.17,1.2-3.25,1.07-4.64-0.29
	c-1.38-1.35-1.56-3.43-0.38-4.63c1.17-1.2,3.25-1.07,4.64,0.29C33.389,33.387,33.569,35.467,32.389,36.667z"/>
<g>
	<g>
		<path class="st0" d="M48.726,44.826l-4.093-26.72c-0.011-0.073,0.041-0.14,0.114-0.148l2.711-0.276
			c0.073-0.007,0.138,0.048,0.142,0.121L48.982,44.8C48.99,44.963,48.751,44.987,48.726,44.826z"/>
	</g>
	<g>
		<path class="st0" d="M47.341,16.637l-2.689,0.274c-0.093,0.009-0.172-0.067-0.166-0.161l0.296-4.422l1.508-0.154l1.182,4.272
			C47.496,16.536,47.434,16.627,47.341,16.637z"/>
	</g>
	<g>
		<path class="st0" d="M45.796,11.24c-0.023,0.003-0.046,0.005-0.069,0.006c-0.281,0.018-0.562,0.026-0.843,0.024
			c-0.207-0.001-0.387-0.041-0.509-0.224c-0.345-0.52-0.63-1.072-0.976-1.593c-0.349-0.527-0.694-1.065-0.921-1.658
			c-0.263-0.687-0.318-1.422-0.246-2.15c0.08-0.808,0.388-1.57,0.82-2.252c0.345-0.546,0.71-1.096,0.898-1.719
			c0.075-0.249,0.11-0.503,0.123-0.762c0.011-0.233-0.093-0.542,0.025-0.759c0.2-0.365,0.685,0.025,0.881,0.199
			c1.877,1.663,3.11,4.232,2.775,6.766c-0.138,1.039-0.563,2.037-1.061,2.951c-0.172,0.317-0.305,0.656-0.491,0.965
			C46.117,11.17,45.95,11.223,45.796,11.24z"/>
	</g>
</g>
<g>
</g>
<g>
</g>
<g>
</g>
<g>
</g>
<g>
</g>
</svg>
