<?xml version="1.0" encoding="utf-8"?>
<!-- Generator: Adobe Illustrator 24.0.3, SVG Export Plug-In . SVG Version: 6.00 Build 0)  -->
<svg version="1.1" xmlns="http://www.w3.org/2000/svg" xmlns:xlink="http://www.w3.org/1999/xlink" x="0px" y="0px"
	 viewBox="0 0 28.72 19.372" style="enable-background:new 0 0 28.72 19.372;" xml:space="preserve">
<style type="text/css">
	.st0{fill:none;stroke:#FFFFFF;stroke-width:0.5;stroke-linecap:round;stroke-linejoin:round;stroke-miterlimit:10;}
	.st1{fill:#FFFFFF;}
</style>
<g id="Layer_1">
	<path class="st0" d="M27.954,14.321v1.428c0,1.857-1.17,3.373-2.604,3.373H3.27c-1.434,0-2.604-1.516-2.604-3.373v-1.428H27.954z"
		/>
</g>
<g id="Layer_2">
	<path class="st1" d="M28.72,10.23c0,0.55-0.22,1.04-0.58,1.4c-0.36,0.36-0.85,0.58-1.4,0.58H1.98C0.89,12.21,0,11.32,0,10.23
		c0-0.55,0.22-1.04,0.58-1.4c0.36-0.37,0.85-0.59,1.4-0.59h14c0.59,0.47,1.22,0.92,1.68,1.51c0.37,0.48,0.49,1.76,1.27,1.41
		c1.03-0.46,2.01-1.05,2.92-1.73c0.45-0.34,0.88-0.71,1.34-1.04c0.05-0.04,0.16-0.09,0.25-0.15h3.3
		C27.83,8.24,28.72,9.14,28.72,10.23z"/>
	<g id="Layer_6">
	</g>
</g>
<g id="Layer_4">
	<path class="st0" d="M27.954,6.135c-0.043-0.011-0.096-0.011-0.138-0.011h-27c-0.053,0-0.096,0-0.149,0.011
		C1.081,2.857,7.031,0.25,14.31,0.25C21.589,0.25,27.539,2.857,27.954,6.135z"/>
	<g id="Layer_5">
		<g>
			<g>
				<path class="st1" d="M10.37,2.19c0.654,0,0.109-0.631-0.299-0.631C9.418,1.559,9.963,2.19,10.37,2.19L10.37,2.19z"/>
			</g>
		</g>
		<g>
			<g>
				<path class="st1" d="M12.233,2.782c0.334,0,0.759-0.88,0.415-0.88C12.315,1.902,11.89,2.782,12.233,2.782L12.233,2.782z"/>
			</g>
		</g>
		<g>
			<g>
				<path class="st1" d="M13.193,1.74c0.282,0,0.654-0.898,0.366-0.898C13.277,0.841,12.905,1.74,13.193,1.74L13.193,1.74z"/>
			</g>
		</g>
		<g>
			<g>
				<path class="st1" d="M13.72,2.246c0.211,0,0.476-0.122,0.637-0.255c0.061-0.051,0.297-0.254,0.075-0.254
					c-0.211,0-0.476,0.122-0.637,0.255C13.734,2.042,13.499,2.246,13.72,2.246L13.72,2.246z"/>
			</g>
		</g>
		<g>
			<g>
				<path class="st1" d="M15.265,1.848c0.19,0,0.173-0.999-0.042-0.999C15.033,0.849,15.051,1.848,15.265,1.848L15.265,1.848z"/>
			</g>
		</g>
		<g>
			<g>
				<path class="st1" d="M15.486,2.443c0.31,0,0.82-0.787,0.568-0.787C15.744,1.656,15.235,2.443,15.486,2.443L15.486,2.443z"/>
			</g>
		</g>
		<g>
			<g>
				<path class="st1" d="M19.085,2.366c0.282,0,0.779-0.749,0.613-0.749C19.416,1.617,18.92,2.366,19.085,2.366L19.085,2.366z"/>
			</g>
		</g>
		<g>
			<g>
				<path class="st1" d="M20.562,2.77c0.278,0,0.41-0.973,0.23-0.973C20.514,1.797,20.382,2.77,20.562,2.77L20.562,2.77z"/>
			</g>
		</g>
		<g>
			<g>
				<path class="st1" d="M7.117,2.908c0.458,0-0.121-0.782-0.45-0.782C6.209,2.126,6.787,2.908,7.117,2.908L7.117,2.908z"/>
			</g>
		</g>
		<g>
			<g>
				<path class="st1" d="M22.013,2.961c0.562,0-0.126-0.653-0.453-0.653C20.998,2.307,21.686,2.961,22.013,2.961L22.013,2.961z"/>
			</g>
		</g>
		<g>
			<g>
				<path class="st1" d="M8.155,3.475c0.212,0,0.104-0.982-0.19-0.982C7.753,2.493,7.861,3.475,8.155,3.475L8.155,3.475z"/>
			</g>
		</g>
		<g>
			<g>
				<path class="st1" d="M9.625,3.251c0.3,0,0.319-1,0.024-1C9.349,2.251,9.331,3.251,9.625,3.251L9.625,3.251z"/>
			</g>
		</g>
		<g>
			<g>
				<path class="st1" d="M16.558,3.17c0.355,0,0.113-0.956-0.174-0.956C16.029,2.214,16.271,3.17,16.558,3.17L16.558,3.17z"/>
			</g>
		</g>
		<g>
			<g>
				<path class="st1" d="M17.95,3.092c0.245,0,0.569-0.916,0.313-0.916C18.018,2.176,17.694,3.092,17.95,3.092L17.95,3.092z"/>
			</g>
		</g>
		<g>
			<g>
				<path class="st1" d="M11.649,2.123c0.446,0,0.687-0.965,0.182-0.965C11.385,1.158,11.144,2.123,11.649,2.123L11.649,2.123z"/>
			</g>
		</g>
		<g>
			<g>
				<path class="st1" d="M8.951,2.367c0.332,0-0.359-0.634-0.615-0.634C8.005,1.733,8.696,2.367,8.951,2.367L8.951,2.367z"/>
			</g>
		</g>
		<g>
			<g>
				<path class="st1" d="M23.44,3.712c0.366,0,0.252-0.988-0.152-0.988C22.922,2.724,23.036,3.712,23.44,3.712L23.44,3.712z"/>
			</g>
		</g>
		<g>
			<g>
				<path class="st1" d="M6.306,3.959c0.424,0,0.79-0.898,0.236-0.898C6.118,3.061,5.753,3.959,6.306,3.959L6.306,3.959z"/>
			</g>
		</g>
		<g>
			<g>
				<path class="st1" d="M4.943,3.745c0.227,0,0.034-0.234-0.033-0.302C4.761,3.294,4.5,3.158,4.284,3.158
					c-0.227,0-0.034,0.234,0.033,0.302C4.466,3.609,4.728,3.745,4.943,3.745L4.943,3.745z"/>
			</g>
		</g>
		<g>
			<g>
				<path class="st1" d="M24.719,4.277c0.324,0,0.6-0.951,0.209-0.951C24.604,3.327,24.328,4.277,24.719,4.277L24.719,4.277z"/>
			</g>
		</g>
		<g>
			<g>
				<path class="st1" d="M5.589,3.229c0.444,0,0.184-0.957-0.198-0.957C4.947,2.272,5.206,3.229,5.589,3.229L5.589,3.229z"/>
			</g>
		</g>
		<g>
			<g>
				<path class="st1" d="M17.472,1.837c0.292,0,0.422-0.976,0.218-0.976C17.398,0.861,17.268,1.837,17.472,1.837L17.472,1.837z"/>
			</g>
		</g>
		<g>
			<g>
				<path class="st1" d="M23.217,2.515c0.167,0-0.256-0.813-0.524-0.813C22.526,1.702,22.949,2.515,23.217,2.515L23.217,2.515z"/>
			</g>
		</g>
		<g>
			<g>
				<path class="st1" d="M10.852,1.343c0.451,0,0.087-0.923-0.327-0.923C10.074,0.42,10.438,1.343,10.852,1.343L10.852,1.343z"/>
			</g>
		</g>
		<g>
			<g>
				<path class="st1" d="M18.838,1.559c0.653,0,0.321-0.771-0.177-0.771C18.008,0.788,18.34,1.559,18.838,1.559L18.838,1.559z"/>
			</g>
		</g>
	</g>
	<g>
	</g>
	<g>
	</g>
	<g>
	</g>
	<g>
	</g>
	<g>
	</g>
</g>
</svg>
