<?xml version="1.0" encoding="utf-8"?>
<!-- Generator: Adobe Illustrator 25.0.0, SVG Export Plug-In . SVG Version: 6.00 Build 0)  -->
<svg version="1.1" xmlns="http://www.w3.org/2000/svg" xmlns:xlink="http://www.w3.org/1999/xlink" x="0px" y="0px"
	 viewBox="0 0 26.13 27.053" style="enable-background:new 0 0 26.13 27.053;" xml:space="preserve">
<style type="text/css">
	.st0{fill:#FFFFFF;}
</style>
<g id="Layer_2">
	<circle class="st0" cx="19.81" cy="2.651" r="2.651"/>
</g>
<g id="left_arm">
	<g>
		<path class="st0" d="M25.981,3.973l-4.55,6.21l-0.02,0.03c-0.04,0.06-0.09,0.11-0.14,0.15c-0.04,0.03-0.09,0.06-0.13,0.08
			c-0.04,0.02-0.09,0.04-0.14,0.05c-0.06,0.02-0.13,0.03-0.19,0.03c-0.07,0-0.13-0.01-0.19-0.03c-0.09-0.02-0.18-0.06-0.26-0.12
			c-0.05-0.04-0.1-0.08-0.13-0.13l-2.33-2.58l-4.46,6.32l3.86,3.86c0.26,0.26,0.35,0.62,0.25,0.95v0.04
			c-0.02,0.14-0.07,0.27-0.15,0.4l-4.76,7.37c-0.19,0.29-0.51,0.45-0.84,0.45c-0.18,0-0.37-0.05-0.54-0.16
			c-0.46-0.3-0.6-0.91-0.289-1.398c0.011-0.017,0.022-0.034,0.033-0.052c0.018-0.028,0.036-0.056,0.054-0.083
			c0.024-0.038,0.049-0.075,0.073-0.113c0.03-0.047,0.06-0.093,0.091-0.14c0.036-0.055,0.071-0.11,0.107-0.165
			c0.041-0.063,0.081-0.125,0.122-0.188c0.045-0.069,0.09-0.139,0.135-0.208c0.049-0.076,0.098-0.151,0.147-0.227
			c0.052-0.081,0.105-0.162,0.157-0.243c0.055-0.086,0.111-0.171,0.166-0.257c0.058-0.089,0.116-0.179,0.173-0.268
			c0.06-0.093,0.12-0.185,0.18-0.278c0.061-0.095,0.123-0.19,0.184-0.285c0.062-0.097,0.125-0.193,0.187-0.29
			c0.063-0.097,0.126-0.195,0.189-0.292c0.063-0.098,0.126-0.195,0.189-0.293c0.063-0.097,0.125-0.194,0.188-0.291
			c0.062-0.096,0.124-0.191,0.186-0.287c0.06-0.093,0.121-0.187,0.181-0.28c0.059-0.091,0.117-0.181,0.176-0.272
			c0.056-0.087,0.113-0.174,0.169-0.261c0.054-0.083,0.107-0.165,0.161-0.248c0.05-0.078,0.101-0.155,0.151-0.233
			c0.047-0.072,0.093-0.144,0.14-0.215c0.042-0.065,0.085-0.131,0.127-0.196c0.038-0.058,0.075-0.116,0.113-0.174
			c0.032-0.05,0.065-0.1,0.097-0.15c0.027-0.041,0.053-0.082,0.08-0.123c0.02-0.032,0.041-0.063,0.061-0.095
			c0.014-0.021,0.028-0.043,0.042-0.064c0.03-0.047,0.062-0.093,0.081-0.146c0.032-0.087,0.037-0.185,0.002-0.271
			c-0.033-0.079-0.093-0.143-0.157-0.199c-0.016-0.014-0.032-0.028-0.048-0.041c-0.034-0.029-0.068-0.058-0.102-0.086
			c-0.026-0.022-0.052-0.043-0.078-0.065c-0.033-0.027-0.065-0.054-0.098-0.081c-0.039-0.032-0.078-0.064-0.116-0.096
			c-0.044-0.037-0.089-0.073-0.133-0.11c-0.049-0.041-0.099-0.082-0.148-0.122c-0.054-0.044-0.107-0.089-0.161-0.133
			c-0.057-0.048-0.115-0.095-0.172-0.143c-0.06-0.05-0.121-0.1-0.181-0.15c-0.063-0.052-0.126-0.104-0.189-0.157
			c-0.065-0.054-0.13-0.108-0.195-0.161c-0.066-0.055-0.133-0.11-0.199-0.165c-0.067-0.056-0.134-0.111-0.201-0.167
			c-0.067-0.056-0.134-0.111-0.201-0.167c-0.067-0.055-0.133-0.111-0.2-0.166c-0.066-0.054-0.131-0.109-0.197-0.163
			c-0.064-0.053-0.128-0.106-0.192-0.159c-0.062-0.051-0.124-0.102-0.185-0.154c-0.059-0.049-0.118-0.098-0.177-0.146
			c-0.055-0.046-0.111-0.092-0.166-0.138c-0.051-0.043-0.103-0.085-0.154-0.128c-0.047-0.039-0.094-0.078-0.14-0.116
			c-0.042-0.034-0.083-0.069-0.125-0.103c-0.036-0.03-0.071-0.059-0.107-0.089c-0.029-0.024-0.059-0.049-0.088-0.073
			c-0.022-0.018-0.044-0.037-0.067-0.055c-0.015-0.012-0.029-0.024-0.064-0.053c0,0-2.73,3.55-2.73,3.55
			c-0.07,0.09-0.14,0.16-0.23,0.22c-0.05,0.04-0.11,0.07-0.17,0.1c-0.06,0.03-0.12,0.05-0.19,0.06c-0.07,0.02-0.14,0.03-0.22,0.03
			c-0.05,0-0.1-0.01-0.15-0.01l-0.06-0.01l-6.27-0.95c-0.55-0.08-0.92-0.59-0.84-1.14c0.08-0.54,0.59-0.91,1.14-0.84l5.54,0.84h0.03
			c0.03,0,0.06,0,0.1-0.01c0.1-0.03,0.15-0.08,0.18-0.09l3.22-4.19c0.02-0.03,0.05-0.05,0.07-0.07l4.73-6.7l-3.27,0.19l-3.21,5.38
			c-0.14,0.24-0.39,0.37-0.64,0.37c-0.13,0-0.26-0.03-0.38-0.1c-0.36-0.22-0.48-0.68-0.27-1.03c0,0,3.41-5.73,3.43-5.75
			c0.05-0.08,0.11-0.15,0.19-0.2c0.07-0.06,0.16-0.1,0.25-0.13c0.06-0.01,0.12-0.02,0.19-0.02l5.23-0.29
			c0.17-0.01,0.35,0.05,0.49,0.17c0.11,0.03,0.22,0.1,0.3,0.2l3.41,3.78l4.03-5.49c0.25-0.34,0.71-0.41,1.05-0.16
			C26.161,3.173,26.231,3.643,25.981,3.973z"/>
	</g>
	<g>
	</g>
	<g>
	</g>
	<g>
	</g>
	<g>
	</g>
	<g>
	</g>
</g>
</svg>
