<?xml version="1.0" encoding="utf-8"?>
<!-- Generator: Adobe Illustrator 24.0.3, SVG Export Plug-In . SVG Version: 6.00 Build 0)  -->
<svg version="1.1" xmlns="http://www.w3.org/2000/svg" xmlns:xlink="http://www.w3.org/1999/xlink" x="0px" y="0px"
	 viewBox="0 0 25.95 25.95" style="enable-background:new 0 0 25.95 25.95;" xml:space="preserve">
<style type="text/css">
	.st0{fill:#FFFFFF;}
</style>
<g id="Layer_2">
	<g id="Layer_3">
		<g id="XMLID_1_">
			<g>
				<g>
					<path class="st0" d="M23.05,0H2.9C1.3,0,0,1.3,0,2.9v20.15c0,1.6,1.3,2.9,2.9,2.9h20.15c1.6,0,2.9-1.3,2.9-2.9V2.9
						C25.95,1.3,24.65,0,23.05,0z M11.69,21.87H7.13c-0.21,0-0.37-0.06-0.49-0.19c-0.12-0.12-0.18-0.28-0.18-0.46
						c0-0.24,0.09-0.46,0.27-0.65l2.74-2.94c0.34-0.37,0.58-0.7,0.74-1.01c0.15-0.31,0.23-0.62,0.23-0.92
						c0-0.38-0.11-0.66-0.32-0.86c-0.22-0.2-0.53-0.3-0.93-0.3c-0.32,0-0.64,0.06-0.95,0.18c-0.31,0.13-0.62,0.3-0.93,0.51
						c-0.08,0.06-0.16,0.1-0.24,0.14c-0.08,0.04-0.16,0.05-0.24,0.05c-0.14,0-0.25-0.06-0.35-0.19s-0.15-0.28-0.15-0.45
						c0-0.12,0.02-0.23,0.06-0.32c0.05-0.08,0.12-0.17,0.21-0.25c0.35-0.28,0.77-0.5,1.24-0.66c0.47-0.17,0.94-0.25,1.41-0.25
						c0.83,0,1.49,0.21,1.98,0.62c0.49,0.42,0.74,0.98,0.74,1.68c0,0.49-0.11,0.95-0.32,1.38c-0.2,0.43-0.56,0.9-1.05,1.43
						l-2.08,2.21h3.17c0.48,0,0.72,0.2,0.72,0.61C12.41,21.66,12.17,21.87,11.69,21.87z M18.94,21.87h-4.06
						c-0.49,0-0.73-0.21-0.73-0.64c0-0.41,0.24-0.61,0.73-0.61h1.25v-5.47l-1.15,0.71c-0.11,0.06-0.21,0.09-0.3,0.09
						c-0.17,0-0.31-0.07-0.43-0.21c-0.11-0.15-0.17-0.31-0.17-0.48c0-0.24,0.1-0.42,0.31-0.54l1.86-1.16
						c0.24-0.14,0.47-0.21,0.68-0.21c0.23,0,0.41,0.07,0.54,0.2c0.14,0.14,0.21,0.33,0.21,0.57v6.5h1.26c0.48,0,0.72,0.2,0.72,0.61
						C19.66,21.66,19.42,21.87,18.94,21.87z M24.95,9.81H1V2.9C1,1.85,1.85,1,2.9,1h20.15c1.05,0,1.9,0.85,1.9,1.9V9.81z"/>
				</g>
			</g>
		</g>
	</g>
</g>
<g id="Layer_5">
	<g>
		<path class="st0" d="M10.177,3.582c0.079,0.082,0.119,0.19,0.119,0.326v4.144c0,0.131-0.038,0.233-0.112,0.308
			c-0.075,0.074-0.172,0.112-0.294,0.112c-0.121,0-0.217-0.038-0.287-0.112c-0.07-0.075-0.105-0.177-0.105-0.308V5.167l-1.19,2.254
			C8.252,7.524,8.191,7.6,8.126,7.649C8.061,7.698,7.983,7.722,7.895,7.722c-0.088,0-0.166-0.023-0.231-0.07
			C7.598,7.606,7.538,7.529,7.482,7.422L6.285,5.202v2.849c0,0.126-0.036,0.228-0.108,0.304C6.104,8.433,6.007,8.471,5.886,8.471
			c-0.122,0-0.217-0.038-0.287-0.112c-0.07-0.075-0.105-0.177-0.105-0.308V3.907c0-0.135,0.039-0.244,0.116-0.326
			C5.686,3.5,5.79,3.459,5.921,3.459c0.182,0,0.324,0.101,0.427,0.301l1.554,2.961L9.449,3.76c0.103-0.201,0.24-0.301,0.413-0.301
			C9.992,3.459,10.097,3.5,10.177,3.582z"/>
		<path class="st0" d="M15.881,8.072c0,0.107-0.043,0.198-0.129,0.273c-0.087,0.075-0.186,0.112-0.298,0.112
			c-0.075,0-0.145-0.02-0.21-0.06c-0.065-0.04-0.117-0.101-0.154-0.185l-0.42-0.938h-2.463l-0.42,0.938
			c-0.038,0.084-0.089,0.146-0.154,0.185c-0.065,0.04-0.138,0.06-0.217,0.06c-0.107,0-0.206-0.037-0.294-0.112
			c-0.089-0.075-0.133-0.166-0.133-0.273c0-0.061,0.014-0.122,0.042-0.182l1.932-4.151c0.042-0.093,0.106-0.165,0.192-0.213
			c0.086-0.049,0.179-0.074,0.276-0.074s0.19,0.024,0.277,0.074c0.086,0.049,0.15,0.12,0.192,0.213l1.938,4.151
			C15.867,7.951,15.881,8.012,15.881,8.072z M12.459,2.847c-0.084-0.082-0.126-0.188-0.126-0.318c0-0.131,0.042-0.236,0.126-0.315
			c0.084-0.08,0.193-0.119,0.329-0.119c0.135,0,0.246,0.04,0.333,0.119c0.086,0.079,0.129,0.184,0.129,0.315
			c0,0.13-0.043,0.237-0.129,0.318c-0.086,0.082-0.197,0.123-0.333,0.123C12.652,2.969,12.543,2.928,12.459,2.847z M12.515,6.574
			h1.848l-0.923-2.079L12.515,6.574z M13.747,2.847c-0.084-0.082-0.126-0.188-0.126-0.318c0-0.131,0.042-0.236,0.126-0.315
			c0.084-0.08,0.193-0.119,0.329-0.119c0.131,0,0.239,0.04,0.325,0.119c0.086,0.079,0.13,0.184,0.13,0.315
			c0,0.13-0.042,0.237-0.126,0.318s-0.194,0.123-0.329,0.123C13.94,2.969,13.831,2.928,13.747,2.847z"/>
		<path class="st0" d="M20.593,8.108c0,0.107-0.044,0.196-0.13,0.266c-0.087,0.07-0.188,0.105-0.305,0.105
			c-0.074,0-0.146-0.017-0.214-0.052c-0.067-0.035-0.124-0.087-0.171-0.158l-0.931-1.414c-0.094-0.149-0.193-0.254-0.298-0.315
			c-0.105-0.061-0.241-0.091-0.409-0.091h-0.687v1.568c0,0.14-0.04,0.251-0.119,0.333s-0.187,0.123-0.321,0.123
			c-0.136,0-0.244-0.041-0.326-0.123c-0.081-0.082-0.122-0.192-0.122-0.333V3.922c0-0.135,0.038-0.241,0.115-0.315
			c0.077-0.074,0.184-0.112,0.318-0.112h1.75c0.561,0,0.986,0.125,1.277,0.375c0.292,0.25,0.438,0.61,0.438,1.082
			c0,0.383-0.108,0.696-0.325,0.941s-0.523,0.403-0.921,0.473c0.136,0.033,0.255,0.091,0.357,0.175s0.203,0.201,0.301,0.35
			l0.638,0.973C20.565,7.946,20.593,8.028,20.593,8.108z M19.367,5.563c0.159-0.128,0.238-0.325,0.238-0.591
			c0-0.271-0.079-0.468-0.238-0.591c-0.158-0.124-0.408-0.186-0.749-0.186h-1.176v1.561h1.176
			C18.959,5.755,19.209,5.691,19.367,5.563z"/>
	</g>
	<g>
	</g>
	<g>
	</g>
	<g>
	</g>
	<g>
	</g>
	<g>
	</g>
</g>
</svg>
