<?xml version="1.0" encoding="utf-8"?>
<!-- Generator: Adobe Illustrator 24.0.3, SVG Export Plug-In . SVG Version: 6.00 Build 0)  -->
<svg version="1.1" id="Layer_9" xmlns="http://www.w3.org/2000/svg" xmlns:xlink="http://www.w3.org/1999/xlink" x="0px" y="0px"
	 viewBox="0 0 29.47 22.379" style="enable-background:new 0 0 29.47 22.379;" xml:space="preserve">
<style type="text/css">
	.st0{fill:#FFFFFF;stroke:#FFFFFF;stroke-width:0.5;stroke-linecap:round;stroke-linejoin:round;stroke-miterlimit:10;}
	.st1{fill:none;stroke:#FFFFFF;stroke-width:0.75;stroke-miterlimit:10;}
	.st2{fill:#FFFFFF;}
	.st3{fill:none;stroke:#FFFFFF;stroke-width:0.5;stroke-miterlimit:10;}
</style>
<path id="bottom_bun" class="st0" d="M28.329,17.328v1.428c0,1.857-1.17,3.373-2.604,3.373H3.645c-1.434,0-2.604-1.516-2.604-3.373
	v-1.428H28.329z"/>
<path id="patty" class="st1" d="M29.095,13.238c0,0.55-0.22,1.04-0.58,1.4c-0.36,0.36-0.85,0.58-1.4,0.58H2.355
	c-1.09,0-1.98-0.89-1.98-1.98c0-0.55,0.22-1.04,0.58-1.4c0.36-0.37,0.85-0.59,1.4-0.59h14c0.59,0.47,1.22,0.92,1.68,1.51
	c0.37,0.48,0.49,1.76,1.27,1.41c1.03-0.46,2.01-1.05,2.92-1.73c0.45-0.34,0.88-0.71,1.34-1.04c0.05-0.04,0.16-0.09,0.25-0.15h3.3
	C28.205,11.248,29.095,12.148,29.095,13.238z"/>
<path id="cheese" class="st2" d="M15.575,10.878c2.918,0,5.836,0,8.754,0c-1.78,1.114-3.56,2.228-5.339,3.342
	c-0.138-0.437-0.45-1.22-1.154-1.963C16.984,11.359,16.027,11.01,15.575,10.878z"/>
<path id="tomato" class="st3" d="M27.512,9.746H1.958c-0.477,0-0.867-0.39-0.867-0.867v0c0-0.477,0.39-0.867,0.867-0.867h25.554
	c0.477,0,0.867,0.39,0.867,0.867v0C28.379,9.356,27.989,9.746,27.512,9.746z"/>
<path id="top_bun_1_" class="st2" d="M14.685,0c-7.36,0-13.46,2.68-13.89,6.11c-0.01,0.08,0.02,0.16,0.08,0.21
	c0.04,0.04,0.1,0.07,0.17,0.07c0.01,0,0.03,0,0.05-0.01c0.03-0.01,0.06,0,0.1,0h27.07c0.08,0.02,0.17,0,0.23-0.06
	c0.06-0.05,0.09-0.13,0.08-0.21C28.145,2.68,22.045,0,14.685,0z M4.535,4.56c-0.22,0-0.5-0.06-0.79-0.18l-0.29-0.13
	c-0.17-0.07-0.23-0.32-0.14-0.54c0.09-0.22,0.31-0.35,0.48-0.28l0.3,0.11c0.57,0.24,0.96,0.62,0.87,0.85
	C4.915,4.5,4.755,4.56,4.535,4.56z M7.345,2.92c-0.14,0.2-0.38,0.27-0.53,0.17l-0.27-0.17c-0.51-0.36-0.81-0.81-0.67-1.02
	c0.05-0.07,0.13-0.1,0.25-0.1c0.24,0,0.6,0.13,0.94,0.37l0.25,0.19C7.465,2.47,7.475,2.72,7.345,2.92z M8.785,4.73l-0.29,0.12
	c-0.17,0.08-0.39-0.04-0.49-0.26c-0.1-0.22-0.05-0.47,0.12-0.54l0.29-0.15c0.56-0.25,1.11-0.28,1.21-0.05
	c0.01,0.03,0.02,0.05,0.02,0.08C9.645,4.16,9.295,4.5,8.785,4.73z M10.825,1.96l-0.32,0.02C9.885,2,9.375,1.81,9.365,1.56
	c0-0.25,0.5-0.47,1.12-0.48h0.32c0.18,0,0.34,0.19,0.34,0.44C11.155,1.76,11.005,1.96,10.825,1.96z M13.015,4.72
	c-0.19,0.15-0.44,0.15-0.55,0l-0.2-0.25c-0.38-0.49-0.52-1.02-0.32-1.17c0.04-0.03,0.08-0.04,0.13-0.04c0.24,0,0.61,0.26,0.91,0.67
	l0.18,0.26C13.275,4.34,13.215,4.58,13.015,4.72z M14.385,1.97l-0.24,0.21c-0.14,0.13-0.38,0.09-0.55-0.09
	c-0.16-0.18-0.19-0.43-0.06-0.55l0.23-0.23c0.45-0.42,0.96-0.62,1.13-0.44c0.04,0.04,0.06,0.1,0.06,0.17
	C14.955,1.28,14.735,1.64,14.385,1.97z M16.725,3.88l-0.17,0.26c-0.36,0.51-0.82,0.81-1.02,0.66c-0.07-0.05-0.1-0.13-0.1-0.25
	c0-0.23,0.14-0.59,0.38-0.93l0.19-0.25c0.11-0.15,0.36-0.16,0.56-0.02C16.755,3.49,16.835,3.73,16.725,3.88z M18.165,1.78
	c-0.04,0.62-0.27,1.11-0.52,1.09c-0.23-0.01-0.39-0.43-0.39-0.97c0-0.06,0.01-0.12,0.01-0.18l0.03-0.32
	c0.01-0.18,0.22-0.32,0.46-0.3c0.25,0.01,0.43,0.18,0.42,0.36L18.165,1.78z M20.275,5.07c-0.14,0.2-0.37,0.28-0.53,0.18l-0.27-0.17
	c-0.51-0.34-0.82-0.8-0.68-1c0.05-0.07,0.14-0.11,0.27-0.11c0.23,0,0.58,0.13,0.92,0.36l0.25,0.19
	C20.395,4.62,20.405,4.87,20.275,5.07z M20.805,2.65l-0.27,0.18c-0.15,0.1-0.39,0.03-0.53-0.17s-0.13-0.44,0.02-0.55l0.25-0.2
	c0.5-0.36,1.03-0.49,1.18-0.28c0.02,0.03,0.04,0.08,0.04,0.12C21.495,1.98,21.215,2.35,20.805,2.65z M23.435,4.53
	c0,0.18-0.2,0.33-0.44,0.33c-0.25,0-0.44-0.15-0.44-0.33l-0.02-0.32c0-0.62,0.21-1.13,0.46-1.13s0.45,0.51,0.45,1.13L23.435,4.53z
	 M26.075,4.3c-0.18,0.17-0.43,0.19-0.55,0.06l-0.23-0.23c-0.42-0.45-0.62-0.96-0.44-1.13c0.04-0.04,0.1-0.06,0.16-0.06
	c0.24,0,0.61,0.22,0.94,0.57l0.21,0.24C26.295,3.89,26.255,4.13,26.075,4.3z"/>
<g>
</g>
<g>
</g>
<g>
</g>
<g>
</g>
<g>
</g>
</svg>
