<?xml version="1.0" encoding="utf-8"?>
<!-- Generator: Adobe Illustrator 24.0.3, SVG Export Plug-In . SVG Version: 6.00 Build 0)  -->
<svg version="1.1" id="Layer_2" xmlns="http://www.w3.org/2000/svg" xmlns:xlink="http://www.w3.org/1999/xlink" x="0px" y="0px"
	 viewBox="0 0 29.664 26.963" style="enable-background:new 0 0 29.664 26.963;" xml:space="preserve">
<style type="text/css">
	.st0{fill:none;stroke:#FFFFFF;stroke-linecap:round;stroke-linejoin:round;stroke-miterlimit:10;}
	.st1{fill:#FFFFFF;}
</style>
<path class="st0" d="M29.164,11.338c0,5.988-6.427,10.838-14.34,10.838c-0.47,0-0.925-0.015-1.379-0.061
	c-2.926,2.774-5.533,3.683-7.155,4.032c-0.227,0.045-3.062,0.667-3.32,0.03c-0.091-0.212,0.167-0.47,0.515-0.909
	c0.712-0.864,1.683-2.274,1.955-3.107c0.515-1.546-0.743-3.032-1.152-3.471l-0.136-0.136C1.879,16.644,0.5,14.127,0.5,11.338
	C0.5,5.351,6.912,0.5,14.825,0.5C22.737,0.5,29.164,5.351,29.164,11.338z"/>
<g id="Layer_3">
	<g>
		<path class="st1" d="M10.382,16.582c-0.688,0-1.136-0.496-1.136-1.136c0-0.672,0.448-1.137,1.136-1.137
			c0.64,0,1.137,0.464,1.137,1.137C11.519,16.086,11.022,16.582,10.382,16.582z M9.374,6.226c0-0.672,0.512-0.913,1.008-0.913
			s0.993,0.24,0.993,0.913v6.306c0,0.641-0.497,0.88-0.993,0.88s-1.008-0.24-1.008-0.88V6.226z"/>
		<path class="st1" d="M14.894,16.582c-0.688,0-1.136-0.496-1.136-1.136c0-0.672,0.448-1.137,1.136-1.137
			c0.64,0,1.137,0.464,1.137,1.137C16.031,16.086,15.534,16.582,14.894,16.582z M13.886,6.226c0-0.672,0.512-0.913,1.008-0.913
			s0.992,0.24,0.992,0.913v6.306c0,0.641-0.496,0.88-0.992,0.88s-1.008-0.24-1.008-0.88V6.226z"/>
		<path class="st1" d="M19.406,16.582c-0.688,0-1.137-0.496-1.137-1.136c0-0.672,0.448-1.137,1.137-1.137
			c0.641,0,1.137,0.464,1.137,1.137C20.543,16.086,20.047,16.582,19.406,16.582z M18.397,6.226c0-0.672,0.513-0.913,1.009-0.913
			s0.992,0.24,0.992,0.913v6.306c0,0.641-0.496,0.88-0.992,0.88s-1.009-0.24-1.009-0.88V6.226z"/>
	</g>
</g>
<g>
</g>
<g>
</g>
<g>
</g>
<g>
</g>
<g>
</g>
</svg>
