<?xml version="1.0" encoding="utf-8"?>
<!-- Generator: Adobe Illustrator 25.0.0, SVG Export Plug-In . SVG Version: 6.00 Build 0)  -->
<svg version="1.1" id="Layer_2" xmlns="http://www.w3.org/2000/svg" xmlns:xlink="http://www.w3.org/1999/xlink" x="0px" y="0px"
	 viewBox="0 0 18.472 28.629" style="enable-background:new 0 0 18.472 28.629;" xml:space="preserve">
<style type="text/css">
	.st0{fill:#FFFFFF;}
</style>
<path class="st0" d="M18.237,28.574L6.587,12.298c-0.043-0.06-0.027-0.143,0.035-0.183l1.698-1.09
	c0.062-0.04,0.145-0.02,0.181,0.044l9.952,17.366C18.534,28.576,18.332,28.706,18.237,28.574z"/>
<path class="st0" d="M7.905,10.336l-1.737,1.116c-0.06,0.039-0.141,0.014-0.169-0.052L4.673,8.284l0.974-0.625l2.281,2.502
	C7.976,10.214,7.965,10.297,7.905,10.336z"/>
<path class="st0" d="M4.988,7.192c-0.015,0.01-0.03,0.019-0.045,0.028C4.758,7.33,4.569,7.432,4.377,7.528
	C4.235,7.599,4.099,7.633,3.952,7.551c-0.414-0.235-0.8-0.513-1.215-0.748c-0.42-0.238-0.841-0.486-1.2-0.812
	c-0.417-0.377-0.708-0.859-0.91-1.38C0.401,4.033,0.348,3.408,0.407,2.793c0.046-0.491,0.105-0.992,0.018-1.482
	C0.39,1.116,0.326,0.931,0.245,0.75C0.172,0.587-0.006,0.413,0,0.224c0.01-0.318,0.475-0.219,0.669-0.169
	C2.522,0.539,4.25,1.864,4.897,3.706c0.265,0.755,0.32,1.582,0.297,2.377C5.185,6.359,5.212,6.636,5.192,6.91
	C5.182,7.034,5.087,7.128,4.988,7.192z"/>
<g>
</g>
<g>
</g>
<g>
</g>
<g>
</g>
<g>
</g>
</svg>
