<?xml version="1.0" encoding="utf-8"?>
<!-- Generator: Adobe Illustrator 25.0.0, SVG Export Plug-In . SVG Version: 6.00 Build 0)  -->
<svg version="1.1" xmlns="http://www.w3.org/2000/svg" xmlns:xlink="http://www.w3.org/1999/xlink" x="0px" y="0px"
	 viewBox="0 0 40.326 50.905" style="enable-background:new 0 0 40.326 50.905;" xml:space="preserve">
<style type="text/css">
	.st0{clip-path:url(#SVGID_2_);fill:#06060C;}
	.st1{clip-path:url(#SVGID_2_);fill:#FF0016;}
	.st2{clip-path:url(#SVGID_2_);fill:#FFC516;}
	.st3{fill:#FAFEFF;}
</style>
<g id="Layer_1">
	<g>
		<defs>
			<path id="SVGID_1_" d="M36.614,47.905H3.708C3.317,47.905,3,47.588,3,47.197V3.708C3,3.317,3.317,3,3.708,3h32.905
				c0.59,0,0.921,0.679,0.558,1.144L20.873,24.998c-0.2,0.256-0.2,0.615,0,0.871l16.3,20.892
				C37.535,47.226,37.204,47.905,36.614,47.905z"/>
		</defs>
		<clipPath id="SVGID_2_">
			<use xlink:href="#SVGID_1_"  style="overflow:visible;"/>
		</clipPath>
		<rect x="3" y="3" class="st0" width="35.064" height="14.968"/>
		<rect x="3" y="17.968" class="st1" width="35.064" height="14.968"/>
		<rect x="3" y="32.936" class="st2" width="35.064" height="14.968"/>
	</g>
</g>
<g id="Layer_4">
	<g>
		<path class="st3" d="M36.613,3c0.59,0,0.921,0.679,0.558,1.144L20.873,24.998c-0.2,0.256-0.2,0.615,0,0.871l16.3,20.892
			c0.363,0.465,0.031,1.143-0.558,1.143H3.708C3.317,47.905,3,47.588,3,47.197V3.708C3,3.317,3.317,3,3.708,3H36.613 M36.613,0
			H3.708C1.663,0,0,1.663,0,3.708v43.489c0,2.045,1.663,3.708,3.708,3.708h32.906c1.429,0,2.705-0.798,3.332-2.081
			c0.627-1.284,0.47-2.781-0.409-3.907L24.338,25.435L39.534,5.991c0.88-1.126,1.038-2.624,0.411-3.908S38.042,0,36.613,0L36.613,0z
			"/>
	</g>
	<g>
	</g>
	<g>
	</g>
	<g>
	</g>
	<g>
	</g>
	<g>
	</g>
</g>
</svg>
