<?xml version="1.0" encoding="utf-8"?>
<!-- Generator: Adobe Illustrator 24.0.3, SVG Export Plug-In . SVG Version: 6.00 Build 0)  -->
<svg version="1.1" xmlns="http://www.w3.org/2000/svg" xmlns:xlink="http://www.w3.org/1999/xlink" x="0px" y="0px"
	 viewBox="0 0 206.01 168.35" style="enable-background:new 0 0 206.01 168.35;" xml:space="preserve">
<style type="text/css">
	.st0{fill:url(#SVGID_1_);}
	.st1{fill:url(#SVGID_2_);}
	.st2{opacity:0.47;fill:url(#SVGID_3_);}
	.st3{opacity:0.47;fill:url(#SVGID_4_);}
	.st4{fill:url(#SVGID_5_);}
	.st5{fill:url(#SVGID_6_);}
	.st6{fill:url(#SVGID_7_);}
	.st7{opacity:0.74;fill:url(#SVGID_8_);}
	.st8{fill:none;stroke:#6D675D;stroke-width:0.5;stroke-linecap:round;stroke-miterlimit:10;}
	.st9{fill:url(#SVGID_9_);}
	.st10{opacity:0.79;}
	.st11{fill:none;stroke:#2A8686;stroke-width:0.75;stroke-linecap:round;stroke-miterlimit:10;}
	
		.st12{fill:none;stroke:#2A8686;stroke-width:0.75;stroke-linecap:round;stroke-miterlimit:10;stroke-dasharray:2.0758,2.491,1.0379,2.0758;}
	
		.st13{fill:none;stroke:#2A8686;stroke-width:0.75;stroke-linecap:round;stroke-miterlimit:10;stroke-dasharray:1.1694,1.4033,0.5847,1.1694;}
	
		.st14{fill:none;stroke:#2A8686;stroke-width:0.75;stroke-linecap:round;stroke-miterlimit:10;stroke-dasharray:0.169,0.2027,0.0845,0.169;}
	
		.st15{fill:none;stroke:#2A8686;stroke-width:0.75;stroke-linecap:round;stroke-miterlimit:10;stroke-dasharray:1.4821,1.7785,0.741,1.4821;}
	.st16{fill:#1A1A1A;stroke:#A6E6D6;stroke-width:0.5;stroke-miterlimit:10;}
</style>
<g id="Layer_13">
	
		<radialGradient id="SVGID_1_" cx="161.0997" cy="111.1521" r="105.1497" fx="205.2881" fy="206.5661" gradientTransform="matrix(-0.9837 -0.1799 0.0833 -0.4557 310.3081 190.7845)" gradientUnits="userSpaceOnUse">
		<stop  offset="0.3606" style="stop-color:#939283"/>
		<stop  offset="0.8986" style="stop-color:#7D6663"/>
	</radialGradient>
	<path class="st0" d="M7.806,142.172l14.931-62.97c0.037-0.155,0.146-0.283,0.293-0.343l96.618-39.555
		c0.158-0.065,0.333-0.047,0.471,0.053c3.629,2.632,51.64,37.634,61.045,53.936c7.422,12.865,13.904,26.582,19.005,40.536
		c2.474,6.768,3.922,13.982,5.823,20.941c0.085,0.311-0.145,0.616-0.467,0.621L18.93,158.098
		c-7.316,0.106-12.892-6.518-11.541-13.709L7.806,142.172z"/>
</g>
<g id="Layer_2">
	
		<radialGradient id="SVGID_2_" cx="95.3602" cy="107.3838" r="109.0482" fx="62.8691" fy="138.3211" gradientTransform="matrix(0.4323 0.9017 -1.057 0.5067 167.6378 -33.0214)" gradientUnits="userSpaceOnUse">
		<stop  offset="0" style="stop-color:#2A4086"/>
		<stop  offset="1" style="stop-color:#2AAD86"/>
	</radialGradient>
	<path class="st1" d="M205.032,57.27c-0.072-1.293-0.606-2.529-0.606-2.529c-0.003-0.008-0.007-0.016-0.01-0.024
		c-0.491-1.154-0.683-2.422-0.373-3.637c0.754-2.953-3.173-6.315-3.511-9.1c-0.22-1.75,0.51-3.48,0.49-5.24
		c-0.03-3.18-2.37-5.78-4.53-7.87c-2.3-2.22-5.25-2.78-8.19-3.78c-4.73-1.61-8.6-4.87-12.72-7.57c-2.14-1.4-4.33-2.4-6.64-3.46
		c-2.33-1.06-4.36-2.74-6.45-4.19c-2.28-1.58-5.32-2.71-7.77-1.42c-0.62,0.33-1.17,0.81-1.5,1.43c-0.26,0.47-0.37,1.01-0.5,1.53
		c-0.75,2.98-1.85,7.85-5.65,7.35c-2.07-0.28-4.01-1.24-5.7-2.44c-2.21-1.56-4.09-3.53-6.16-5.27
		c-10.74-9.02-26.71-12.07-40.35-10.76c-7.26,0.7-14.41,2.31-21.27,4.79c-14.29,5.18-28.67,14.09-39.23,25.02
		c-13.33,13.8-21.78,31.15-26.58,49.56c-2.39,9.18-4.25,18.49-5.98,27.82c-2.86,15.35-3.37,33.9,6.51,47.01
		c4.35,5.77,10.3,10.46,17.33,12.43c16.02,4.48,38.19-1.39,41.2-20.12c0.84-5.27-0.16-12.58-3.14-17.1
		c-2.68-4.08-7.53-6.98-12.18-8.15c-9.33-2.35-20.3,2.3-24.24,11.38c-0.82,1.88-1.18,3.92-1.38,5.96c-0.7,6.88,1.7,11.66,6.92,15.9
		c0,0,0.31,0.25,0.78,0.59c0.48,0.34,1.14,0.78,1.8,1.11c0.19,0.09,0.38,0.18,0.57,0.26c-2.19-0.19-4.37-0.66-6.44-1.31
		c-2.63-0.83-4.99-2.27-6.94-4.22c-8.21-8.2-8.05-19.41-7.44-30.19c0.27-4.69,1.66-9.35,3.16-13.77c0.7-2.09,1.44-4.2,2.32-6.22
		c0.68-1.55,1.3-4.28,2.93-5.08c1.42-0.7,3.2,0.21,4.67-0.36c0.65-0.26,1.16-0.78,1.64-1.3c4.69-5.05,10.72-8.9,16.83-12.12
		c3.22-1.69,42.92-12.89,48.16-14.59c5.24-1.69,17.32-6.78,20.71-7.8c3.39-1.02,12.04,0.51,17.3,3.39
		c5.26,2.89,12.72,5.26,16.28,6.11c3.57,0.85,26.8,1.19,36.13,1.02c2.351-0.043,7.494,0.238,12.26-2.64
		c2.639-1.594,4.157-3.516,4.874-4.441C203.65,61.637,205.166,59.68,205.032,57.27z M35.732,148.93c-3.57-2.91-3.8-8.82-1.95-12.76
		c2.44-5.2,8.55-7.63,14.02-6.65c2.85,0.51,6.02,2.01,7.87,4.3c1.9,2.33,2.9,6.39,2.18,9.32c-0.29,1.16-0.85,2.23-1.51,3.24
		c0.1-0.55,0.19-1.05,0.24-1.45c0.56-4.14-1.42-8.05-5.02-10.22c-4.24-2.56-8.94-1.82-12.68,1.17c-1.62,1.29-2.91,3.15-3.31,4.53
		c-0.94,3.18,0.9,7.36,4.16,8.27c1.76,0.49,3.69,0.17,5.32-0.67c1-0.52,1.97-1.32,2.21-2.42c0.23-1.03,0.07-2.27-1.25-2.25
		c-1.35,0.02-1.88,1.51-3.13,1.72c-0.15,0.02-0.3,0.03-0.44,0.02c-0.32-0.02-0.64-0.11-0.95-0.21c-0.53-0.16-1.07-0.36-1.48-0.74
		c-0.99-0.92-0.44-2.72,0.27-3.65c1.72-2.23,5.78-2.18,8.17-1.32c0.48,0.17,0.95,0.38,1.32,0.73c1.33,1.24,1.87,3.81,1.32,5.49
		c-1.15,3.55-4.97,6.23-8.7,6.01c-1.44-0.08-2.83-0.56-4.18-1.11C37.342,149.92,36.472,149.52,35.732,148.93z"/>
</g>
<g id="Layer_14">
	<g id="Layer_15">
		<linearGradient id="SVGID_3_" gradientUnits="userSpaceOnUse" x1="35.3269" y1="141.0319" x2="56.6761" y2="141.0319">
			<stop  offset="0" style="stop-color:#3DDEED"/>
			<stop  offset="1" style="stop-color:#3DDEED;stop-opacity:0"/>
		</linearGradient>
		<path class="st2" d="M56.582,144.93c-0.05,0.39-0.14,0.88-0.24,1.42v0.02c-0.02,0.03-0.53,0.51-0.53,0.51l0.11-0.46
			c-0.05-1.54,0.05-3.12-0.36-4.6c-0.59-2.11-1.4-3.74-3.15-5.1c-1.71-1.32-3.68-2.48-5.89-2.56c-2.22-0.09-4.4,0.93-6.29,2
			c-1.57,0.89-2.85,2.28-3.53,3.96c-0.42,1.05-0.66,2.14-0.42,3.25c0.27,1.25,0.89,2.41,1.75,3.35c0.41,0.45,0.86,0.89,1.4,1.15
			c1.89,0.92,4.94,0.14,6.39-1.28c0.16-0.16,0.31-0.33,0.41-0.54c0.12-0.22,0.16-0.46,0.19-0.71c0.08-0.64,0.06-1.3,0.01-1.95
			c0.93,0.22,1.03,1.29,0.83,2.2c-0.24,1.1-1.21,1.9-2.21,2.42c-1.63,0.84-3.56,1.16-5.32,0.67c-3.26-0.91-5.1-5.09-4.16-8.27
			c0.4-1.38,1.69-3.24,3.31-4.53c3.74-2.99,8.44-3.73,12.68-1.17C55.162,136.88,57.142,140.79,56.582,144.93z"/>
	</g>
	<linearGradient id="SVGID_4_" gradientUnits="userSpaceOnUse" x1="0" y1="84.1749" x2="204.9887" y2="84.1749">
		<stop  offset="0" style="stop-color:#3DDEED"/>
		<stop  offset="1" style="stop-color:#3DDEED;stop-opacity:0"/>
	</linearGradient>
	<path class="st3" d="M204.662,57.617L204.662,57.617c-0.512,0.48-1.347,0.308-1.629-0.334c-2.575-5.858-5.035-11.654-6.44-17.943
		c-0.48-2.14-0.75-4.71-2.08-6.52c-1.05-1.44-2.8-2.01-4.27-2.88c-1.73-1.03-3.44-2.08-5.21-3.05c-5.01-2.77-10.11-5.39-15.19-8.03
		c-2.11-1.1-4.22-2.2-6.33-3.31c-1.29-0.68-3.2-2.05-4.75-1.51c-0.53,0.19-0.94,0.61-1.31,1.03c-2.08,2.36-3.39,5.05-6.32,6.47
		c-2.19,1.05-4.96,1.86-7.36,1.17c-1.38-0.39-2.65-1.11-3.91-1.81c-7-3.91-14.28-7.19-21.66-10.32c-5.76-2.44-11.43-3.22-17.67-2.88
		c-12.22,0.67-26.8,3.92-37.61,9.77c-11.68,6.32-22.51,19.88-30.91,29.92c-16.54,19.78-21.53,42.39-26.16,67.21
		c-1.42,7.56-1.48,15.52,1.07,22.86c2.12,6.12,4.31,12.16,8,17.55c1.35,1.96,2.84,3.86,4.69,5.38c2.81,2.3,6.2,2.98,9.71,3.51
		c3.62,0.54,7.21,1.11,10.88,1.04c6.74-0.12,13.26-2.23,18.29-6.82c1.8-1.65,3.48-3.17,4.67-5.36c3.84-7.08,2.9-16.98-2.1-23.22
		c-3.07-3.83-7.59-5.78-12.38-6.51c-4.76-0.72-9.33,1.13-13.53,3.26c-2.38,1.2-4.06,3.47-5.46,5.69c-1.66,2.6-2.22,5.78-2.44,8.82
		c-0.23,3.07-0.05,6,1.79,8.56c1.46,2.05,3.45,3.75,4.56,6.02c-0.47-0.34-0.78-0.59-0.78-0.59c-5.22-4.24-7.62-9.02-6.92-15.9
		c0.2-2.04,0.56-4.08,1.38-5.96c3.94-9.08,14.91-13.73,24.24-11.38c4.65,1.17,9.5,4.07,12.18,8.15c2.98,4.52,3.98,11.83,3.14,17.1
		c-3.01,18.73-25.18,24.6-41.2,20.12c-7.03-1.97-12.98-6.66-17.33-12.43c-9.88-13.11-9.37-31.66-6.51-47.01
		c1.73-9.33,3.59-18.64,5.98-27.82c4.8-18.41,13.25-35.76,26.58-49.56c10.56-10.93,24.94-19.84,39.23-25.02
		c6.86-2.48,14.01-4.09,21.27-4.79c13.64-1.31,29.61,1.74,40.35,10.76c2.07,1.74,3.95,3.71,6.16,5.27c1.69,1.2,3.63,2.16,5.7,2.44
		c3.8,0.5,4.9-4.37,5.65-7.35c0.13-0.52,0.24-1.06,0.5-1.53c0.33-0.62,0.88-1.1,1.5-1.43c2.45-1.29,5.49-0.16,7.77,1.42
		c2.09,1.45,4.12,3.13,6.45,4.19c2.31,1.06,4.5,2.06,6.64,3.46c4.12,2.7,7.99,5.96,12.72,7.57c2.94,1,5.89,1.56,8.19,3.78
		c2.16,2.09,4.5,4.69,4.53,7.87c0.02,1.76-0.71,3.49-0.49,5.24c0.331,2.732,4.117,6.02,3.549,8.932
		c-0.245,1.253-0.215,2.553,0.299,3.721c0.294,0.668,0.5,1.394,0.601,2.132C205.024,57.082,204.895,57.398,204.662,57.617z"/>
</g>
<g id="Layer_3">
	
		<radialGradient id="SVGID_5_" cx="55.0939" cy="81.4736" r="22.5775" fx="39.657" fy="87.2453" gradientTransform="matrix(-0.668 -0.7442 1.3331 -1.1965 -16.7194 219.9602)" gradientUnits="userSpaceOnUse">
		<stop  offset="0.2645" style="stop-color:#2ACA62"/>
		<stop  offset="1" style="stop-color:#2A8686"/>
	</radialGradient>
	<path class="st4" d="M27.197,78.391c0.08-0.121,0.16-0.241,0.241-0.36c1.484-2.186,2.8-4.684,5.09-6.145
		c2.658-1.697,5.789-1.952,8.301-3.969c3.171-2.546,5.898-5.356,8.618-8.376c3.095-3.436,8.996-11.516,14.091-11.612
		c2.291-0.043,4.155,1.802,5.48,3.672c0.545,0.768,1.061,1.592,1.224,2.52c0.528,3.01-4.806,6.71-6.607,8.639
		c-7.873,8.433-18.42,17.101-23.157,27.784c-2.028,4.572-6.469,3.306-10.731,4.532c-1.25,0.359-2.603,1.21-3.894,0.631
		c-0.967-0.434-2.062-0.806-2.91-1.457c-0.925-0.71-0.874-1.618-0.807-2.722C22.408,87.018,24.748,82.106,27.197,78.391z"/>
</g>
<g id="Layer_4">
	
		<radialGradient id="SVGID_6_" cx="80.6926" cy="73.818" r="36.6792" fx="53.9207" fy="73.472" gradientTransform="matrix(0.5482 0.8363 -0.3948 0.2588 65.5948 -12.7699)" gradientUnits="userSpaceOnUse">
		<stop  offset="0" style="stop-color:#2ACA62"/>
		<stop  offset="1" style="stop-color:#2A8686"/>
	</radialGradient>
	<path class="st5" d="M72.891,94.042c-0.327-0.401-0.703-0.781-1.108-1.155c-1.66-1.535-3.097-3.271-4.49-5.047
		c-1.516-1.933-3.503-3.861-4.415-6.176c-0.756-1.918-0.587-3.988-0.646-6.004c-0.054-1.861-0.408-3.696-0.747-5.523
		c-0.81-4.366-1.573-9.536-3.675-13.488c-0.033-0.063-0.198-0.383-0.349-0.839c0,0-0.167-0.507-0.241-1.022
		c-0.107-0.754,0.258-3.087,1.631-4.669c2.4-2.764,7.749-3.082,10.096-0.859c1.517,1.437,1.032,3.227,1.267,7.479
		c0.527,9.527,2.651,11.956,6.536,23.418c0.31,0.913,0.627,1.842,1.187,2.627c1.257,1.762,4.289,2.414,6.182,3.196
		c1.98,0.818,4.036,1.441,5.995,2.312c1.938,0.861,3.695,2.082,5.521,3.153c0.502,0.294,1.038,0.628,1.247,1.171
		c0.819,2.126-9.59-0.035-10.535,0.226c-0.436,0.12-0.826,0.363-1.207,0.606c-3.362,2.147-7.191,4.562-8.806,8.392
		c-0.17,0.403-0.326,0.836-0.656,1.124c-1.454,1.267-1.934-1.991-1.865-2.771c0.081-0.906,0.326-1.796,0.343-2.705
		C74.185,96.084,73.677,95.004,72.891,94.042z"/>
</g>
<g id="Layer_11">
	
		<radialGradient id="SVGID_7_" cx="134.5859" cy="65.3593" r="29.661" fx="114.3058" fy="72.9417" gradientTransform="matrix(-0.7321 -0.6812 0.4757 -0.5112 202.0172 190.4574)" gradientUnits="userSpaceOnUse">
		<stop  offset="0" style="stop-color:#2ACA62"/>
		<stop  offset="1" style="stop-color:#2A8686"/>
	</radialGradient>
	<path class="st6" d="M128.316,45.363c0.599-0.136,1.195-0.289,1.786-0.46c1.852-0.537,3.787-1.266,5.654-0.786
		c2.681,0.689,4.203,3.81,3.827,6.552c-0.173,1.265-0.716,2.541-1.752,3.287c-1.12,0.806-2.594,0.865-3.974,0.893
		c-2.426,0.049-4.853,0.099-7.279,0.148c-2.202,0.045-4.632,0.01-6.279-1.451c2.208,0.949,3.578,3.132,4.891,5.145
		c2.803,4.296,5.956,8.356,9.264,12.277c1.052,1.247,2.253,2.559,3.862,2.833c1.887,0.321,3.708-0.916,4.934-2.387
		c0.389-0.467,0.77-0.985,1.333-1.214c0.39-0.159,0.908-0.109,1.23,0.175c0.448,0.396,0.033,0.876-0.229,1.256
		c-0.231,0.335-0.474,0.662-0.726,0.981c-0.513,0.647-1.07,1.261-1.665,1.833c0.23,0.225,0.554,0.477,0.984,0.657
		c0.294,0.123,0.726,0.286,1.214,0.16c0.379-0.098,0.888-0.403,1.016-0.8c0.016-0.049,0.024-0.104,0.005-0.153
		c-0.019-0.049-0.062-0.085-0.11-0.106c-0.34-0.153-0.799-0.037-1.146,0.028c-0.173,0.032-0.398,0.108-0.574,0.076
		c-0.339-0.06-0.127-0.518,0.03-0.657c0.496-0.443,1.467-0.501,2.057-0.276c0.221,0.085,0.42,0.221,0.574,0.402
		c0.61,0.718,0.277,1.784,0.183,2.077c-0.01,0.032-0.019,0.056-0.024,0.073c-0.746,2.198-3.602,2.989-4.089,3.071
		c-2.304,0.386-4.687-0.18-6.795-1.185c-2.108-1.005-3.983-2.432-5.829-3.862c-5.682-4.404-11.264-8.957-17.28-12.893
		c-1.463-0.957-3.006-1.933-3.894-3.439c-0.874-1.482-0.993-3.304-0.746-5.007c0.096-0.663,0.247-1.328,0.558-1.922
		c0.36-0.686,0.921-1.249,1.54-1.715c2.587-1.947,6.023-2.212,9.25-2.481C122.868,46.262,125.629,45.974,128.316,45.363z"/>
</g>
<g id="Layer_5">
	<linearGradient id="SVGID_8_" gradientUnits="userSpaceOnUse" x1="152.7978" y1="51.4464" x2="205.0563" y2="51.4464">
		<stop  offset="0" style="stop-color:#3DDEED"/>
		<stop  offset="0.1646" style="stop-color:#46DFEB"/>
		<stop  offset="0.4382" style="stop-color:#60E1E5"/>
		<stop  offset="0.785" style="stop-color:#89E4DC"/>
		<stop  offset="1" style="stop-color:#A6E6D6"/>
	</linearGradient>
	<path class="st7" d="M177.545,49.826c7.63,1.133,14.95,3.674,22.593,4.758c2.544,0.361,5.576,0.953,4.793,4.261
		c-0.018,0.077-0.04,0.157-0.094,0.215c-0.474,0.51-3.465-0.328-4.103-0.438c-1.582-0.273-3.153-0.612-4.716-0.979
		c-3.064-0.719-6.101-1.552-9.173-2.239c-5.979-1.338-12.018-2.489-18.136-2.935c-2.162-0.157-4.33-0.227-6.498-0.191
		c-1.174,0.019-2.36-0.07-3.477-0.456c-2.833-0.979-5.934-3.822-5.936-6.996c-0.001-1.501,1.251-1.433,1.997-0.406
		c0.327,0.451,0.54,0.974,0.841,1.443c0.697,1.089,1.836,1.835,3.045,2.29c4.315,1.624,9.223,0.964,13.725,1.164
		C174.131,49.393,175.843,49.573,177.545,49.826z"/>
	<g id="Layer_6">
		<path class="st8" d="M204.621,57.943c-5.833-1.182-10.47-2.311-13.602-3.115c0,0-12.633-3.167-18.984-3.537
			c-0.41-0.024-0.709-0.031-0.951-0.042c-2.356-0.101-4.713-0.138-7.07-0.221c-2.535-0.09-3.797-0.241-4.858-0.632
			c-2.559-0.942-4.144-2.887-5.012-4.213"/>
	</g>
</g>
<g id="Layer_8">
	<radialGradient id="SVGID_9_" cx="178.9476" cy="35.4094" r="14.5875" fx="177.9874" fy="36.1247" gradientUnits="userSpaceOnUse">
		<stop  offset="0.1765" style="stop-color:#A6E6D6"/>
		<stop  offset="0.379" style="stop-color:#2A4086"/>
		<stop  offset="0.5613" style="stop-color:#39AC4A"/>
		<stop  offset="0.6822" style="stop-color:#2A8686"/>
		<stop  offset="0.8756" style="stop-color:#2A4086"/>
	</radialGradient>
	<ellipse class="st9" cx="178.948" cy="35.409" rx="12.147" ry="12.059"/>
	<g id="Layer_9">
		<g class="st10">
			<g>
				<path class="st11" d="M177.237,45.705c3.046,0.325,4.945-0.604,5.787-1.133"/>
				<path class="st12" d="M183.823,43.916c0.73-0.772,1.664-2.171,3.198-4.467c0.245-0.366,0.454-0.686,0.632-0.968"/>
				<path class="st11" d="M188.182,37.595c0.353-0.647,0.471-1.048,0.523-1.514c0.204-1.806-0.715-3.318-1.283-4.09"/>
			</g>
		</g>
		<g class="st10">
			<g>
				<path class="st11" d="M179.884,42.975c-1.94,0.486-4.138,0.53-5.858-0.402"/>
				<path class="st13" d="M173.53,42.267c-0.121-0.084-0.238-0.174-0.353-0.27c-0.859-0.721-1.416-1.676-1.914-2.664"/>
				<path class="st11" d="M171.004,38.807c-0.156-0.319-0.309-0.638-0.47-0.951c-0.34-0.664-0.93-1.338-1.142-2.036
					c-0.249-0.819,0.076-1.766,0.307-2.546"/>
			</g>
		</g>
		<g class="st10">
			<g>
				<path class="st11" d="M171.303,33.996c0.599-1.836,1.399-3.882,2.917-5.161"/>
				<path class="st14" d="M174.285,28.781c0.037-0.03,0.074-0.06,0.111-0.089c0.105-0.081,0.213-0.159,0.323-0.232"/>
				<path class="st11" d="M174.789,28.414c0.534-0.347,1.118-0.617,1.699-0.881c1.395-0.634,2.503-0.871,3.957-0.355"/>
			</g>
		</g>
		<g class="st10">
			<g>
				<path class="st11" d="M180.285,28.703c0.272,0.069,3.313,0.887,4.691,3.49"/>
				<path class="st15" d="M185.278,32.865c0.021,0.055,0.04,0.112,0.06,0.168c0.55,1.637,0.228,3.152,0.16,3.449
					c-0.055,0.24-0.138,0.609-0.301,1.033"/>
				<path class="st11" d="M184.884,38.188c-0.203,0.367-0.471,0.746-0.83,1.1c-1.621,1.601-3.84,1.474-4.25,1.444"/>
			</g>
		</g>
	</g>
	<g id="Layer_10">
		<circle class="st16" cx="178.095" cy="34.62" r="3.248"/>
	</g>
	<g>
	</g>
	<g>
	</g>
	<g>
	</g>
	<g>
	</g>
	<g>
	</g>
</g>
</svg>
