<?xml version="1.0" encoding="utf-8"?>
<!-- Generator: Adobe Illustrator 24.0.3, SVG Export Plug-In . SVG Version: 6.00 Build 0)  -->
<svg version="1.1" xmlns="http://www.w3.org/2000/svg" xmlns:xlink="http://www.w3.org/1999/xlink" x="0px" y="0px"
	 viewBox="0 0 206.01 168.35" style="enable-background:new 0 0 206.01 168.35;" xml:space="preserve">
<style type="text/css">
	.st0{fill:none;}
	.st1{fill:#C1272D;}
	.st2{fill:#F15A24;}
	.st3{fill:#FFC516;}
	.st4{fill:#06060C;}
	.st5{fill:url(#SVGID_1_);}
	.st6{fill:url(#SVGID_2_);}
	.st7{opacity:0.47;fill:url(#SVGID_3_);}
	.st8{opacity:0.47;fill:url(#SVGID_4_);}
	.st9{fill:url(#SVGID_5_);}
	.st10{fill:url(#SVGID_6_);}
	.st11{fill:url(#SVGID_7_);}
	.st12{opacity:0.74;fill:url(#SVGID_8_);}
	.st13{fill:none;stroke:#6D675D;stroke-width:0.5;stroke-linecap:round;stroke-miterlimit:10;}
	.st14{fill:url(#SVGID_9_);}
	.st15{opacity:0.79;}
	.st16{fill:none;stroke:#2A8686;stroke-width:0.75;stroke-linecap:round;stroke-miterlimit:10;}
	
		.st17{fill:none;stroke:#2A8686;stroke-width:0.75;stroke-linecap:round;stroke-miterlimit:10;stroke-dasharray:2.0758,2.491,1.0379,2.0758;}
	
		.st18{fill:none;stroke:#2A8686;stroke-width:0.75;stroke-linecap:round;stroke-miterlimit:10;stroke-dasharray:1.1694,1.4033,0.5847,1.1694;}
	
		.st19{fill:none;stroke:#2A8686;stroke-width:0.75;stroke-linecap:round;stroke-miterlimit:10;stroke-dasharray:0.169,0.2027,0.0845,0.169;}
	
		.st20{fill:none;stroke:#2A8686;stroke-width:0.75;stroke-linecap:round;stroke-miterlimit:10;stroke-dasharray:1.4821,1.7785,0.741,1.4821;}
	.st21{fill:#1A1A1A;stroke:#A6E6D6;stroke-width:0.5;stroke-miterlimit:10;}
	.st22{fill:url(#SVGID_10_);}
	.st23{fill:url(#SVGID_11_);}
	.st24{opacity:0.9;fill:url(#New_Pattern_2);}
	.st25{opacity:0.86;fill:url(#SVGID_12_);}
	.st26{opacity:0.86;fill:url(#SVGID_13_);}
	.st27{fill:url(#SVGID_14_);}
	.st28{fill:url(#SVGID_15_);}
	.st29{fill:url(#SVGID_16_);}
	.st30{opacity:0.74;fill:url(#SVGID_17_);}
	.st31{fill:url(#SVGID_18_);}
	.st32{fill:#1A1A1A;stroke:#FCEE21;stroke-width:0.5;stroke-miterlimit:10;}
	.st33{fill:url(#SVGID_19_);}
	.st34{fill:url(#SVGID_20_);}
	.st35{opacity:0.47;fill:url(#SVGID_21_);}
	.st36{opacity:0.47;fill:url(#SVGID_22_);}
	.st37{fill:url(#SVGID_23_);}
	.st38{fill:url(#SVGID_24_);}
	.st39{fill:url(#SVGID_25_);}
	.st40{opacity:0.74;fill:url(#SVGID_26_);}
	.st41{fill:url(#SVGID_27_);}
</style>
<pattern  x="-32.947" y="-206.137" width="70.185" height="45.513" patternUnits="userSpaceOnUse" id="New_Pattern_2" viewBox="3.726 -52.267 70.185 45.513" style="overflow:visible;">
	<g>
		<rect x="3.726" y="-52.267" class="st0" width="70.185" height="45.513"/>
		<g>
			<path class="st1" d="M36.027-51.96c2.046,0,2.05-3.18,0-3.18C33.981-55.141,33.977-51.96,36.027-51.96L36.027-51.96z"/>
			<path class="st2" d="M31.065-50.767c0.339,0-0.107-2.861-0.903-2.861C29.823-53.628,30.269-50.767,31.065-50.767L31.065-50.767z"
				/>
		</g>
		<g>
			<path class="st3" d="M64.721-31.548c5.62,0,5.629-8.734,0-8.734C59.102-40.282,59.092-31.548,64.721-31.548L64.721-31.548z"/>
			<path class="st3" d="M54.588-39.132c5.424,0,5.433-8.43,0-8.43C49.164-47.561,49.155-39.132,54.588-39.132L54.588-39.132z"/>
			<g>
				<path class="st4" d="M68.775-50.778"/>
				<path class="st4" d="M68.775-48.132c3.405,0,3.411-5.292,0-5.292C65.37-53.424,65.364-48.132,68.775-48.132L68.775-48.132z"/>
			</g>
			<path class="st1" d="M71.12-29.204c2.046,0,2.05-3.18,0-3.18C69.073-32.384,69.07-29.204,71.12-29.204L71.12-29.204z"/>
			<path class="st1" d="M74.503-35.54c2.165,0,2.168-3.364,0-3.364C72.338-38.905,72.335-35.54,74.503-35.54L74.503-35.54z"/>
			<path class="st1" d="M62.661-41.159c2.337,0,2.341-3.632,0-3.632C60.324-44.791,60.32-41.159,62.661-41.159L62.661-41.159z"/>
			<path class="st1" d="M53.864-48.678c3.11,0,3.116-4.834,0-4.834C50.753-53.512,50.748-48.678,53.864-48.678L53.864-48.678z"/>
			<path class="st2" d="M68.115-40.252c0.68,0,1.509-0.444,1.847-1.043c0.306-0.543,0.072-1.018-0.575-1.018
				c-0.68,0-1.509,0.444-1.847,1.043C67.234-40.728,67.468-40.252,68.115-40.252L68.115-40.252z"/>
			<path class="st2" d="M62.723-46.651c0.635,0,1.581-0.208,1.746-0.95c0.151-0.683-0.581-1.17-1.193-1.17
				c-0.635,0-1.581,0.208-1.746,0.95C61.379-47.138,62.111-46.651,62.723-46.651L62.723-46.651z"/>
			<path class="st2" d="M72.853-43.196c1.06,0,1.474-2.941,0.593-2.941C72.387-46.137,71.973-43.196,72.853-43.196L72.853-43.196z"
				/>
			<path class="st2" d="M66.157-28.01c0.339,0-0.107-2.861-0.903-2.861C64.916-30.871,65.361-28.01,66.157-28.01L66.157-28.01z"/>
			<path class="st2" d="M57.652-37.102c0.51,0,1.592-0.221,1.732-0.833c0.147-0.646-0.756-0.761-1.189-0.761
				c-0.51,0-1.592,0.221-1.732,0.833C56.316-37.217,57.219-37.102,57.652-37.102L57.652-37.102z"/>
			<path class="st3" d="M68.751-46.883c4.985,0,4.994-7.748,0-7.748C63.766-54.63,63.758-46.883,68.751-46.883L68.751-46.883z"/>
			<path class="st1" d="M59.954-49.529c2.885,0,2.89-4.484,0-4.484C57.069-54.014,57.064-49.529,59.954-49.529L59.954-49.529z"/>
			<path class="st1" d="M75.857-30.319c2.788,0,2.792-4.332,0-4.332C73.069-34.652,73.064-30.319,75.857-30.319L75.857-30.319z"/>
			<path class="st2" d="M74.867-48.665c1.168,0,0.284-2.829-0.727-2.829C72.972-51.495,73.856-48.665,74.867-48.665L74.867-48.665z"
				/>
			<path class="st2" d="M70.872-33.357c0.979,0,0.862-2.995-0.181-2.995C69.712-36.351,69.829-33.357,70.872-33.357L70.872-33.357z"
				/>
			<path class="st2" d="M68-43.682c0.726,0-0.393-2.645-1.204-2.645C66.069-46.327,67.188-43.682,68-43.682L68-43.682z"/>
			<path class="st2" d="M69.636-44.187c1.229,0,1.438-2.989,0.26-2.989C68.667-47.176,68.458-44.187,69.636-44.187L69.636-44.187z"
				/>
			<path class="st2" d="M70.672-38.523c1.393,0,2.417-2.813,0.895-2.813C70.174-41.336,69.15-38.523,70.672-38.523L70.672-38.523z"
				/>
			<path class="st2" d="M58.413-45.767c1.077,0,2.532-2.535,1.023-2.535C58.358-48.302,56.904-45.767,58.413-45.767L58.413-45.767z"
				/>
		</g>
		<g>
			<path class="st3" d="M28.953-38.503c4.768,0,4.776-7.411,0-7.411C24.185-45.914,24.177-38.503,28.953-38.503L28.953-38.503z"/>
			<path class="st1" d="M49.896-28.971c3.995,0,4.001-6.208,0-6.208C45.901-35.179,45.895-28.971,49.896-28.971L49.896-28.971z"/>
			<path class="st3" d="M29.629-8.792c5.62,0,5.629-8.734,0-8.734C24.009-17.525,24-8.792,29.629-8.792L29.629-8.792z"/>
			<path class="st3" d="M19.495-16.375c5.424,0,5.433-8.43,0-8.43C14.071-24.805,14.062-16.375,19.495-16.375L19.495-16.375z"/>
			<path class="st3" d="M47.194-45.513c5.311,0,5.32-8.254,0-8.254C41.883-53.767,41.874-45.513,47.194-45.513L47.194-45.513z"/>
			<path class="st3" d="M46.518-10.802c5.641,0,5.65-8.767,0-8.767C40.877-19.569,40.868-10.802,46.518-10.802L46.518-10.802z"/>
			<g>
				<path class="st4" d="M33.682-28.021"/>
				<path class="st4" d="M33.682-25.376c3.405,0,3.411-5.292,0-5.292C30.277-30.667,30.272-25.376,33.682-25.376L33.682-25.376z"/>
			</g>
			<path class="st1" d="M44.491-37.343c2.784,0,2.788-4.326,0-4.326C41.708-41.669,41.703-37.343,44.491-37.343L44.491-37.343z"/>
			<path class="st1" d="M44.824-23.309c2.988,0,2.993-4.644,0-4.644C41.836-27.954,41.831-23.309,44.824-23.309L44.824-23.309z"/>
			<path class="st1" d="M51.591-18.418c2.752,0,2.757-4.277,0-4.277C48.839-22.695,48.834-18.418,51.591-18.418L51.591-18.418z"/>
			<path class="st1" d="M36.027-6.447c2.046,0,2.05-3.18,0-3.18C33.981-9.628,33.977-6.447,36.027-6.447L36.027-6.447z"/>
			<path class="st1" d="M39.411-12.784c2.165,0,2.168-3.364,0-3.364C37.246-16.148,37.242-12.784,39.411-12.784L39.411-12.784z"/>
			<path class="st1" d="M27.568-18.402c2.337,0,2.341-3.632,0-3.632C25.231-22.034,25.227-18.402,27.568-18.402L27.568-18.402z"/>
			<path class="st1" d="M18.771-25.921c3.11,0,3.116-4.834,0-4.834C15.661-30.755,15.656-25.921,18.771-25.921L18.771-25.921z"/>
			<path class="st1" d="M52.268-42.22c2.165,0,2.168-3.364,0-3.364C50.103-45.585,50.1-42.22,52.268-42.22L52.268-42.22z"/>
			<path class="st1" d="M24.862-34.314c3.196,0,3.201-4.967,0-4.967C21.666-39.281,21.66-34.314,24.862-34.314L24.862-34.314z"/>
			<path class="st1" d="M37.381-32.737c3.048,0,3.053-4.737,0-4.737C34.332-37.474,34.327-32.737,37.381-32.737L37.381-32.737z"/>
			<path class="st1" d="M35.689-48.697c2.103,0,2.106-3.268,0-3.268C33.586-51.965,33.583-48.697,35.689-48.697L35.689-48.697z"/>
			<path class="st2" d="M49.633-37.065c0.699,0,1.517-0.404,1.846-1.045c0.285-0.554,0.036-1.127-0.637-1.127
				c-0.699,0-1.517,0.404-1.846,1.045C48.711-37.637,48.96-37.065,49.633-37.065L49.633-37.065z"/>
			<path class="st2" d="M44.359-19.679c0.654,0,1.223-0.58,1.558-1.095c0.131-0.201,0.689-1.336,0.05-1.336
				c-0.654,0-1.223,0.58-1.558,1.095C44.277-20.814,43.719-19.679,44.359-19.679L44.359-19.679z"/>
			<path class="st2" d="M33.023-17.495c0.68,0,1.509-0.444,1.847-1.043c0.306-0.543,0.072-1.018-0.575-1.018
				c-0.68,0-1.509,0.444-1.847,1.043C32.142-17.971,32.376-17.495,33.023-17.495L33.023-17.495z"/>
			<path class="st2" d="M21.474-31.275c0.267,0,1.5,0.013,1.504-0.434c0.004-0.436-1.288-0.459-1.496-0.459
				c-0.267,0-1.5-0.013-1.504,0.434C19.975-31.299,21.266-31.275,21.474-31.275L21.474-31.275z"/>
			<path class="st2" d="M27.63-23.895c0.635,0,1.581-0.208,1.746-0.95c0.151-0.683-0.581-1.17-1.193-1.17
				c-0.635,0-1.581,0.208-1.746,0.95C26.286-24.382,27.018-23.895,27.63-23.895L27.63-23.895z"/>
			<path class="st2" d="M37.761-20.439c1.06,0,1.474-2.941,0.593-2.941C37.294-23.38,36.88-20.439,37.761-20.439L37.761-20.439z"/>
			<g>
				<path class="st4" d="M38.734-39.166"/>
				<path class="st4" d="M38.04-38.658c0.522,0,1.65,0.017,2.01-0.45c0.343-0.444-0.179-0.565-0.622-0.565
					c-0.522,0-1.65-0.017-2.01,0.45C37.076-38.779,37.597-38.658,38.04-38.658L38.04-38.658z"/>
			</g>
			<path class="st2" d="M52.007-26.221c0.65,0,0.145-2.882-0.832-2.882C50.525-29.103,51.031-26.221,52.007-26.221L52.007-26.221z"
				/>
			<path class="st2" d="M42.775-29.565c0.311,0,1.732-0.05,1.809-0.479c0.085-0.476-0.783-0.451-1.093-0.451
				c-0.311,0-1.732,0.05-1.809,0.479C41.596-29.54,42.464-29.565,42.775-29.565L42.775-29.565z"/>
			<path class="st2" d="M28.618-32.075c0.969,0,2.976-2.001,1.284-2.001C28.933-34.076,26.926-32.075,28.618-32.075L28.618-32.075z"
				/>
			<path class="st2" d="M32.989-45.184c1.076,0,1.93-2.851,0.662-2.851C32.575-48.035,31.721-45.184,32.989-45.184L32.989-45.184z"
				/>
			<path class="st2" d="M46.662-43.188c0.676,0,0.356-0.717,0.121-1.038c-0.364-0.497-1.115-1.069-1.768-1.069
				c-0.676,0-0.356,0.717-0.121,1.038C45.258-43.759,46.009-43.188,46.662-43.188L46.662-43.188z"/>
			<path class="st2" d="M31.065-5.254c0.339,0-0.107-2.861-0.903-2.861C29.823-8.115,30.269-5.254,31.065-5.254L31.065-5.254z"/>
			<path class="st2" d="M53.447-15.518c1.974,0,1.268-1.956-0.329-1.956C51.144-17.474,51.85-15.518,53.447-15.518L53.447-15.518z"
				/>
			<path class="st2" d="M22.56-14.346c0.51,0,1.592-0.221,1.732-0.833c0.147-0.646-0.756-0.761-1.189-0.761
				c-0.51,0-1.592,0.221-1.732,0.833C21.224-14.461,22.127-14.346,22.56-14.346L22.56-14.346z"/>
			<path class="st2" d="M41.44-18.713c0.388,0,0.967,0.011,0.635-0.443c-0.301-0.412-1.535-0.537-1.986-0.537
				c-0.388,0-0.967-0.011-0.635,0.443C39.754-18.838,40.989-18.713,41.44-18.713L41.44-18.713z"/>
			<path class="st3" d="M33.659-24.126c4.985,0,4.994-7.748,0-7.748C28.673-31.874,28.665-24.126,33.659-24.126L33.659-24.126z"/>
			<path class="st1" d="M38.734-37.813c4.354,0,4.361-6.766,0-6.766C34.38-44.579,34.373-37.813,38.734-37.813L38.734-37.813z"/>
			<path class="st1" d="M57.681-33.87c3.767,0,3.774-5.855,0-5.855C53.914-39.725,53.908-33.87,57.681-33.87L57.681-33.87z"/>
			<path class="st1" d="M24.862-26.773c2.885,0,2.89-4.484,0-4.484C21.976-31.257,21.971-26.773,24.862-26.773L24.862-26.773z"/>
			<path class="st1" d="M43.132-31.459c2.951,0,2.956-4.586,0-4.586C40.182-36.045,40.177-31.459,43.132-31.459L43.132-31.459z"/>
			<path class="st1" d="M56.328-22.708c2.891,0,2.896-4.493,0-4.493C53.437-27.202,53.432-22.708,56.328-22.708L56.328-22.708z"/>
			<path class="st1" d="M39.411-45.234c2.641,0,2.645-4.104,0-4.104C36.77-49.338,36.765-45.234,39.411-45.234L39.411-45.234z"/>
			<path class="st1" d="M40.764-7.563c2.788,0,2.792-4.332,0-4.332C37.976-11.895,37.972-7.563,40.764-7.563L40.764-7.563z"/>
			<path class="st1" d="M57.343-28.276c2.693,0,2.698-4.186,0-4.186C54.65-32.461,54.645-28.276,57.343-28.276L57.343-28.276z"/>
			<path class="st1" d="M41.102-19.982c2.917,0,2.922-4.533,0-4.533C38.185-24.515,38.181-19.982,41.102-19.982L41.102-19.982z"/>
			<path class="st2" d="M30.633-35.371c1.443,0,0.575-2.853-0.716-2.853C28.474-38.224,29.342-35.371,30.633-35.371L30.633-35.371z"
				/>
			<path class="st2" d="M33.081-31.933c1.44,0,1.863-2.961,0.479-2.961C32.12-34.894,31.697-31.933,33.081-31.933L33.081-31.933z"/>
			<path class="st2" d="M32.069-37.021c0.59,0,1.19-0.67,1.526-1.091c0.099-0.125,0.825-1.168,0.299-1.168
				c-0.59,0-1.19,0.67-1.526,1.091C32.269-38.064,31.544-37.021,32.069-37.021L32.069-37.021z"/>
			<path class="st2" d="M39.774-25.909c1.168,0,0.284-2.829-0.727-2.829C37.88-28.738,38.763-25.909,39.774-25.909L39.774-25.909z"
				/>
			<path class="st2" d="M49.427-23.123c1.144,0,1.35-2.988,0.267-2.988C48.551-26.111,48.345-23.123,49.427-23.123L49.427-23.123z"
				/>
			<path class="st2" d="M52.958-38.884c0.91,0,2.197-2.593,1.326-2.593C53.374-41.477,52.087-38.884,52.958-38.884L52.958-38.884z"
				/>
			<path class="st2" d="M35.779-10.6c0.979,0,0.862-2.995-0.181-2.995C34.619-13.595,34.736-10.6,35.779-10.6L35.779-10.6z"/>
			<path class="st2" d="M32.908-20.926c0.726,0-0.393-2.645-1.204-2.645C30.977-23.571,32.096-20.926,32.908-20.926L32.908-20.926z"
				/>
			<path class="st2" d="M45.457-7.92c1.11,0,0.659-2.942-0.589-2.942C43.758-10.862,44.209-7.92,45.457-7.92L45.457-7.92z"/>
			<path class="st2" d="M53.284-12.346c0.257,0,1.5-0.001,1.499-0.433c-0.001-0.424-1.304-0.424-1.501-0.424
				c-0.257,0-1.5,0.001-1.499,0.433C51.784-12.346,53.087-12.346,53.284-12.346L53.284-12.346z"/>
			<path class="st2" d="M55.771-18.396c1.484,0,1.878-2.968,0.437-2.968C54.724-21.364,54.33-18.396,55.771-18.396L55.771-18.396z"
				/>
			<path class="st2" d="M55.867-42.035c0.667,0,1.53-0.255,1.966-0.796c0.343-0.426,0.285-0.908-0.368-0.908
				c-0.667,0-1.53,0.255-1.966,0.796C55.156-42.518,55.214-42.035,55.867-42.035L55.867-42.035z"/>
			<path class="st2" d="M49.745-8.859c0.719,0,1.017-0.758,0.787-1.346c-0.287-0.734-1.103-1.071-1.831-1.071
				c-0.719,0-1.017,0.758-0.787,1.346C48.2-9.197,49.017-8.859,49.745-8.859L49.745-8.859z"/>
			<path class="st2" d="M34.544-21.43c1.229,0,1.438-2.989,0.26-2.989C33.575-24.419,33.366-21.43,34.544-21.43L34.544-21.43z"/>
			<path class="st2" d="M61.065-32.261c0.481,0,1.313-0.308,1.12-0.921c-0.202-0.643-1.282-0.707-1.797-0.707
				c-0.481,0-1.313,0.308-1.12,0.921C59.47-32.325,60.55-32.261,61.065-32.261L61.065-32.261z"/>
			<path class="st2" d="M53.774-32.398c0.659,0,1.39-0.543,1.787-1.032c0.239-0.294,0.617-0.998-0.063-0.998
				c-0.659,0-1.39,0.543-1.787,1.032C53.472-33.103,53.094-32.398,53.774-32.398L53.774-32.398z"/>
			<path class="st2" d="M35.58-15.767c1.393,0,2.417-2.813,0.895-2.813C35.081-18.579,34.058-15.767,35.58-15.767L35.58-15.767z"/>
			<path class="st2" d="M23.32-23.011c1.077,0,2.532-2.535,1.023-2.535C23.266-25.546,21.811-23.011,23.32-23.011L23.32-23.011z"/>
			<path class="st2" d="M48.864-39.865c1.156,0,2.308-2.66,0.717-2.66C48.425-42.526,47.273-39.865,48.864-39.865L48.864-39.865z"/>
		</g>
		<g>
			<path class="st1" d="M14.804-51.727c3.995,0,4.001-6.208,0-6.208C10.809-57.935,10.802-51.727,14.804-51.727L14.804-51.727z"/>
			<path class="st3" d="M11.426-33.558c5.641,0,5.65-8.767,0-8.767C5.785-42.325,5.775-33.558,11.426-33.558L11.426-33.558z"/>
			<path class="st1" d="M9.732-46.066c2.988,0,2.993-4.644,0-4.644C6.743-50.71,6.738-46.066,9.732-46.066L9.732-46.066z"/>
			<path class="st1" d="M16.499-41.174c2.752,0,2.757-4.277,0-4.277C13.746-45.452,13.742-41.174,16.499-41.174L16.499-41.174z"/>
			<path class="st1" d="M4.318-35.54c2.165,0,2.168-3.364,0-3.364C2.153-38.905,2.15-35.54,4.318-35.54L4.318-35.54z"/>
			<path class="st2" d="M9.266-42.435c0.654,0,1.223-0.58,1.558-1.095c0.131-0.201,0.689-1.336,0.05-1.336
				c-0.654,0-1.223,0.58-1.558,1.095C9.185-43.571,8.627-42.435,9.266-42.435L9.266-42.435z"/>
			<path class="st2" d="M2.668-43.196c1.06,0,1.474-2.941,0.593-2.941C2.202-46.137,1.788-43.196,2.668-43.196L2.668-43.196z"/>
			<path class="st2" d="M16.915-48.977c0.65,0,0.145-2.882-0.832-2.882C15.433-51.859,15.938-48.977,16.915-48.977L16.915-48.977z"
				/>
			<path class="st2" d="M18.355-38.275c1.974,0,1.268-1.956-0.329-1.956C16.052-40.231,16.758-38.275,18.355-38.275L18.355-38.275z"
				/>
			<path class="st2" d="M6.347-41.469c0.388,0,0.967,0.011,0.635-0.443c-0.301-0.412-1.535-0.537-1.986-0.537
				c-0.388,0-0.967-0.011-0.635,0.443C4.662-41.595,5.896-41.469,6.347-41.469L6.347-41.469z"/>
			<path class="st1" d="M21.236-45.465c2.891,0,2.896-4.493,0-4.493C18.344-49.958,18.34-45.465,21.236-45.465L21.236-45.465z"/>
			<path class="st1" d="M5.672-30.319c2.788,0,2.792-4.332,0-4.332C2.884-34.652,2.879-30.319,5.672-30.319L5.672-30.319z"/>
			<path class="st1" d="M22.251-51.032c2.693,0,2.698-4.186,0-4.186C19.557-55.218,19.553-51.032,22.251-51.032L22.251-51.032z"/>
			<path class="st1" d="M6.01-42.738c2.917,0,2.922-4.533,0-4.533C3.093-47.271,3.088-42.738,6.01-42.738L6.01-42.738z"/>
			<path class="st2" d="M4.682-48.665c1.168,0,0.284-2.829-0.727-2.829C2.787-51.495,3.671-48.665,4.682-48.665L4.682-48.665z"/>
			<path class="st2" d="M14.335-45.879c1.144,0,1.35-2.988,0.267-2.988C13.458-48.867,13.252-45.879,14.335-45.879L14.335-45.879z"
				/>
			<path class="st2" d="M10.364-30.677c1.11,0,0.659-2.942-0.589-2.942C8.665-33.618,9.117-30.677,10.364-30.677L10.364-30.677z"/>
			<path class="st2" d="M18.192-35.102c0.257,0,1.5-0.001,1.499-0.433c-0.001-0.424-1.304-0.424-1.501-0.424
				c-0.257,0-1.5,0.001-1.499,0.433C16.692-35.103,17.995-35.102,18.192-35.102L18.192-35.102z"/>
			<path class="st2" d="M20.679-41.152c1.484,0,1.878-2.968,0.437-2.968C19.632-44.12,19.238-41.152,20.679-41.152L20.679-41.152z"
				/>
			<path class="st2" d="M14.652-31.616c0.719,0,1.017-0.758,0.787-1.346c-0.287-0.734-1.103-1.071-1.831-1.071
				c-0.719,0-1.017,0.758-0.787,1.346C13.108-31.953,13.924-31.616,14.652-31.616L14.652-31.616z"/>
		</g>
		<g>
			<path class="st3" d="M64.046-15.747c4.768,0,4.776-7.411,0-7.411C59.277-23.157,59.269-15.747,64.046-15.747L64.046-15.747z"/>
			<g>
				<path class="st4" d="M68.775-2.619c3.405,0,3.411-5.292,0-5.292C65.37-7.911,65.364-2.619,68.775-2.619L68.775-2.619z"/>
			</g>
			<path class="st1" d="M53.864-3.165c3.11,0,3.116-4.834,0-4.834C50.753-7.999,50.748-3.165,53.864-3.165L53.864-3.165z"/>
			<path class="st1" d="M59.954-11.557c3.196,0,3.201-4.967,0-4.967C56.758-16.524,56.753-11.557,59.954-11.557L59.954-11.557z"/>
			<path class="st1" d="M72.473-9.98c3.048,0,3.053-4.737,0-4.737C69.425-14.717,69.42-9.98,72.473-9.98L72.473-9.98z"/>
			<path class="st1" d="M70.781-25.941c2.103,0,2.106-3.268,0-3.268C68.679-29.209,68.675-25.941,70.781-25.941L70.781-25.941z"/>
			<path class="st2" d="M56.567-8.519c0.267,0,1.5,0.013,1.504-0.434c0.004-0.436-1.288-0.459-1.496-0.459
				c-0.267,0-1.5-0.013-1.504,0.434C55.067-8.542,56.359-8.519,56.567-8.519L56.567-8.519z"/>
			<g>
				<path class="st4" d="M73.826-16.409"/>
				<path class="st4" d="M73.132-15.902c0.522,0,1.65,0.017,2.01-0.45c0.343-0.444-0.179-0.565-0.622-0.565
					c-0.522,0-1.65-0.017-2.01,0.45C72.168-16.023,72.69-15.902,73.132-15.902L73.132-15.902z"/>
			</g>
			<path class="st2" d="M63.711-9.318c0.969,0,2.976-2.001,1.284-2.001C64.025-11.32,62.018-9.318,63.711-9.318L63.711-9.318z"/>
			<path class="st2" d="M68.082-22.427c1.076,0,1.93-2.851,0.662-2.851C67.667-25.278,66.814-22.427,68.082-22.427L68.082-22.427z"
				/>
			<path class="st3" d="M68.751-1.37c4.985,0,4.994-7.748,0-7.748C63.766-9.117,63.758-1.37,68.751-1.37L68.751-1.37z"/>
			<path class="st1" d="M73.826-15.056c4.354,0,4.361-6.766,0-6.766C69.473-21.822,69.465-15.056,73.826-15.056L73.826-15.056z"/>
			<path class="st1" d="M59.954-4.016c2.885,0,2.89-4.484,0-4.484C57.069-8.501,57.064-4.016,59.954-4.016L59.954-4.016z"/>
			<path class="st1" d="M74.503-22.477c2.641,0,2.645-4.104,0-4.104C71.862-26.581,71.858-22.477,74.503-22.477L74.503-22.477z"/>
			<path class="st2" d="M65.726-12.614c1.443,0,0.575-2.853-0.716-2.853C63.567-15.467,64.434-12.614,65.726-12.614L65.726-12.614z"
				/>
			<path class="st2" d="M68.173-9.176c1.44,0,1.863-2.961,0.479-2.961C67.212-12.138,66.789-9.176,68.173-9.176L68.173-9.176z"/>
			<path class="st2" d="M67.162-14.265c0.59,0,1.19-0.67,1.526-1.091c0.099-0.125,0.825-1.168,0.299-1.168
				c-0.59,0-1.19,0.67-1.526,1.091C67.362-15.308,66.636-14.265,67.162-14.265L67.162-14.265z"/>
		</g>
		<g>
			<path class="st3" d="M47.194,0c5.311,0,5.32-8.254,0-8.254C41.883-8.254,41.874,0,47.194,0L47.194,0z"/>
		</g>
		<g>
			<path class="st1" d="M14.804-6.214c3.995,0,4.001-6.208,0-6.208C10.809-12.422,10.802-6.214,14.804-6.214L14.804-6.214z"/>
			<path class="st3" d="M12.101-22.757c5.311,0,5.32-8.254,0-8.254C6.79-31.01,6.782-22.757,12.101-22.757L12.101-22.757z"/>
			<path class="st1" d="M9.399-14.587c2.784,0,2.788-4.326,0-4.326C6.615-18.913,6.611-14.587,9.399-14.587L9.399-14.587z"/>
			<path class="st1" d="M17.175-19.464c2.165,0,2.168-3.364,0-3.364C15.011-22.828,15.007-19.464,17.175-19.464L17.175-19.464z"/>
			<path class="st1" d="M2.288-9.98c3.048,0,3.053-4.737,0-4.737C-0.76-14.717-0.765-9.98,2.288-9.98L2.288-9.98z"/>
			<path class="st2" d="M14.541-14.308c0.699,0,1.517-0.404,1.846-1.045c0.285-0.554,0.036-1.127-0.637-1.127
				c-0.699,0-1.517,0.404-1.846,1.045C13.619-14.881,13.867-14.308,14.541-14.308L14.541-14.308z"/>
			<g>
				<path class="st4" d="M2.947-15.902c0.522,0,1.65,0.017,2.01-0.45c0.343-0.444-0.179-0.565-0.622-0.565
					c-0.522,0-1.65-0.017-2.01,0.45C1.983-16.023,2.505-15.902,2.947-15.902L2.947-15.902z"/>
			</g>
			<path class="st2" d="M7.682-6.809c0.311,0,1.732-0.05,1.809-0.479c0.085-0.476-0.783-0.451-1.093-0.451
				c-0.311,0-1.732,0.05-1.809,0.479C6.503-6.784,7.372-6.809,7.682-6.809L7.682-6.809z"/>
			<path class="st2" d="M11.57-20.431c0.676,0,0.356-0.717,0.121-1.038c-0.364-0.497-1.115-1.069-1.768-1.069
				c-0.676,0-0.356,0.717-0.121,1.038C10.166-21.003,10.917-20.431,11.57-20.431L11.57-20.431z"/>
			<path class="st1" d="M3.641-15.056c4.354,0,4.361-6.766,0-6.766C-0.712-21.822-0.719-15.056,3.641-15.056L3.641-15.056z"/>
			<path class="st1" d="M22.589-11.113c3.767,0,3.774-5.855,0-5.855C18.822-16.968,18.815-11.113,22.589-11.113L22.589-11.113z"/>
			<path class="st1" d="M8.04-8.702c2.951,0,2.956-4.586,0-4.586C5.089-13.289,5.084-8.702,8.04-8.702L8.04-8.702z"/>
			<path class="st1" d="M4.318-22.477c2.641,0,2.645-4.104,0-4.104C1.677-26.581,1.673-22.477,4.318-22.477L4.318-22.477z"/>
			<path class="st1" d="M22.251-5.519c2.693,0,2.698-4.186,0-4.186C19.557-9.705,19.553-5.519,22.251-5.519L22.251-5.519z"/>
			<path class="st2" d="M17.866-16.128c0.91,0,2.197-2.593,1.326-2.593C18.281-18.721,16.995-16.128,17.866-16.128L17.866-16.128z"
				/>
			<path class="st2" d="M20.775-19.279c0.667,0,1.53-0.255,1.966-0.796c0.343-0.426,0.285-0.908-0.368-0.908
				c-0.667,0-1.53,0.255-1.966,0.796C20.063-19.761,20.121-19.279,20.775-19.279L20.775-19.279z"/>
			<path class="st2" d="M25.972-9.505c0.481,0,1.313-0.308,1.12-0.921c-0.202-0.643-1.282-0.707-1.797-0.707
				c-0.481,0-1.313,0.308-1.12,0.921C24.378-9.569,25.458-9.505,25.972-9.505L25.972-9.505z"/>
			<path class="st2" d="M18.681-9.642c0.659,0,1.39-0.543,1.787-1.032c0.239-0.294,0.617-0.998-0.063-0.998
				c-0.659,0-1.39,0.543-1.787,1.032C18.38-10.346,18.002-9.642,18.681-9.642L18.681-9.642z"/>
			<path class="st2" d="M13.772-17.109c1.156,0,2.308-2.66,0.717-2.66C13.332-19.769,12.181-17.109,13.772-17.109L13.772-17.109z"/>
		</g>
	</g>
</pattern>
<g id="Layer_13">
</g>
<g id="Layer_2">
</g>
<g id="Layer_14">
	<g id="Layer_15">
	</g>
</g>
<g id="Layer_3">
</g>
<g id="Layer_4">
</g>
<g id="Layer_11">
</g>
<g id="Layer_5">
	<g id="Layer_6">
	</g>
</g>
<g id="Layer_17">
	<g id="Layer_9">
	</g>
	<g id="Layer_10">
	</g>
</g>
<g id="german">
	
		<radialGradient id="SVGID_1_" cx="161.0997" cy="111.1521" r="105.1497" fx="205.2881" fy="206.5661" gradientTransform="matrix(-0.9837 -0.1799 0.0833 -0.4557 310.3081 190.7845)" gradientUnits="userSpaceOnUse">
		<stop  offset="0.3606" style="stop-color:#939283"/>
		<stop  offset="0.8986" style="stop-color:#7D6663"/>
	</radialGradient>
	<path class="st5" d="M7.806,142.172l14.931-62.97c0.037-0.155,0.146-0.283,0.293-0.343l96.618-39.555
		c0.158-0.065,0.333-0.047,0.471,0.053c3.629,2.632,51.64,37.634,61.045,53.936c7.422,12.865,13.904,26.582,19.005,40.536
		c2.474,6.768,3.922,13.982,5.823,20.941c0.085,0.311-0.145,0.616-0.467,0.621L18.93,158.098
		c-7.316,0.106-12.892-6.518-11.541-13.709L7.806,142.172z"/>
	<radialGradient id="SVGID_2_" cx="86.6684" cy="77.7863" r="110.1196" fx="66.6624" fy="127.3967" gradientUnits="userSpaceOnUse">
		<stop  offset="0.3019" style="stop-color:#FFC516"/>
		<stop  offset="0.4064" style="stop-color:#FFA316"/>
		<stop  offset="0.6906" style="stop-color:#FF4C16"/>
		<stop  offset="0.8909" style="stop-color:#FF1516"/>
		<stop  offset="0.9876" style="stop-color:#FF0016"/>
	</radialGradient>
	<path class="st6" d="M205.032,57.27c-0.072-1.293-0.606-2.529-0.606-2.529c-0.003-0.008-0.007-0.016-0.01-0.024
		c-0.491-1.154-0.683-2.422-0.373-3.637c0.754-2.953-3.173-6.315-3.511-9.1c-0.22-1.75,0.51-3.48,0.49-5.24
		c-0.03-3.18-2.37-5.78-4.53-7.87c-2.3-2.22-5.25-2.78-8.19-3.78c-4.73-1.61-8.6-4.87-12.72-7.57c-2.14-1.4-4.33-2.4-6.64-3.46
		c-2.33-1.06-4.36-2.74-6.45-4.19c-2.28-1.58-5.32-2.71-7.77-1.42c-0.62,0.33-1.17,0.81-1.5,1.43c-0.26,0.47-0.37,1.01-0.5,1.53
		c-0.75,2.98-1.85,7.85-5.65,7.35c-2.07-0.28-4.01-1.24-5.7-2.44c-2.21-1.56-4.09-3.53-6.16-5.27
		c-10.74-9.02-26.71-12.07-40.35-10.76c-7.26,0.7-14.41,2.31-21.27,4.79c-14.29,5.18-28.67,14.09-39.23,25.02
		c-13.33,13.8-21.78,31.15-26.58,49.56c-2.39,9.18-4.25,18.49-5.98,27.82c-2.86,15.35-3.37,33.9,6.51,47.01
		c4.35,5.77,10.3,10.46,17.33,12.43c16.02,4.48,38.19-1.39,41.2-20.12c0.84-5.27-0.16-12.58-3.14-17.1
		c-2.68-4.08-7.53-6.98-12.18-8.15c-9.33-2.35-20.3,2.3-24.24,11.38c-0.82,1.88-1.18,3.92-1.38,5.96c-0.7,6.88,1.7,11.66,6.92,15.9
		c0,0,0.31,0.25,0.78,0.59c0.48,0.34,1.14,0.78,1.8,1.11c0.19,0.09,0.38,0.18,0.57,0.26c-2.19-0.19-4.37-0.66-6.44-1.31
		c-2.63-0.83-4.99-2.27-6.94-4.22c-8.21-8.2-8.05-19.41-7.44-30.19c0.27-4.69,1.66-9.35,3.16-13.77c0.7-2.09,1.44-4.2,2.32-6.22
		c0.68-1.55,1.3-4.28,2.93-5.08c1.42-0.7,3.2,0.21,4.67-0.36c0.65-0.26,1.16-0.78,1.64-1.3c4.69-5.05,10.72-8.9,16.83-12.12
		c3.22-1.69,42.92-12.89,48.16-14.59c5.24-1.69,17.32-6.78,20.71-7.8c3.39-1.02,12.04,0.51,17.3,3.39
		c5.26,2.89,12.72,5.26,16.28,6.11c3.57,0.85,26.8,1.19,36.13,1.02c2.351-0.043,7.494,0.238,12.26-2.64
		c2.639-1.594,4.157-3.516,4.874-4.441C203.65,61.637,205.166,59.68,205.032,57.27z M35.732,148.93c-3.57-2.91-3.8-8.82-1.95-12.76
		c2.44-5.2,8.55-7.63,14.02-6.65c2.85,0.51,6.02,2.01,7.87,4.3c1.9,2.33,2.9,6.39,2.18,9.32c-0.29,1.16-0.85,2.23-1.51,3.24
		c0.1-0.55,0.19-1.05,0.24-1.45c0.56-4.14-1.42-8.05-5.02-10.22c-4.24-2.56-8.94-1.82-12.68,1.17c-1.62,1.29-2.91,3.15-3.31,4.53
		c-0.94,3.18,0.9,7.36,4.16,8.27c1.76,0.49,3.69,0.17,5.32-0.67c1-0.52,1.97-1.32,2.21-2.42c0.23-1.03,0.07-2.27-1.25-2.25
		c-1.35,0.02-1.88,1.51-3.13,1.72c-0.15,0.02-0.3,0.03-0.44,0.02c-0.32-0.02-0.64-0.11-0.95-0.21c-0.53-0.16-1.07-0.36-1.48-0.74
		c-0.99-0.92-0.44-2.72,0.27-3.65c1.72-2.23,5.78-2.18,8.17-1.32c0.48,0.17,0.95,0.38,1.32,0.73c1.33,1.24,1.87,3.81,1.32,5.49
		c-1.15,3.55-4.97,6.23-8.7,6.01c-1.44-0.08-2.83-0.56-4.18-1.11C37.342,149.92,36.472,149.52,35.732,148.93z"/>
	<path class="st24" d="M205.032,57.27c-0.072-1.293-0.606-2.529-0.606-2.529c-0.003-0.008-0.007-0.016-0.01-0.024
		c-0.491-1.154-0.683-2.422-0.373-3.637c0.754-2.953-3.173-6.315-3.511-9.1c-0.22-1.75,0.51-3.48,0.49-5.24
		c-0.03-3.18-2.37-5.78-4.53-7.87c-2.3-2.22-5.25-2.78-8.19-3.78c-4.73-1.61-8.6-4.87-12.72-7.57c-2.14-1.4-4.33-2.4-6.64-3.46
		c-2.33-1.06-4.36-2.74-6.45-4.19c-2.28-1.58-5.32-2.71-7.77-1.42c-0.62,0.33-1.17,0.81-1.5,1.43c-0.26,0.47-0.37,1.01-0.5,1.53
		c-0.75,2.98-1.85,7.85-5.65,7.35c-2.07-0.28-4.01-1.24-5.7-2.44c-2.21-1.56-4.09-3.53-6.16-5.27
		c-10.74-9.02-26.71-12.07-40.35-10.76c-7.26,0.7-14.41,2.31-21.27,4.79c-14.29,5.18-28.67,14.09-39.23,25.02
		c-13.33,13.8-21.78,31.15-26.58,49.56c-2.39,9.18-4.25,18.49-5.98,27.82c-2.86,15.35-3.37,33.9,6.51,47.01
		c4.35,5.77,10.3,10.46,17.33,12.43c16.02,4.48,38.19-1.39,41.2-20.12c0.84-5.27-0.16-12.58-3.14-17.1
		c-2.68-4.08-7.53-6.98-12.18-8.15c-9.33-2.35-20.3,2.3-24.24,11.38c-0.82,1.88-1.18,3.92-1.38,5.96c-0.7,6.88,1.7,11.66,6.92,15.9
		c0,0,0.31,0.25,0.78,0.59c0.48,0.34,1.14,0.78,1.8,1.11c0.19,0.09,0.38,0.18,0.57,0.26c-2.19-0.19-4.37-0.66-6.44-1.31
		c-2.63-0.83-4.99-2.27-6.94-4.22c-8.21-8.2-8.05-19.41-7.44-30.19c0.27-4.69,1.66-9.35,3.16-13.77c0.7-2.09,1.44-4.2,2.32-6.22
		c0.68-1.55,1.3-4.28,2.93-5.08c1.42-0.7,3.2,0.21,4.67-0.36c0.65-0.26,1.16-0.78,1.64-1.3c4.69-5.05,10.72-8.9,16.83-12.12
		c3.22-1.69,42.92-12.89,48.16-14.59c5.24-1.69,17.32-6.78,20.71-7.8c3.39-1.02,12.04,0.51,17.3,3.39
		c5.26,2.89,12.72,5.26,16.28,6.11c3.57,0.85,26.8,1.19,36.13,1.02c2.351-0.043,7.494,0.238,12.26-2.64
		c2.639-1.594,4.157-3.516,4.874-4.441C203.65,61.637,205.166,59.68,205.032,57.27z M35.732,148.93c-3.57-2.91-3.8-8.82-1.95-12.76
		c2.44-5.2,8.55-7.63,14.02-6.65c2.85,0.51,6.02,2.01,7.87,4.3c1.9,2.33,2.9,6.39,2.18,9.32c-0.29,1.16-0.85,2.23-1.51,3.24
		c0.1-0.55,0.19-1.05,0.24-1.45c0.56-4.14-1.42-8.05-5.02-10.22c-4.24-2.56-8.94-1.82-12.68,1.17c-1.62,1.29-2.91,3.15-3.31,4.53
		c-0.94,3.18,0.9,7.36,4.16,8.27c1.76,0.49,3.69,0.17,5.32-0.67c1-0.52,1.97-1.32,2.21-2.42c0.23-1.03,0.07-2.27-1.25-2.25
		c-1.35,0.02-1.88,1.51-3.13,1.72c-0.15,0.02-0.3,0.03-0.44,0.02c-0.32-0.02-0.64-0.11-0.95-0.21c-0.53-0.16-1.07-0.36-1.48-0.74
		c-0.99-0.92-0.44-2.72,0.27-3.65c1.72-2.23,5.78-2.18,8.17-1.32c0.48,0.17,0.95,0.38,1.32,0.73c1.33,1.24,1.87,3.81,1.32,5.49
		c-1.15,3.55-4.97,6.23-8.7,6.01c-1.44-0.08-2.83-0.56-4.18-1.11C37.342,149.92,36.472,149.52,35.732,148.93z"/>
	<linearGradient id="SVGID_3_" gradientUnits="userSpaceOnUse" x1="35.3269" y1="141.0319" x2="56.6761" y2="141.0319">
		<stop  offset="0" style="stop-color:#06060C"/>
		<stop  offset="1" style="stop-color:#06060C;stop-opacity:0.81"/>
	</linearGradient>
	<path style="opacity:0.86;fill:url(#SVGID_3_);" d="M56.582,144.93c-0.05,0.39-0.14,0.88-0.24,1.42v0.02
		c-0.02,0.03-0.53,0.51-0.53,0.51l0.11-0.46c-0.05-1.54,0.05-3.12-0.36-4.6c-0.59-2.11-1.4-3.74-3.15-5.1
		c-1.71-1.32-3.68-2.48-5.89-2.56c-2.22-0.09-4.4,0.93-6.29,2c-1.57,0.89-2.85,2.28-3.53,3.96c-0.42,1.05-0.66,2.14-0.42,3.25
		c0.27,1.25,0.89,2.41,1.75,3.35c0.41,0.45,0.86,0.89,1.4,1.15c1.89,0.92,4.94,0.14,6.39-1.28c0.16-0.16,0.31-0.33,0.41-0.54
		c0.12-0.22,0.16-0.46,0.19-0.71c0.08-0.64,0.06-1.3,0.01-1.95c0.93,0.22,1.03,1.29,0.83,2.2c-0.24,1.1-1.21,1.9-2.21,2.42
		c-1.63,0.84-3.56,1.16-5.32,0.67c-3.26-0.91-5.1-5.09-4.16-8.27c0.4-1.38,1.69-3.24,3.31-4.53c3.74-2.99,8.44-3.73,12.68-1.17
		C55.162,136.88,57.142,140.79,56.582,144.93z"/>
	<linearGradient id="SVGID_4_" gradientUnits="userSpaceOnUse" x1="0" y1="84.1749" x2="204.9887" y2="84.1749">
		<stop  offset="0" style="stop-color:#06060C"/>
		<stop  offset="1" style="stop-color:#06060C;stop-opacity:0"/>
	</linearGradient>
	<path style="opacity:0.86;fill:url(#SVGID_4_);" d="M204.662,57.617L204.662,57.617c-0.512,0.48-1.347,0.308-1.629-0.334
		c-2.575-5.858-5.035-11.654-6.44-17.943c-0.48-2.14-0.75-4.71-2.08-6.52c-1.05-1.44-2.8-2.01-4.27-2.88
		c-1.73-1.03-3.44-2.08-5.21-3.05c-5.01-2.77-10.11-5.39-15.19-8.03c-2.11-1.1-4.22-2.2-6.33-3.31c-1.29-0.68-3.2-2.05-4.75-1.51
		c-0.53,0.19-0.94,0.61-1.31,1.03c-2.08,2.36-3.39,5.05-6.32,6.47c-2.19,1.05-4.96,1.86-7.36,1.17c-1.38-0.39-2.65-1.11-3.91-1.81
		c-7-3.91-14.28-7.19-21.66-10.32c-5.76-2.44-11.43-3.22-17.67-2.88c-12.22,0.67-26.8,3.92-37.61,9.77
		c-11.68,6.32-22.51,19.88-30.91,29.92c-16.54,19.78-21.53,42.39-26.16,67.21c-1.42,7.56-1.48,15.52,1.07,22.86
		c2.12,6.12,4.31,12.16,8,17.55c1.35,1.96,2.84,3.86,4.69,5.38c2.81,2.3,6.2,2.98,9.71,3.51c3.62,0.54,7.21,1.11,10.88,1.04
		c6.74-0.12,13.26-2.23,18.29-6.82c1.8-1.65,3.48-3.17,4.67-5.36c3.84-7.08,2.9-16.98-2.1-23.22c-3.07-3.83-7.59-5.78-12.38-6.51
		c-4.76-0.72-9.33,1.13-13.53,3.26c-2.38,1.2-4.06,3.47-5.46,5.69c-1.66,2.6-2.22,5.78-2.44,8.82c-0.23,3.07-0.05,6,1.79,8.56
		c1.46,2.05,3.45,3.75,4.56,6.02c-0.47-0.34-0.78-0.59-0.78-0.59c-5.22-4.24-7.62-9.02-6.92-15.9c0.2-2.04,0.56-4.08,1.38-5.96
		c3.94-9.08,14.91-13.73,24.24-11.38c4.65,1.17,9.5,4.07,12.18,8.15c2.98,4.52,3.98,11.83,3.14,17.1
		c-3.01,18.73-25.18,24.6-41.2,20.12c-7.03-1.97-12.98-6.66-17.33-12.43c-9.88-13.11-9.37-31.66-6.51-47.01
		c1.73-9.33,3.59-18.64,5.98-27.82c4.8-18.41,13.25-35.76,26.58-49.56c10.56-10.93,24.94-19.84,39.23-25.02
		c6.86-2.48,14.01-4.09,21.27-4.79c13.64-1.31,29.61,1.74,40.35,10.76c2.07,1.74,3.95,3.71,6.16,5.27c1.69,1.2,3.63,2.16,5.7,2.44
		c3.8,0.5,4.9-4.37,5.65-7.35c0.13-0.52,0.24-1.06,0.5-1.53c0.33-0.62,0.88-1.1,1.5-1.43c2.45-1.29,5.49-0.16,7.77,1.42
		c2.09,1.45,4.12,3.13,6.45,4.19c2.31,1.06,4.5,2.06,6.64,3.46c4.12,2.7,7.99,5.96,12.72,7.57c2.94,1,5.89,1.56,8.19,3.78
		c2.16,2.09,4.5,4.69,4.53,7.87c0.02,1.76-0.71,3.49-0.49,5.24c0.331,2.732,4.117,6.02,3.549,8.932
		c-0.245,1.253-0.215,2.553,0.299,3.721c0.294,0.668,0.5,1.394,0.601,2.132C205.024,57.082,204.895,57.398,204.662,57.617z"/>
	
		<radialGradient id="SVGID_5_" cx="55.0939" cy="81.4736" r="22.5775" fx="39.657" fy="87.2453" gradientTransform="matrix(-0.668 -0.7442 1.3331 -1.1965 -16.7194 219.9602)" gradientUnits="userSpaceOnUse">
		<stop  offset="0.2645" style="stop-color:#F7931E"/>
		<stop  offset="0.4027" style="stop-color:#F97F24"/>
		<stop  offset="1" style="stop-color:#FF293B"/>
	</radialGradient>
	<path class="st9" d="M27.197,78.391c0.08-0.121,0.16-0.241,0.241-0.36c1.484-2.186,2.8-4.684,5.09-6.145
		c2.658-1.697,5.789-1.952,8.301-3.969c3.171-2.546,5.898-5.356,8.618-8.376c3.095-3.436,8.996-11.516,14.091-11.612
		c2.291-0.043,4.155,1.802,5.48,3.672c0.545,0.768,1.061,1.592,1.224,2.52c0.528,3.01-4.806,6.71-6.607,8.639
		c-7.873,8.433-18.42,17.101-23.157,27.784c-2.028,4.572-6.469,3.306-10.731,4.532c-1.25,0.359-2.603,1.21-3.894,0.631
		c-0.967-0.434-2.062-0.806-2.91-1.457c-0.925-0.71-0.874-1.618-0.807-2.722C22.408,87.018,24.748,82.106,27.197,78.391z"/>
	
		<radialGradient id="SVGID_6_" cx="80.6926" cy="73.818" r="36.6792" fx="53.9207" fy="73.472" gradientTransform="matrix(0.5482 0.8363 -0.3948 0.2588 65.5948 -12.7699)" gradientUnits="userSpaceOnUse">
		<stop  offset="0" style="stop-color:#F7931E"/>
		<stop  offset="0.1879" style="stop-color:#F97F24"/>
		<stop  offset="1" style="stop-color:#FF293B"/>
	</radialGradient>
	<path class="st10" d="M72.891,94.042c-0.327-0.401-0.703-0.781-1.108-1.155c-1.66-1.535-3.097-3.271-4.49-5.047
		c-1.516-1.933-3.503-3.861-4.415-6.176c-0.756-1.918-0.587-3.988-0.646-6.004c-0.054-1.861-0.408-3.696-0.747-5.523
		c-0.81-4.366-1.573-9.536-3.675-13.488c-0.033-0.063-0.198-0.383-0.349-0.839c0,0-0.167-0.507-0.241-1.022
		c-0.107-0.754,0.258-3.087,1.631-4.669c2.4-2.764,7.749-3.082,10.096-0.859c1.517,1.437,1.032,3.227,1.267,7.479
		c0.527,9.527,2.651,11.956,6.536,23.418c0.31,0.913,0.627,1.842,1.187,2.627c1.257,1.762,4.289,2.414,6.182,3.196
		c1.98,0.818,4.036,1.441,5.995,2.312c1.938,0.861,3.695,2.082,5.521,3.153c0.502,0.294,1.038,0.628,1.247,1.171
		c0.819,2.126-9.59-0.035-10.535,0.226c-0.436,0.12-0.826,0.363-1.207,0.606c-3.362,2.147-7.191,4.562-8.806,8.392
		c-0.17,0.403-0.326,0.836-0.656,1.124c-1.454,1.267-1.934-1.991-1.865-2.771c0.081-0.906,0.326-1.796,0.343-2.705
		C74.185,96.084,73.677,95.004,72.891,94.042z"/>
	
		<radialGradient id="SVGID_7_" cx="134.5859" cy="65.3593" r="29.661" fx="114.3058" fy="72.9417" gradientTransform="matrix(-0.7321 -0.6812 0.4757 -0.5112 202.0172 190.4574)" gradientUnits="userSpaceOnUse">
		<stop  offset="0" style="stop-color:#F7931E"/>
		<stop  offset="0.1879" style="stop-color:#F97F24"/>
		<stop  offset="1" style="stop-color:#FF293B"/>
	</radialGradient>
	<path class="st11" d="M128.316,45.363c0.599-0.136,1.195-0.289,1.786-0.46c1.852-0.537,3.787-1.266,5.654-0.786
		c2.681,0.689,4.203,3.81,3.827,6.552c-0.173,1.265-0.716,2.541-1.752,3.287c-1.12,0.806-2.594,0.865-3.974,0.893
		c-2.426,0.049-4.853,0.099-7.279,0.148c-2.202,0.045-4.632,0.01-6.279-1.451c2.208,0.949,3.578,3.132,4.891,5.145
		c2.803,4.296,5.956,8.356,9.264,12.277c1.052,1.247,2.253,2.559,3.862,2.833c1.887,0.321,3.708-0.916,4.934-2.387
		c0.389-0.467,0.77-0.985,1.333-1.214c0.39-0.159,0.908-0.109,1.23,0.175c0.448,0.396,0.033,0.876-0.229,1.256
		c-0.231,0.335-0.474,0.662-0.726,0.981c-0.513,0.647-1.07,1.261-1.665,1.833c0.23,0.225,0.554,0.477,0.984,0.657
		c0.294,0.123,0.726,0.286,1.214,0.16c0.379-0.098,0.888-0.403,1.016-0.8c0.016-0.049,0.024-0.104,0.005-0.153
		c-0.019-0.049-0.062-0.085-0.11-0.106c-0.34-0.153-0.799-0.037-1.146,0.028c-0.173,0.032-0.398,0.108-0.574,0.076
		c-0.339-0.06-0.127-0.518,0.03-0.657c0.496-0.443,1.467-0.501,2.057-0.276c0.221,0.085,0.42,0.221,0.574,0.402
		c0.61,0.718,0.277,1.784,0.183,2.077c-0.01,0.032-0.019,0.056-0.024,0.073c-0.746,2.198-3.602,2.989-4.089,3.071
		c-2.304,0.386-4.687-0.18-6.795-1.185c-2.108-1.005-3.983-2.432-5.829-3.862c-5.682-4.404-11.264-8.957-17.28-12.893
		c-1.463-0.957-3.006-1.933-3.894-3.439c-0.874-1.482-0.993-3.304-0.746-5.007c0.096-0.663,0.247-1.328,0.558-1.922
		c0.36-0.686,0.921-1.249,1.54-1.715c2.587-1.947,6.023-2.212,9.25-2.481C122.868,46.262,125.629,45.974,128.316,45.363z"/>
	<linearGradient id="SVGID_8_" gradientUnits="userSpaceOnUse" x1="152.7978" y1="51.4464" x2="205.0563" y2="51.4464">
		<stop  offset="0" style="stop-color:#FCEE21"/>
		<stop  offset="0.1832" style="stop-color:#FBE521"/>
		<stop  offset="0.4878" style="stop-color:#FACB20"/>
		<stop  offset="0.8738" style="stop-color:#F8A21E"/>
		<stop  offset="1" style="stop-color:#F7931E"/>
	</linearGradient>
	<path class="st12" d="M177.545,49.826c7.63,1.133,14.95,3.674,22.593,4.758c2.544,0.361,5.576,0.953,4.793,4.261
		c-0.018,0.077-0.04,0.157-0.094,0.215c-0.474,0.51-3.465-0.328-4.103-0.438c-1.582-0.273-3.153-0.612-4.716-0.979
		c-3.064-0.719-6.101-1.552-9.173-2.239c-5.979-1.338-12.018-2.489-18.136-2.935c-2.162-0.157-4.33-0.227-6.498-0.191
		c-1.174,0.019-2.36-0.07-3.477-0.456c-2.833-0.979-5.934-3.822-5.936-6.996c-0.001-1.501,1.251-1.433,1.997-0.406
		c0.327,0.451,0.54,0.974,0.841,1.443c0.697,1.089,1.836,1.835,3.045,2.29c4.315,1.624,9.223,0.964,13.725,1.164
		C174.131,49.393,175.843,49.573,177.545,49.826z"/>
	<path class="st13" d="M204.621,57.943c-5.833-1.182-10.47-2.311-13.602-3.115c0,0-12.633-3.167-18.984-3.537
		c-0.41-0.024-0.709-0.031-0.951-0.042c-2.356-0.101-4.713-0.138-7.07-0.221c-2.535-0.09-3.797-0.241-4.858-0.632
		c-2.559-0.942-4.144-2.887-5.012-4.213"/>
	<radialGradient id="SVGID_9_" cx="178.9476" cy="35.4094" r="14.5875" fx="177.9874" fy="36.1247" gradientUnits="userSpaceOnUse">
		<stop  offset="0.1765" style="stop-color:#A6E6D6"/>
		<stop  offset="0.379" style="stop-color:#FFC516"/>
		<stop  offset="0.5613" style="stop-color:#FF293B"/>
		<stop  offset="0.6822" style="stop-color:#F7931E"/>
		<stop  offset="0.8756" style="stop-color:#FFC516"/>
	</radialGradient>
	<ellipse class="st14" cx="178.948" cy="35.409" rx="12.147" ry="12.059"/>
	<g class="st15">
		<g>
			<path class="st16" d="M177.237,45.705c3.046,0.325,4.945-0.604,5.787-1.133"/>
			<path class="st17" d="M183.823,43.916c0.73-0.772,1.664-2.171,3.198-4.467c0.245-0.366,0.454-0.686,0.632-0.968"/>
			<path class="st16" d="M188.182,37.595c0.353-0.647,0.471-1.048,0.523-1.514c0.204-1.806-0.715-3.318-1.283-4.09"/>
		</g>
	</g>
	<g class="st15">
		<g>
			<path class="st16" d="M179.884,42.975c-1.94,0.486-4.138,0.53-5.858-0.402"/>
			<path class="st18" d="M173.53,42.267c-0.121-0.084-0.238-0.174-0.353-0.27c-0.859-0.721-1.416-1.676-1.914-2.664"/>
			<path class="st16" d="M171.004,38.807c-0.156-0.319-0.309-0.638-0.47-0.951c-0.34-0.664-0.93-1.338-1.142-2.036
				c-0.249-0.819,0.076-1.766,0.307-2.546"/>
		</g>
	</g>
	<g class="st15">
		<g>
			<path class="st16" d="M171.303,33.996c0.599-1.836,1.399-3.882,2.917-5.161"/>
			<path class="st19" d="M174.285,28.781c0.037-0.03,0.074-0.06,0.111-0.089c0.105-0.081,0.213-0.159,0.323-0.232"/>
			<path class="st16" d="M174.789,28.414c0.534-0.347,1.118-0.617,1.699-0.881c1.395-0.634,2.503-0.871,3.957-0.355"/>
		</g>
	</g>
	<g class="st15">
		<g>
			<path class="st16" d="M180.285,28.703c0.272,0.069,3.313,0.887,4.691,3.49"/>
			<path class="st20" d="M185.278,32.865c0.021,0.055,0.04,0.112,0.06,0.168c0.55,1.637,0.228,3.152,0.16,3.449
				c-0.055,0.24-0.138,0.609-0.301,1.033"/>
			<path class="st16" d="M184.884,38.188c-0.203,0.367-0.471,0.746-0.83,1.1c-1.621,1.601-3.84,1.474-4.25,1.444"/>
		</g>
	</g>
	<circle class="st32" cx="178.095" cy="34.62" r="3.248"/>
</g>
<g id="Layer_16">
</g>
<g id="american">
</g>
</svg>
