<?xml version="1.0" encoding="utf-8"?>
<!-- Generator: Adobe Illustrator 24.0.3, SVG Export Plug-In . SVG Version: 6.00 Build 0)  -->
<svg version="1.1" xmlns="http://www.w3.org/2000/svg" xmlns:xlink="http://www.w3.org/1999/xlink" x="0px" y="0px"
	 viewBox="0 0 49.7 45.73" style="enable-background:new 0 0 49.7 45.73;" xml:space="preserve">
<style type="text/css">
	.st0{display:none;}
	.st1{display:inline;fill:#1B1730;}
	.st2{fill:#F0F8FF;}
	.st3{fill:none;stroke:#F0F8FF;stroke-miterlimit:10;}
	.st4{display:inline;fill:#99C6C3;}
	.st5{display:inline;fill:#FFD700;}
</style>
<g id="Layer_2" class="st0">
	<rect x="-0.12" y="-4.27" class="st1" width="50" height="50"/>
</g>
<g id="Layer_1">
	<path class="st2" d="M32.7,45.73H0c0.572-1.836,1.585-3.481,2.91-4.815c2.13-2.122,5.057-3.438,8.279-3.438h10.323
		C26.751,37.477,31.21,40.967,32.7,45.73z"/>
	<g id="Layer_5">
		<circle class="st2" cx="16.35" cy="27.043" r="9.653"/>
	</g>
	<g id="Layer_6">
		<g>
			<path class="st2" d="M32.353,7.215c-0.156,0.141-0.36,0.235-0.643,0.235c-0.423,0-0.972-0.408-0.972-0.894
				c0-0.376,0.267-0.658,0.518-0.893c0.689-0.658,1.567-1.082,2.695-1.082c2.006,0,3.26,1.411,3.26,3.244
				c0,1.253-0.611,2.288-1.99,2.962c-0.298,0.141-0.298,0.407-0.298,0.58v0.298c0,0.611-0.471,0.846-0.956,0.846
				c-0.502,0-0.972-0.235-0.972-0.846v-0.549c0-0.626,0.125-1.363,1.223-1.865c0.721-0.313,1.019-0.862,1.019-1.426
				c0-0.752-0.407-1.395-1.285-1.395C33.371,6.432,32.901,6.745,32.353,7.215z M33.951,15.615c-0.674,0-1.112-0.486-1.112-1.112
				c0-0.658,0.438-1.113,1.112-1.113c0.627,0,1.112,0.455,1.112,1.113C35.064,15.129,34.578,15.615,33.951,15.615z"/>
			<path class="st2" d="M40.25,15.615c-0.674,0-1.113-0.486-1.113-1.112c0-0.658,0.439-1.113,1.113-1.113
				c0.626,0,1.112,0.455,1.112,1.113C41.362,15.129,40.876,15.615,40.25,15.615z M39.263,5.476c0-0.658,0.501-0.894,0.987-0.894
				c0.485,0,0.972,0.235,0.972,0.894v6.174c0,0.626-0.486,0.862-0.972,0.862c-0.486,0-0.987-0.235-0.987-0.862V5.476z"/>
		</g>
	</g>
	<g id="Layer_7">
		<path class="st3" d="M49.2,9.836c0,5.158-5.536,9.336-12.352,9.336c-0.405,0-0.796-0.013-1.188-0.052
			c-2.52,2.39-4.766,3.173-6.163,3.473c-0.196,0.039-2.638,0.575-2.86,0.026c-0.078-0.183,0.144-0.405,0.444-0.783
			c0.614-0.744,1.449-1.959,1.684-2.677c0.444-1.332-0.64-2.611-0.992-2.99l-0.117-0.117c-1.959-1.645-3.147-3.813-3.147-6.215
			c0-5.158,5.523-9.336,12.339-9.336C43.664,0.5,49.2,4.678,49.2,9.836z"/>
	</g>
</g>
<g id="Layer_8" class="st0">
	<path class="st4" d="M24.838,63.266H12.922c-7.443,0-13.533-6.09-13.533-13.533v0c0-7.443,6.09-13.533,13.533-13.533h11.917
		c7.443,0,13.533,6.09,13.533,13.533v0C38.372,57.176,32.282,63.266,24.838,63.266z"/>
</g>
<g id="Layer_2_copy" class="st0">
</g>
<g id="Layer_4" class="st0">
</g>
</svg>
