<?xml version="1.0" encoding="utf-8"?>
<!-- Generator: Adobe Illustrator 24.0.3, SVG Export Plug-In . SVG Version: 6.00 Build 0)  -->
<svg version="1.1" xmlns="http://www.w3.org/2000/svg" xmlns:xlink="http://www.w3.org/1999/xlink" x="0px" y="0px"
	 viewBox="0 0 49.7 45.73" style="enable-background:new 0 0 49.7 45.73;" xml:space="preserve">
<style type="text/css">
	.st0{display:none;}
	.st1{display:inline;fill:#1B1730;}
	.st2{fill:#FFD700;}
	.st3{fill:none;stroke:#FFD700;stroke-miterlimit:10;}
	.st4{display:inline;fill:#99C6C3;}
	.st5{display:inline;fill:#FFD700;}
</style>
<g id="Layer_2" class="st0">
	<rect x="-0.12" y="-4.27" class="st1" width="50" height="50"/>
</g>
<g id="Layer_1">
	<path class="st2" d="M37.76,45.73H0c0.66-2.12,1.83-4.02,3.36-5.56c2.46-2.45,5.84-3.97,9.56-3.97h11.92
		C30.89,36.2,36.04,40.23,37.76,45.73z"/>
	<g id="Layer_5">
		<circle class="st2" cx="18.88" cy="24.151" r="11.147"/>
	</g>
	<g id="Layer_6">
		<g>
			<path class="st2" d="M36.297,5.648c-0.12,0.108-0.276,0.18-0.492,0.18c-0.323,0-0.743-0.312-0.743-0.684
				c0-0.288,0.203-0.503,0.396-0.684c0.527-0.504,1.199-0.828,2.062-0.828c1.535,0,2.495,1.08,2.495,2.483
				c0,0.959-0.468,1.751-1.523,2.267c-0.228,0.108-0.228,0.312-0.228,0.444v0.228c0,0.468-0.36,0.648-0.731,0.648
				c-0.384,0-0.744-0.18-0.744-0.648V8.634c0-0.48,0.097-1.043,0.936-1.427c0.552-0.24,0.779-0.66,0.779-1.091
				c0-0.576-0.312-1.067-0.983-1.067C37.076,5.048,36.717,5.288,36.297,5.648z M37.52,12.076c-0.516,0-0.852-0.372-0.852-0.852
				c0-0.503,0.336-0.852,0.852-0.852c0.48,0,0.852,0.348,0.852,0.852C38.371,11.704,38,12.076,37.52,12.076z"/>
			<path class="st2" d="M42.345,12.076c-0.516,0-0.852-0.372-0.852-0.852c0-0.503,0.336-0.852,0.852-0.852
				c0.479,0,0.852,0.348,0.852,0.852C43.196,11.704,42.824,12.076,42.345,12.076z M41.589,4.316c0-0.503,0.384-0.684,0.756-0.684
				c0.371,0,0.743,0.18,0.743,0.684v4.726c0,0.479-0.372,0.66-0.743,0.66c-0.372,0-0.756-0.18-0.756-0.66V4.316z"/>
		</g>
	</g>
	<g id="Layer_7">
		<path class="st3" d="M49.2,7.65c0,3.95-4.24,7.15-9.46,7.15c-0.31,0-0.61-0.01-0.91-0.04c-1.93,1.83-3.65,2.43-4.72,2.66
			c-0.15,0.03-2.02,0.44-2.19,0.02c-0.06-0.14,0.11-0.31,0.34-0.6c0.47-0.57,1.11-1.5,1.29-2.05c0.34-1.02-0.49-2-0.76-2.29
			l-0.09-0.09c-1.5-1.26-2.41-2.92-2.41-4.76c0-3.95,4.23-7.15,9.45-7.15C44.96,0.5,49.2,3.7,49.2,7.65z"/>
	</g>
</g>
<g id="Layer_8" class="st0">
	<path class="st4" d="M24.838,63.266H12.922c-7.443,0-13.533-6.09-13.533-13.533v0c0-7.443,6.09-13.533,13.533-13.533h11.917
		c7.443,0,13.533,6.09,13.533,13.533v0C38.372,57.176,32.282,63.266,24.838,63.266z"/>
</g>
<g id="Layer_2_copy" class="st0">
</g>
<g id="Layer_4" class="st0">
</g>
</svg>
