<?xml version="1.0" encoding="utf-8"?>
<!-- Generator: Adobe Illustrator 25.0.0, SVG Export Plug-In . SVG Version: 6.00 Build 0)  -->
<svg version="1.1" id="Layer_3" xmlns="http://www.w3.org/2000/svg" xmlns:xlink="http://www.w3.org/1999/xlink" x="0px" y="0px"
	 viewBox="0 0 555 50" style="enable-background:new 0 0 555 50;" xml:space="preserve">
<style type="text/css">
	.st0{fill:none;}
	.st1{fill:#FFFFFF;}
	.st2{opacity:0.5;fill:url(#SVGID_1_);}
</style>
<pattern  width="113.703" height="105.923" patternUnits="userSpaceOnUse" id="New_Pattern" viewBox="52.852 -114.75 113.703 105.923" style="overflow:visible;">
	<g>
		<rect x="52.852" y="-114.75" class="st0" width="113.703" height="105.923"/>
		<g>
			<text transform="matrix(1 0 0 1 113.7031 -5.9639)"><tspan x="0" y="0" class="st1" style="font-family:'DINosaur-Book'; font-size:12px;">c</tspan><tspan x="5.58" y="0" class="st1" style="font-family:'DINosaur-Book'; font-size:12px;">a</tspan><tspan x="11.652" y="0" class="st1" style="font-family:'DINosaur-Book'; font-size:12px;">t</tspan><tspan x="15.564" y="0" class="st1" style="font-family:'DINosaur-Book'; font-size:12px;">egor</tspan><tspan x="39.419" y="0" class="st1" style="font-family:'DINosaur-Book'; font-size:12px;">y</tspan><tspan x="44.484" y="0" class="st1" style="font-family:'DINosaur-Book'; font-size:12px;">:</tspan><tspan x="47.472" y="0" class="st1" style="font-family:'DINosaur-Bold'; font-size:12px;"> </tspan><tspan x="50.171" y="0" class="st1" style="font-family:'Verveine-Regular'; font-size:14px;">numbers  </tspan></text>
		</g>
		<g>
			<text transform="matrix(1 0 0 1 0 -5.9639)"><tspan x="0" y="0" class="st1" style="font-family:'DINosaur-Book'; font-size:12px;">c</tspan><tspan x="5.58" y="0" class="st1" style="font-family:'DINosaur-Book'; font-size:12px;">a</tspan><tspan x="11.652" y="0" class="st1" style="font-family:'DINosaur-Book'; font-size:12px;">t</tspan><tspan x="15.564" y="0" class="st1" style="font-family:'DINosaur-Book'; font-size:12px;">egor</tspan><tspan x="39.419" y="0" class="st1" style="font-family:'DINosaur-Book'; font-size:12px;">y</tspan><tspan x="44.484" y="0" class="st1" style="font-family:'DINosaur-Book'; font-size:12px;">:</tspan><tspan x="47.472" y="0" class="st1" style="font-family:'DINosaur-Bold'; font-size:12px;"> </tspan><tspan x="50.171" y="0" class="st1" style="font-family:'Verveine-Regular'; font-size:14px;">numbers  </tspan></text>
			<circle class="st1" cx="103.547" cy="-8.12" r="2.156"/>
		</g>
		<g>
			<text transform="matrix(1 0 0 1 56.8516 -23.6177)"><tspan x="0" y="0" class="st1" style="font-family:'DINosaur-Book'; font-size:12px;">c</tspan><tspan x="5.58" y="0" class="st1" style="font-family:'DINosaur-Book'; font-size:12px;">a</tspan><tspan x="11.652" y="0" class="st1" style="font-family:'DINosaur-Book'; font-size:12px;">t</tspan><tspan x="15.564" y="0" class="st1" style="font-family:'DINosaur-Book'; font-size:12px;">egor</tspan><tspan x="39.419" y="0" class="st1" style="font-family:'DINosaur-Book'; font-size:12px;">y</tspan><tspan x="44.484" y="0" class="st1" style="font-family:'DINosaur-Book'; font-size:12px;">:</tspan><tspan x="47.472" y="0" class="st1" style="font-family:'DINosaur-Bold'; font-size:12px;"> </tspan><tspan x="50.171" y="0" class="st1" style="font-family:'Verveine-Regular'; font-size:14px;">numbers  </tspan></text>
			<circle class="st1" cx="160.399" cy="-25.774" r="2.156"/>
		</g>
		<g>
			<text transform="matrix(1 0 0 1 113.7031 -41.272)"><tspan x="0" y="0" class="st1" style="font-family:'DINosaur-Book'; font-size:12px;">c</tspan><tspan x="5.58" y="0" class="st1" style="font-family:'DINosaur-Book'; font-size:12px;">a</tspan><tspan x="11.652" y="0" class="st1" style="font-family:'DINosaur-Book'; font-size:12px;">t</tspan><tspan x="15.564" y="0" class="st1" style="font-family:'DINosaur-Book'; font-size:12px;">egor</tspan><tspan x="39.419" y="0" class="st1" style="font-family:'DINosaur-Book'; font-size:12px;">y</tspan><tspan x="44.484" y="0" class="st1" style="font-family:'DINosaur-Book'; font-size:12px;">:</tspan><tspan x="47.472" y="0" class="st1" style="font-family:'DINosaur-Bold'; font-size:12px;"> </tspan><tspan x="50.171" y="0" class="st1" style="font-family:'Verveine-Regular'; font-size:14px;">numbers  </tspan></text>
		</g>
		<g>
			<text transform="matrix(1 0 0 1 0 -41.272)"><tspan x="0" y="0" class="st1" style="font-family:'DINosaur-Book'; font-size:12px;">c</tspan><tspan x="5.58" y="0" class="st1" style="font-family:'DINosaur-Book'; font-size:12px;">a</tspan><tspan x="11.652" y="0" class="st1" style="font-family:'DINosaur-Book'; font-size:12px;">t</tspan><tspan x="15.564" y="0" class="st1" style="font-family:'DINosaur-Book'; font-size:12px;">egor</tspan><tspan x="39.419" y="0" class="st1" style="font-family:'DINosaur-Book'; font-size:12px;">y</tspan><tspan x="44.484" y="0" class="st1" style="font-family:'DINosaur-Book'; font-size:12px;">:</tspan><tspan x="47.472" y="0" class="st1" style="font-family:'DINosaur-Bold'; font-size:12px;"> </tspan><tspan x="50.171" y="0" class="st1" style="font-family:'Verveine-Regular'; font-size:14px;">numbers  </tspan></text>
			<circle class="st1" cx="103.547" cy="-43.427" r="2.156"/>
		</g>
		<g>
			<text transform="matrix(1 0 0 1 56.8516 -58.9263)"><tspan x="0" y="0" class="st1" style="font-family:'DINosaur-Book'; font-size:12px;">c</tspan><tspan x="5.58" y="0" class="st1" style="font-family:'DINosaur-Book'; font-size:12px;">a</tspan><tspan x="11.652" y="0" class="st1" style="font-family:'DINosaur-Book'; font-size:12px;">t</tspan><tspan x="15.564" y="0" class="st1" style="font-family:'DINosaur-Book'; font-size:12px;">egor</tspan><tspan x="39.419" y="0" class="st1" style="font-family:'DINosaur-Book'; font-size:12px;">y</tspan><tspan x="44.484" y="0" class="st1" style="font-family:'DINosaur-Book'; font-size:12px;">:</tspan><tspan x="47.472" y="0" class="st1" style="font-family:'DINosaur-Bold'; font-size:12px;"> </tspan><tspan x="50.171" y="0" class="st1" style="font-family:'Verveine-Regular'; font-size:14px;">numbers  </tspan></text>
			<circle class="st1" cx="160.399" cy="-61.081" r="2.156"/>
		</g>
		<g>
			<text transform="matrix(1 0 0 1 113.7031 -76.5806)"><tspan x="0" y="0" class="st1" style="font-family:'DINosaur-Book'; font-size:12px;">c</tspan><tspan x="5.58" y="0" class="st1" style="font-family:'DINosaur-Book'; font-size:12px;">a</tspan><tspan x="11.652" y="0" class="st1" style="font-family:'DINosaur-Book'; font-size:12px;">t</tspan><tspan x="15.564" y="0" class="st1" style="font-family:'DINosaur-Book'; font-size:12px;">egor</tspan><tspan x="39.419" y="0" class="st1" style="font-family:'DINosaur-Book'; font-size:12px;">y</tspan><tspan x="44.484" y="0" class="st1" style="font-family:'DINosaur-Book'; font-size:12px;">:</tspan><tspan x="47.472" y="0" class="st1" style="font-family:'DINosaur-Bold'; font-size:12px;"> </tspan><tspan x="50.171" y="0" class="st1" style="font-family:'Verveine-Regular'; font-size:14px;">numbers  </tspan></text>
		</g>
		<g>
			<text transform="matrix(1 0 0 1 0 -76.5806)"><tspan x="0" y="0" class="st1" style="font-family:'DINosaur-Book'; font-size:12px;">c</tspan><tspan x="5.58" y="0" class="st1" style="font-family:'DINosaur-Book'; font-size:12px;">a</tspan><tspan x="11.652" y="0" class="st1" style="font-family:'DINosaur-Book'; font-size:12px;">t</tspan><tspan x="15.564" y="0" class="st1" style="font-family:'DINosaur-Book'; font-size:12px;">egor</tspan><tspan x="39.419" y="0" class="st1" style="font-family:'DINosaur-Book'; font-size:12px;">y</tspan><tspan x="44.484" y="0" class="st1" style="font-family:'DINosaur-Book'; font-size:12px;">:</tspan><tspan x="47.472" y="0" class="st1" style="font-family:'DINosaur-Bold'; font-size:12px;"> </tspan><tspan x="50.171" y="0" class="st1" style="font-family:'Verveine-Regular'; font-size:14px;">numbers  </tspan></text>
			<circle class="st1" cx="103.547" cy="-78.735" r="2.156"/>
		</g>
		<g>
			<text transform="matrix(1 0 0 1 56.8516 -94.2329)"><tspan x="0" y="0" class="st1" style="font-family:'DINosaur-Book'; font-size:12px;">c</tspan><tspan x="5.58" y="0" class="st1" style="font-family:'DINosaur-Book'; font-size:12px;">a</tspan><tspan x="11.652" y="0" class="st1" style="font-family:'DINosaur-Book'; font-size:12px;">t</tspan><tspan x="15.564" y="0" class="st1" style="font-family:'DINosaur-Book'; font-size:12px;">egor</tspan><tspan x="39.419" y="0" class="st1" style="font-family:'DINosaur-Book'; font-size:12px;">y</tspan><tspan x="44.484" y="0" class="st1" style="font-family:'DINosaur-Book'; font-size:12px;">:</tspan><tspan x="47.472" y="0" class="st1" style="font-family:'DINosaur-Bold'; font-size:12px;"> </tspan><tspan x="50.171" y="0" class="st1" style="font-family:'Verveine-Regular'; font-size:14px;">numbers  </tspan></text>
			<circle class="st1" cx="160.399" cy="-96.389" r="2.156"/>
		</g>
		<g>
			<text transform="matrix(1 0 0 1 113.7031 -111.8872)"><tspan x="0" y="0" class="st1" style="font-family:'DINosaur-Book'; font-size:12px;">c</tspan><tspan x="5.58" y="0" class="st1" style="font-family:'DINosaur-Book'; font-size:12px;">a</tspan><tspan x="11.652" y="0" class="st1" style="font-family:'DINosaur-Book'; font-size:12px;">t</tspan><tspan x="15.564" y="0" class="st1" style="font-family:'DINosaur-Book'; font-size:12px;">egor</tspan><tspan x="39.419" y="0" class="st1" style="font-family:'DINosaur-Book'; font-size:12px;">y</tspan><tspan x="44.484" y="0" class="st1" style="font-family:'DINosaur-Book'; font-size:12px;">:</tspan><tspan x="47.472" y="0" class="st1" style="font-family:'DINosaur-Bold'; font-size:12px;"> </tspan><tspan x="50.171" y="0" class="st1" style="font-family:'Verveine-Regular'; font-size:14px;">numbers  </tspan></text>
		</g>
		<g>
			<text transform="matrix(1 0 0 1 0 -111.8872)"><tspan x="0" y="0" class="st1" style="font-family:'DINosaur-Book'; font-size:12px;">c</tspan><tspan x="5.58" y="0" class="st1" style="font-family:'DINosaur-Book'; font-size:12px;">a</tspan><tspan x="11.652" y="0" class="st1" style="font-family:'DINosaur-Book'; font-size:12px;">t</tspan><tspan x="15.564" y="0" class="st1" style="font-family:'DINosaur-Book'; font-size:12px;">egor</tspan><tspan x="39.419" y="0" class="st1" style="font-family:'DINosaur-Book'; font-size:12px;">y</tspan><tspan x="44.484" y="0" class="st1" style="font-family:'DINosaur-Book'; font-size:12px;">:</tspan><tspan x="47.472" y="0" class="st1" style="font-family:'DINosaur-Bold'; font-size:12px;"> </tspan><tspan x="50.171" y="0" class="st1" style="font-family:'Verveine-Regular'; font-size:14px;">numbers  </tspan></text>
			<circle class="st1" cx="103.547" cy="-114.043" r="2.156"/>
		</g>
	</g>
</pattern>
<pattern  id="SVGID_1_" xlink:href="#New_Pattern" patternTransform="matrix(0.792 0 0 0.792 -1642.2881 -1686.0852)">
</pattern>
<rect class="st2" width="555" height="50"/>
<g>
</g>
<g>
</g>
<g>
</g>
<g>
</g>
<g>
</g>
</svg>
