<?xml version="1.0" encoding="utf-8"?>
<!-- Generator: Adobe Illustrator 24.0.3, SVG Export Plug-In . SVG Version: 6.00 Build 0)  -->
<svg version="1.1" id="Layer_1" xmlns="http://www.w3.org/2000/svg" xmlns:xlink="http://www.w3.org/1999/xlink" x="0px" y="0px"
	 viewBox="0 0 16.737 19.225" style="enable-background:new 0 0 16.737 19.225;" xml:space="preserve">
<style type="text/css">
	.st0{fill:#B0C4DE;}
</style>
<path class="st0" d="M8.605,14.883l5.369-5.329c0.317-0.315,0.632-0.434,0.948-0.434c0.947,0,1.814,0.987,1.814,1.896
	c0,0.354-0.117,0.672-0.472,1.025l-5.921,5.921c-0.672,0.672-1.106,1.263-1.974,1.263c-0.871,0-1.305-0.591-1.974-1.263
	l-5.924-5.921C0.119,11.688,0,11.369,0,11.016c0-0.91,0.868-1.896,1.816-1.896c0.315,0,0.63,0.119,0.948,0.434l5.368,5.329
	C8.251,15.002,8.29,15.04,8.37,15.04C8.447,15.04,8.486,15.002,8.605,14.883z"/>
<path class="st0" d="M8.623,15.581H8.114c-0.853,0-1.551-0.698-1.551-1.551V1.551C6.563,0.698,7.261,0,8.114,0l0.508,0
	c0.853,0,1.551,0.698,1.551,1.551V14.03C10.173,14.883,9.475,15.581,8.623,15.581z"/>
<g>
</g>
<g>
</g>
<g>
</g>
<g>
</g>
<g>
</g>
</svg>
