<?xml version="1.0" encoding="utf-8"?>
<!-- Generator: Adobe Illustrator 25.0.0, SVG Export Plug-In . SVG Version: 6.00 Build 0)  -->
<svg version="1.1" xmlns="http://www.w3.org/2000/svg" xmlns:xlink="http://www.w3.org/1999/xlink" x="0px" y="0px"
	 viewBox="0 0 23.999 34.001" style="enable-background:new 0 0 23.999 34.001;" xml:space="preserve">
<style type="text/css">
	.st0{fill:#FFD700;}
	.st1{opacity:0.42;fill:#353232;}
	.st2{fill:#FFF7CC;}
</style>
<g id="Layer_2">
	<path class="st0" d="M23.996,4.181v2.7c0,0.7-0.57,1.28-1.28,1.28H1.28C0.57,8.161,0,7.581,0,6.881v-5.6
		c0-0.71,0.57-1.28,1.28-1.28h17.946L23.996,4.181z"/>
</g>
<g id="Layer_3">
	<path class="st1" d="M23.996,4.181v0.07c-1.07,0.14-2.15,0.28-3.23,0.42c-0.76,0.1-1.45-0.39-1.54-1.08l-0.46-3.47
		c-0.01-0.04-0.01-0.08-0.01-0.12h0.47L23.996,4.181z"/>
	<path class="st2" d="M21.12,4.565c-0.697,0.093-1.344-0.402-1.436-1.1L19.224,0l4.775,4.183L21.12,4.565z"/>
</g>
<g id="Layer_4">
	<path class="st0" d="M23.995,30.021v2.7c0,0.7-0.57,1.28-1.28,1.28H1.28c-0.71,0-1.28-0.58-1.28-1.28v-5.6
		c0-0.71,0.57-1.28,1.28-1.28h17.945L23.995,30.021z"/>
	<path class="st1" d="M23.995,30.021v0.07c-1.07,0.14-2.15,0.28-3.23,0.42c-0.76,0.1-1.45-0.39-1.54-1.08l-0.46-3.47
		c-0.01-0.04-0.01-0.08-0.01-0.12h0.47L23.995,30.021z"/>
	<path class="st2" d="M21.119,30.405c-0.697,0.093-1.344-0.402-1.436-1.1l-0.46-3.466l4.775,4.183L21.119,30.405z"/>
</g>
<g id="Layer_5">
	<path class="st0" d="M23.993,17.1v2.7c0,0.7-0.57,1.28-1.28,1.28H1.28C0.57,21.08,0,20.5,0,19.8v-5.6c0-0.71,0.57-1.28,1.28-1.28
		h17.943L23.993,17.1z"/>
	<path class="st1" d="M23.993,17.1v0.07c-1.07,0.14-2.15,0.28-3.23,0.42c-0.76,0.1-1.45-0.39-1.54-1.08l-0.46-3.47
		c-0.01-0.04-0.01-0.08-0.01-0.12h0.47L23.993,17.1z"/>
	<path class="st2" d="M21.117,17.485c-0.697,0.093-1.344-0.402-1.436-1.1l-0.46-3.466l4.775,4.183L21.117,17.485z"/>
	<g>
	</g>
	<g>
	</g>
	<g>
	</g>
	<g>
	</g>
	<g>
	</g>
</g>
</svg>
