<?xml version="1.0" encoding="utf-8"?>
<!-- Generator: Adobe Illustrator 24.0.3, SVG Export Plug-In . SVG Version: 6.00 Build 0)  -->
<svg version="1.1" id="Layer_1" xmlns="http://www.w3.org/2000/svg" xmlns:xlink="http://www.w3.org/1999/xlink" x="0px" y="0px"
	 viewBox="0 0 34.186 71.156" style="enable-background:new 0 0 34.186 71.156;" xml:space="preserve">
<style type="text/css">
	.st0{opacity:0.79;fill:url(#SVGID_1_);}
	.st1{opacity:0.58;fill:url(#SVGID_2_);}
	.st2{fill:#FFC545;stroke:#FFFFFF;stroke-width:0.5;stroke-miterlimit:10;}
</style>
<radialGradient id="SVGID_1_" cx="19.889" cy="34.1318" r="26.1665" gradientUnits="userSpaceOnUse">
	<stop  offset="0" style="stop-color:#ED1C24"/>
	<stop  offset="0.6296" style="stop-color:#E9490C;stop-opacity:0.937"/>
	<stop  offset="1" style="stop-color:#E75F00;stop-opacity:0.9"/>
</radialGradient>
<path class="st0" d="M25.268,8.776C18.71,5.851,12.151,2.925,5.592,0c4.551,8.587,9.102,17.173,13.653,25.76l-13.266-4.25
	l25.245,46.754L22.079,32.2c4.036,0.687,8.071,1.374,12.107,2.061C31.213,25.766,28.241,17.271,25.268,8.776z"/>
<radialGradient id="SVGID_2_" cx="14.2967" cy="35.3356" r="26.1665" gradientUnits="userSpaceOnUse">
	<stop  offset="0" style="stop-color:#3DDEED;stop-opacity:0"/>
	<stop  offset="1" style="stop-color:#3DDEED"/>
</radialGradient>
<path class="st1" d="M19.676,9.98C13.117,7.054,6.559,4.129,0,1.204c4.551,8.587,9.102,17.173,13.653,25.76l-13.266-4.25
	l25.245,46.754l-9.145-36.064c4.036,0.687,8.071,1.374,12.107,2.061C25.621,26.97,22.649,18.475,19.676,9.98z"/>
<path class="st2" d="M22.472,9.776C15.914,6.851,9.355,3.925,2.796,1c4.551,8.587,9.102,17.173,13.653,25.76l-13.266-4.25
	l25.245,46.754L19.282,33.2c4.036,0.687,8.071,1.374,12.107,2.061C28.417,26.766,25.445,18.271,22.472,9.776z"/>
<g>
</g>
<g>
</g>
<g>
</g>
<g>
</g>
<g>
</g>
</svg>
