<?xml version="1.0" encoding="utf-8"?>
<!-- Generator: Adobe Illustrator 25.0.0, SVG Export Plug-In . SVG Version: 6.00 Build 0)  -->
<svg version="1.1" xmlns="http://www.w3.org/2000/svg" xmlns:xlink="http://www.w3.org/1999/xlink" x="0px" y="0px"
	 viewBox="0 0 126.345 66.102" style="enable-background:new 0 0 126.345 66.102;" xml:space="preserve">
<style type="text/css">
	.st0{fill:#6387AC;}
</style>
<g id="Layer_1">
	<g>
		<g>
			<path class="st0" d="M5.965,64.041C21.3,19.65,80.412,20.467,118.511,20.304c3.86-0.017,3.868-6.017,0-6
				C77.142,14.481,16.619,14.859,0.179,62.446C-1.084,66.103,4.709,67.674,5.965,64.041L5.965,64.041z"/>
		</g>
	</g>
</g>
<g id="Layer_2">
	<g>
		<g>
			<path class="st0" d="M103.259,5.657c5.774,5.09,11.548,10.18,17.323,15.27c0.228-1.767,0.455-3.534,0.683-5.301
				c-7.26,4.66-13.182,10.715-17.637,18.104c-2.249,3.729,3.586,7.127,5.828,3.407c3.867-6.413,8.912-11.636,15.215-15.682
				c1.721-1.105,2.385-3.801,0.683-5.301c-5.774-5.09-11.548-10.18-17.323-15.27C104.785-1.978,99.993,2.778,103.259,5.657
				L103.259,5.657z"/>
		</g>
	</g>
	<g>
	</g>
	<g>
	</g>
	<g>
	</g>
	<g>
	</g>
	<g>
	</g>
</g>
</svg>
