<?xml version="1.0" encoding="utf-8"?>
<!-- Generator: Adobe Illustrator 25.0.0, SVG Export Plug-In . SVG Version: 6.00 Build 0)  -->
<svg version="1.1" id="Layer_1" xmlns="http://www.w3.org/2000/svg" xmlns:xlink="http://www.w3.org/1999/xlink" x="0px" y="0px"
	 viewBox="0 0 19.23 16.74" style="enable-background:new 0 0 19.23 16.74;" xml:space="preserve">
<style type="text/css">
	.st0{fill:#6387AC;}
</style>
<path class="st0" d="M11.02,0c0.35,0,0.67,0.12,1.02,0.47l5.92,5.92c0.68,0.67,1.27,1.11,1.27,1.98s-0.59,1.3-1.27,1.97l-5.92,5.92
	c-0.35,0.36-0.67,0.48-1.02,0.48c-0.91,0-1.9-0.87-1.9-1.82c0-0.32,0.12-0.63,0.44-0.95l3.76-3.8H1.55C0.7,10.17,0,9.47,0,8.62
	l0-0.51c0-0.85,0.7-1.55,1.55-1.55h11.77l-3.76-3.8C9.24,2.44,9.12,2.13,9.12,1.81C9.12,0.87,10.11,0,11.02,0z"/>
<g>
</g>
<g>
</g>
<g>
</g>
<g>
</g>
<g>
</g>
</svg>
