<?xml version="1.0" encoding="utf-8"?>
<!-- Generator: Adobe Illustrator 24.0.3, SVG Export Plug-In . SVG Version: 6.00 Build 0)  -->
<svg version="1.1" xmlns="http://www.w3.org/2000/svg" xmlns:xlink="http://www.w3.org/1999/xlink" x="0px" y="0px"
	 viewBox="0 0 225.198 190.757" style="enable-background:new 0 0 225.198 190.757;" xml:space="preserve">
<style type="text/css">
	.st0{display:none;}
	.st1{display:inline;}
	.st2{fill:none;stroke:#D5DFEF;stroke-linecap:round;stroke-linejoin:round;stroke-dasharray:1.0011,6.0065,4.0043,6.0065;}
	.st3{display:inline;fill:#FFFFFF;}
	.st4{fill:#3E2F4F;}
	.st5{fill:#2A9786;}
	.st6{fill:url(#SVGID_1_);}
	.st7{fill:url(#stripe_1_);}
	.st8{fill:#A6E6D6;}
	.st9{fill:none;}
	.st10{fill:none;stroke:#6D675D;stroke-width:0.5;stroke-linecap:round;stroke-linejoin:round;stroke-miterlimit:10;}
	.st11{fill:url(#SVGID_2_);}
	.st12{fill:url(#SVGID_3_);}
	.st13{fill:url(#SVGID_4_);}
	.st14{fill:url(#SVGID_5_);stroke:#2A8686;stroke-miterlimit:10;}
	.st15{fill:url(#SVGID_6_);}
	.st16{fill:#010400;}
	.st17{fill:url(#SVGID_7_);}
	.st18{fill:url(#SVGID_8_);}
	.st19{display:none;fill:url(#SVGID_9_);}
	.st20{fill:url(#SVGID_10_);}
	.st21{fill:url(#SVGID_11_);}
	.st22{fill:#2AAD86;}
</style>
<g id="Layer_2_copy_3" class="st0">
	<g class="st1">
		
			<ellipse transform="matrix(0.5318 -0.8469 0.8469 0.5318 -31.2059 136.2735)" class="st2" cx="107.637" cy="96.358" rx="89.778" ry="88.98"/>
	</g>
	<g id="Layer_30">
		
			<ellipse transform="matrix(0.483 -0.8756 0.8756 0.483 -20.7342 58.023)" class="st3" cx="38.768" cy="46.57" rx="33.667" ry="22.785"/>
	</g>
</g>
<g id="Layer_2_copy_2">
	<circle class="st4" cx="112.298" cy="98.679" r="87.264"/>
</g>
<g id="Layer_3">
	<g id="Layer_7">
		<path class="st5" d="M124.911,23.934c0.083-0.055-0.109-1.461-0.112-1.591c-0.161-5.618,1.837-11.424,5.563-15.651
			c1.886-2.139,4.245-3.869,6.935-4.848c3.479-1.267,6.061-0.913,9.447,0.358c3.203,1.203,7.147,0.855,10.472,0.302
			C157.696,2.423,125.026,23.858,124.911,23.934z"/>
	</g>
	
		<radialGradient id="SVGID_1_" cx="128.6873" cy="92.7352" r="115.1229" gradientTransform="matrix(0.6858 -0.7278 0.7514 0.708 -29.2449 120.7339)" gradientUnits="userSpaceOnUse">
		<stop  offset="0" style="stop-color:#2A97A1"/>
		<stop  offset="0.0525" style="stop-color:#2A9C9B"/>
		<stop  offset="0.2184" style="stop-color:#2AA68F"/>
		<stop  offset="0.4446" style="stop-color:#2AAB88"/>
		<stop  offset="1" style="stop-color:#2AAD86"/>
	</radialGradient>
	<path class="st6" d="M223.044,93.628c-1.63,5.42-4.08,10.54-6.77,15.5c-1.35,2.48-2.24,4.47-2.82,6.56
		c-0.89,3.17-0.74,5.06-1.02,7.3c-0.53,4.2-2.2,7.05-4.7,11.32c-10.05,17.17-23.23,32.44-40.73,42.17
		c-17.97,10-38.69,14.93-59.24,14.21c-18.67-0.66-41.91-5.48-53.87-21.3c-0.58-0.76-1.14-1.53-1.55-2.41
		c-5.43-11.56,8.08-21.79,18.81-18.27c6.06,1.99,15.22,11.82,6.73,16.84c-2.13,1.26-4.89,1.36-7.11,0.27
		c-1.47-0.73-7.26-5.66-4.4-6.9c0.01,0,0.02-0.01,0.03-0.01c1.47-0.59,4.18,2.02,5.68,2.17c6.42,0.63,0.13-10.28-7.31-7.42
		c-6.43,2.48-6.05,9.1-2.3,13.85c4.87,6.19,14.12,9.26,21.52,10.92c10.11,2.26,20.53,3.14,30.88,2.78
		c32.58-1.13,62.88-16.67,77.14-47.33c8.19-17.61,9.86-45.4-10.63-55.79c-3.6-1.82-7.43-2.93-11.34-3.8
		c-7.46-1.66-15.23-2.48-22.3-5.88c-10.74-5.17-22.25-14.02-27.47-25.04c-0.44-0.92-0.75-1.88-0.95-2.85
		c-0.05-0.17-0.08-0.33-0.11-0.5c-0.18-1.01-0.24-2.04-0.2-3.08c0.03-0.99,0.16-1.99,0.36-2.99c1.2-5.78,5.13-11.36,9.47-14.43
		c8.65-6.12,17.42-13.2,27.47-16.98c2.19-0.82,4.43-1.49,6.75-1.95c6.43-1.29,13.01-0.36,19.14,1.83
		c4.61,1.66,18.31,5.55,15.94,12.21c-0.05,0.14-0.11,0.32-0.17,0.54c-0.72,2.44-2.03,9.1,0.24,10.3c0.41,0.21,0.88,0.2,1.4,0.04
		c1.64-0.47,3.68-2.3,5.26-2.19c4.67,0.31,7.97,6.49,10.1,10.08c3.26,5.51,5.73,11.54,7.15,17.79
		C225.554,66.248,226.464,82.218,223.044,93.628z"/>
	<radialGradient id="stripe_1_" cx="166.8418" cy="94.7154" r="85.4009" gradientUnits="userSpaceOnUse">
		<stop  offset="0.4662" style="stop-color:#2A97A1"/>
		<stop  offset="0.53" style="stop-color:#47AAAD"/>
		<stop  offset="0.6194" style="stop-color:#69BFBC"/>
		<stop  offset="0.7107" style="stop-color:#84D0C7"/>
		<stop  offset="0.8035" style="stop-color:#97DCD0"/>
		<stop  offset="0.8987" style="stop-color:#A2E4D4"/>
		<stop  offset="1" style="stop-color:#A6E6D6"/>
	</radialGradient>
	<path id="stripe" class="st7" d="M223.044,93.628c-1.63,5.42-4.08,10.54-6.77,15.5c-1.35,2.48-2.24,4.47-2.82,6.56
		c-0.89,3.17-0.74,5.06-1.02,7.3c-0.53,4.2-2.2,7.05-4.7,11.32c-10.05,17.17-23.23,32.44-40.73,42.17
		c-17.97,10-38.69,14.93-59.24,14.21c-18.67-0.66-41.91-5.48-53.87-21.3c-0.58-0.76-1.14-1.53-1.55-2.41
		c-5.43-11.56,8.08-21.79,18.81-18.27c6.06,1.99,15.22,11.82,6.73,16.84c-2.13,1.26-4.89,1.36-7.11,0.27
		c-1.47-0.73-7.26-5.66-4.4-6.9c0.01,0,0.02-0.01,0.03-0.01c-0.01,0.59,0.01,1.08,0.06,1.2c0.15,0.37,0.39,0.68,0.64,0.99
		c0.69,0.88,1.38,1.76,2.21,2.49c1.7,1.51,4.29,2.18,6.51,1.61c1.67-0.42,3.08-1.73,3.63-3.36c0.95-2.81-0.98-5.56-2.76-7.58
		c-1.89-2.14-4.39-3.67-7.18-4.28c-6.36-1.41-15.23,2.43-16.63,9.36c-1.27,6.32,3.95,12.13,8.54,15.69
		c4.36,3.39,9.29,6.19,14.41,8.21c10.87,4.3,22.71,5.48,34.31,5.73c4.72,0.1,9.45-0.06,14.15-0.52c0.72-0.07,1.43-0.15,2.14-0.24
		c8.24-1.02,16.12-3.12,23.92-5.95c6.14-2.22,12.17-4.81,17.82-8.12c2.69-1.58,5.29-3.33,7.75-5.26c7.25-5.7,14-12.13,19.59-19.49
		c4.02-5.29,7.18-10.76,9.93-16.79c2.74-5.94,4.53-12.02,6.53-18.2c1.16-3.52,3.06-6.75,4.71-10.05c1.68-3.39,3.24-6.84,4.46-10.42
		c1.65-4.89,2.29-10.07,2.46-15.21c0.22-6.7-0.81-13.56-2.06-20.13c-1.29-6.73-2.9-13.39-5.78-19.64c-0.2-0.45-0.41-0.89-0.62-1.33
		c-1.201-2.481-2.493-4.923-3.98-7.245c-1.285-2.007-2.882-4.228-5.149-5.193c-1.725-0.734-4.593,0.069-6.401,0.329
		c1.64-0.47,3.68-2.3,5.26-2.19c4.67,0.31,7.97,6.49,10.1,10.08c3.26,5.51,5.73,11.54,7.15,17.79
		C225.554,66.248,226.464,82.218,223.044,93.628z"/>
	<g id="mouth">
		<path class="st8" d="M175.224,58.408c-1.35,1.51-3.27,2.38-5.29,2.73c-0.57,0.1-1.15,0.15-1.73,0.17
			c-5.72,0.15-12.04-2.36-17.31-4.36c-5.82-2.2-11.44-4.91-16.96-7.77c-1.38-0.72-10.16-5.26-14.61-8.66
			c-0.05-0.17-0.08-0.33-0.11-0.5c-0.18-1.01-0.24-2.04-0.2-3.08c3.92,0.9,11.54,5.75,12.65,6.39c7.14,4.15,13.86,7.68,21.58,10.78
			c5.59,2.24,12.04,4.89,17.87,1.89c0.63-0.33,1.25-0.72,1.94-0.92C175.364,54.388,176.844,56.588,175.224,58.408z"/>
		<g id="Layer_22">
			<line class="st9" x1="119.042" y1="38.634" x2="119.043" y2="38.634"/>
			<path class="st10" d="M119.059,38.851c13.264,7.084,25.819,15.741,40.572,19.579c2.589,0.673,5.068,1.133,7.712,0.786
				c2.553-0.336,5.011-1.196,7.267-2.43"/>
		</g>
	</g>
	<g id="Layer_4">
		<linearGradient id="SVGID_2_" gradientUnits="userSpaceOnUse" x1="176.9265" y1="124.0235" x2="213.5777" y2="140.5515">
			<stop  offset="0" style="stop-color:#2A8686"/>
			<stop  offset="1" style="stop-color:#2A9786"/>
		</linearGradient>
		<path class="st11" d="M189.377,128.884c2.744,1.382,6.991-1.527,9.504-2.422c3.638-1.296,7.139-2.975,10.426-5.002
			c2.186-1.348,4.833-3.414,7.52-2.968c6.886,1.142,2.914,10.439-0.388,13.346c-1.116,0.982-2.444,1.687-3.76,2.38
			c-4.78,2.514-9.611,4.927-14.408,7.408c-2.671,1.381-5.25,2.927-7.882,4.379c-2.198,1.212-5.109,3.352-7.731,3.161
			c-1.108-0.081-2.173-0.445-3.22-0.816c-3.248-1.152-6.58-2.305-9.678-3.826c-0.551-0.271-1.153-0.628-1.284-1.228
			c-0.2-0.917,0.798-1.612,1.658-1.988c5.189-2.267,10.501-2.806,14.922-6.697c0.793-0.698,1.591-1.593,1.522-2.647
			c-0.054-0.824-0.641-1.521-1.299-2.02c-2.458-1.865-4.726-3.527-6.521-6.118c-0.264-0.382-0.504-0.938-0.174-1.264
			c0.183-0.181,0.469-0.198,0.726-0.189c4.711,0.165,6.368,4.504,9.981,6.468C189.318,128.854,189.347,128.869,189.377,128.884z"/>
	</g>
	<g id="Layer_5_copy">
		
			<radialGradient id="SVGID_3_" cx="204.5335" cy="67.852" r="31.358" fx="174.876" fy="78.038" gradientTransform="matrix(-0.1984 -0.9801 0.7407 -0.1499 194.85 278.4929)" gradientUnits="userSpaceOnUse">
			<stop  offset="0" style="stop-color:#2A9786"/>
			<stop  offset="0.4245" style="stop-color:#2A9B86"/>
			<stop  offset="0.8674" style="stop-color:#2AA886"/>
			<stop  offset="1" style="stop-color:#2AAD86"/>
		</radialGradient>
		<path class="st12" d="M207.903,88.891c-1.307-4.237-2.67-8.457-3.916-12.713c-0.616-2.104-1.203-4.216-1.739-6.341
			c-0.492-1.951-1.276-4.088-1.045-6.119c0.248-2.183,0.628-4.357,1.27-6.46c0.345-1.13,1.304-4.196,2.923-4
			c0.599,0.072,0.959,0.682,1.221,1.225c2.849,5.905,5.272,12.108,7.738,18.183c1.603,3.947,3.366,8.002,4.032,12.236
			c0.268,1.676,0.836,4.33-0.302,5.801c-0.779,1.007-2.099,1.264-3.107,1.417c-0.692,0.105-2.04,0.407-2.7,0.036
			C211.77,91.868,207.903,88.891,207.903,88.891z"/>
	</g>
	<g id="Layer_6_copy">
		<linearGradient id="SVGID_4_" gradientUnits="userSpaceOnUse" x1="165.0061" y1="84.0725" x2="208.3806" y2="103.6324">
			<stop  offset="0" style="stop-color:#2A8686"/>
			<stop  offset="1" style="stop-color:#2A9786"/>
		</linearGradient>
		<path class="st13" d="M172.082,83.535c4.59-0.185,9.181-0.357,13.772-0.522c3.203-0.115,7.115-0.267,14.942-0.487
			c5.396-0.151,11.814-1.442,16.151,2.654c1.163,1.099,2.109,2.679,1.741,4.236c-0.192,0.811-0.719,1.504-1.314,2.088
			c-5.722,5.617-15.774,5.127-23.038,4.245c-6.337-0.769-12.679-1.498-18.997-2.412c-1.69-0.245-3.42-0.796-5.041,0.015
			c-0.963,0.53-1.68,1.502-2.391,2.315c-1.372,1.471-2.507,3.127-3.837,4.632c-1.257,1.423-3.059,3.043-5.05,3.221
			c-1.636,0.146-3.721-0.542-4.526-2.059c-0.786-1.482-0.736-3.294-0.238-4.895c0.533-1.713,4.764-6.77,3.785-8.449
			c-0.184-0.315-0.477-0.585-0.905-0.791c-0.482-0.231-1.011-0.34-1.524-0.488c-1.194-0.346-2.384-0.975-3.001-2.054
			c-0.485-0.848-0.072-1.399,0.816-1.418c5.276-0.113,10.553,0.268,15.836,0.213C170.419,83.567,171.388,83.549,172.082,83.535z"/>
	</g>
	<g id="Layer_13">
		<radialGradient id="SVGID_5_" cx="162.2862" cy="21.7222" r="23.1097" gradientUnits="userSpaceOnUse">
			<stop  offset="0.1532" style="stop-color:#A6E6D6"/>
			<stop  offset="0.1767" style="stop-color:#8CC6C8"/>
			<stop  offset="0.2136" style="stop-color:#699AB4"/>
			<stop  offset="0.2492" style="stop-color:#4E78A4"/>
			<stop  offset="0.2829" style="stop-color:#3A5F99"/>
			<stop  offset="0.3136" style="stop-color:#2E5092"/>
			<stop  offset="0.3388" style="stop-color:#2A4B90"/>
			<stop  offset="0.7309" style="stop-color:#2A8686"/>
		</radialGradient>
		<ellipse class="st14" cx="166.467" cy="23.389" rx="16.178" ry="14.6"/>
		<radialGradient id="SVGID_6_" cx="162.2944" cy="20.8401" r="5.5614" fx="158.498" fy="17.3933" gradientUnits="userSpaceOnUse">
			<stop  offset="0.1015" style="stop-color:#E9E79B"/>
			<stop  offset="0.9438" style="stop-color:#BCBF47"/>
		</radialGradient>
		<path class="st15" d="M157.134,22.677c-0.276-0.789-0.695-1.983-0.298-3.418c0.447-1.617,1.639-2.489,2.091-2.82
			c1.572-1.151,3.883-1.346,5.72-0.831c2.401,0.674,3.426,2.639,3.249,5.059c-0.061,0.831-0.496,3.055-0.661,3.266
			c-0.793,1.017-1.811,1.5-2.784,1.882c-0.531,0.209-1.295,0.5-2.338,0.522c-0.567,0.012-1.803,0.037-2.977-0.732
			C157.869,24.776,157.428,23.516,157.134,22.677z"/>
		<ellipse class="st16" cx="162.576" cy="21.269" rx="3.565" ry="3.266"/>
		<radialGradient id="SVGID_7_" cx="161.6559" cy="22.2651" r="6.4293" fx="155.9166" fy="20.7813" gradientUnits="userSpaceOnUse">
			<stop  offset="0.3676" style="stop-color:#BCBF47"/>
			<stop  offset="0.8253" style="stop-color:#E9E79B"/>
		</radialGradient>
		<path class="st17" d="M157.024,18.929c0.117-0.005,0.244,0.231,0.32,0.498c0.691,2.451,2.511,4.74,5.215,4.923
			c0.656,0.044,1.331-0.068,1.905-0.388c0.807-0.45,1.325-1.244,1.861-1.969c0.247-0.334,0.538-0.638,0.765-0.985
			c0.051-0.078,0.715-1.003,0.733-0.964c0.088,0.191,0.068,0.442,0.063,0.65c-0.03,1.172-0.157,2.34-0.762,3.367
			c-0.565,0.96-1.384,1.743-2.369,2.265c-1.053,0.559-2.257,0.812-3.449,0.779c-0.848-0.024-1.702-0.193-2.457-0.58
			c-1.828-0.936-2.465-2.975-2.287-4.916c0.048-0.519,0.128-1.033,0.195-1.55c0.035-0.266,0.025-0.536,0.08-0.801
			C156.885,19.026,156.952,18.933,157.024,18.929z"/>
		
			<radialGradient id="SVGID_8_" cx="161.9529" cy="31.4311" r="13.3254" gradientTransform="matrix(0.9996 0.0278 -0.0278 0.9996 1.0694 -4.5109)" gradientUnits="userSpaceOnUse">
			<stop  offset="0.1532" style="stop-color:#A6E6D6"/>
			<stop  offset="1" style="stop-color:#2A8686"/>
		</radialGradient>
		<path class="st18" d="M150.3,23.437c-0.071,0.499-0.331,0.956-0.397,1.453c-0.102,0.763-0.071,1.545,0.07,2.3
			c0.621,3.316,3.875,6.493,6.522,8.372c1.96,1.391,7.017,3.739,13.167,3.677c1.451-0.015,3.86-0.987,4.673-2.237
			c-1.355-0.527-3.387-0.196-4.841-0.196c-1.925,0-3.222-0.111-4.168-0.237c0,0-0.669-0.09-1.269-0.202
			C157.493,35.141,151.819,29.981,150.3,23.437z"/>
		
			<radialGradient id="SVGID_9_" cx="175.537" cy="32.8229" r="7.7548" gradientTransform="matrix(0.9535 -0.3015 0.3015 0.9535 -1.5072 54.1862)" gradientUnits="userSpaceOnUse">
			<stop  offset="0.2511" style="stop-color:#E6E6E6"/>
			<stop  offset="0.2606" style="stop-color:#E1E6E5"/>
			<stop  offset="0.3121" style="stop-color:#CBE6DF"/>
			<stop  offset="0.3729" style="stop-color:#BAE6DB"/>
			<stop  offset="0.4482" style="stop-color:#AFE6D8"/>
			<stop  offset="0.5537" style="stop-color:#A8E6D6"/>
			<stop  offset="0.8468" style="stop-color:#A6E6D6"/>
		</radialGradient>
		<path class="st19" d="M167.89,39.554c-0.082-0.311,5.443-2.65,6.022-2.965c2.583-1.402,5.7-3.263,6.931-6.059
			c0.248-0.564,1.397-5.734,1.871-5.704c1.614,0.102,1.493,4.859,1.332,5.756c-0.45,2.502-2.295,4.517-4.401,5.83
			C178.709,36.994,168.304,41.126,167.89,39.554z"/>
		
			<radialGradient id="SVGID_10_" cx="162.5921" cy="16.9759" r="11.7562" gradientTransform="matrix(0.9942 0.1074 -0.1074 0.9942 2.7251 -17.3944)" gradientUnits="userSpaceOnUse">
			<stop  offset="0.1532" style="stop-color:#A6E6D6"/>
			<stop  offset="1" style="stop-color:#2A8686"/>
		</radialGradient>
		<path class="st20" d="M148.425,25.651c0.633-1.029,1.568-2.531,2.73-4.335c1.271-1.974,1.895-2.971,2.398-3.626
			c1.769-2.305,3.96-4.325,6.654-5.485c6.917-2.978,13.866-2.052,16.188-0.902c-1.236-1.754-2.492-2.87-4.609-3.402
			c-7.363-1.848-16.342,0.768-20.214,7.612c-1.06,1.874-1.955,4.036-1.955,4.037C148.736,22.015,148.489,24.184,148.425,25.651z"/>
		<g id="Layer_24">
			<radialGradient id="SVGID_11_" cx="177.3407" cy="23.5768" r="11.9463" gradientUnits="userSpaceOnUse">
				<stop  offset="0.1965" style="stop-color:#A6E6D6"/>
				<stop  offset="0.4885" style="stop-color:#77C1B7"/>
				<stop  offset="0.9804" style="stop-color:#2A8686"/>
			</radialGradient>
			<path class="st21" d="M172.328,9.574c3.54,2.202,7.05,4.585,8.425,8.722c1.222,3.677,1.063,8.019-0.72,11.491
				c-0.501,0.977-1.141,1.884-1.921,2.658c-0.617,0.612-7.405,6.407-7.267,6.597c0.228,0.317,6.504-2.004,10.059-7.182
				c3.512-5.116,4.765-13.597,0.334-18.848c-3.726-4.416-10.407-5.286-10.627-4.812C170.521,8.39,171.394,8.993,172.328,9.574z"/>
		</g>
	</g>
</g>
<g id="Layer_15_copy">
	<g>
		<g>
			<g>
				<path class="st22" d="M17.435,68.268c1.983,0.08,3.802,0.132,5.298,0.009c1.48-0.122,2.346-0.404,2.566-0.829
					c0.38-0.784,0.288-1.616-0.268-2.558c-0.556-0.941-1.258-1.855-2.113-2.747c-0.577-0.569-1.164-1.11-1.742-1.622
					c-0.562-0.498-1.06-0.931-1.498-1.269c-0.033-0.217-0.04-0.439,0.005-0.623c0.045-0.182,0.174-0.364,0.346-0.517
					c0.848,0.658,1.866,1.541,3.027,2.61c1.17,1.078,2.08,2.212,2.74,3.365c0.329,0.629,0.546,1.256,0.651,1.891
					c0.047,0.342,0.038,0.683-0.029,1.026c-0.057,0.294-0.143,0.57-0.261,0.829c-0.56,1.147-1.474,2.023-2.779,2.657
					s-2.843,1.048-4.523,1.283c-0.894,0.125-1.88,0.191-2.875,0.179c-0.672-0.009-1.374-0.028-2.074-0.087
					c-0.364-0.031-0.546-0.047-0.911-0.078c-1.232-0.167-2.436-0.416-3.604-0.75c-1.189-0.34-2.295-0.763-3.301-1.28
					c-1.877-0.986-3.326-2.25-4.274-3.775c-0.691-1.111-0.921-2.318-0.691-3.537c0.081-0.43,0.23-0.883,0.448-1.358
					c0.391-0.846,1.115-1.22,2.152-1.129c1.037,0.092,2.207,0.524,3.487,1.158c0.677,0.335,1.398,0.746,2.108,1.225
					c0.729,0.493,1.443,1,2.129,1.523c1.342,1.074,2.569,2.188,3.693,3.338c0.305,0.322,0.588,0.651,0.847,0.988
					C16.481,68.233,16.972,68.25,17.435,68.268z M11.059,65.397c-1.2-0.878-2.409-1.687-3.635-2.375
					c-1.226-0.687-2.275-1.175-3.154-1.429c-0.451-0.13-0.867-0.214-1.181-0.191c-0.302,0.022-0.54,0.181-0.658,0.413
					c-0.452,0.825-0.335,1.625,0.314,2.353c0.638,0.715,1.62,1.373,2.932,1.911c0.687,0.282,1.461,0.531,2.304,0.755
					c0.843,0.225,1.728,0.456,2.609,0.627c1.104,0.214,2.281,0.358,3.445,0.494c0.042,0.006,0.063,0.009,0.104,0.015
					C13.203,67.068,12.169,66.209,11.059,65.397z"/>
				<path class="st22" d="M20.919,55.721c0.683,0.248,1.375,0.427,2.039,0.566c1.23,0.258,2.38,0.388,3.403,0.337
					c1.023-0.051,1.75-0.348,2.176-0.9c0.392-0.508,0.616-1.063,0.703-1.62c0.086-0.55,0.089-1.145-0.026-1.765
					c-0.223-1.095-0.712-2.214-1.472-3.375c-0.76-1.16-1.506-2.178-2.263-3.028c0.016-0.216,0.07-0.427,0.172-0.581
					c0.103-0.155,0.279-0.292,0.48-0.401c0.43,0.516,0.907,1.09,1.363,1.707c0.45,0.61,0.861,1.282,1.244,1.943
					c0.739,1.279,1.221,2.568,1.461,3.88c0.163,0.941,0.064,1.812-0.301,2.645c-0.168,0.383-0.38,0.76-0.635,1.136
					c-0.77,1.072-1.627,1.913-2.537,2.537c-0.914,0.628-1.877,1.123-2.892,1.398c-1.57,0.412-3.133,0.446-4.69,0.009
					c-0.384-0.108-0.782-0.248-1.195-0.426c-1.952-0.852-3.425-2.169-4.332-4.014c-0.485-1.015-0.742-2.142-0.778-3.343
					c-0.033-1.103,0.176-2.246,0.654-3.378c0.045-0.107,0.068-0.161,0.114-0.268c0.538-1.14,1.3-1.665,2.189-1.545
					c0.88,0.119,1.72,0.689,2.507,1.616c0.419,0.492,0.835,1.089,1.177,1.758c0.343,0.67,0.63,1.443,0.856,2.219
					c0.222,0.763,0.365,1.585,0.45,2.434c0.013,0.168,0.019,0.252,0.033,0.42C20.86,55.699,20.88,55.707,20.919,55.721z
					 M19.804,55.086c-0.24-0.979-0.536-1.861-0.901-2.647c-0.699-1.461-1.501-2.547-2.463-3.208
					c-0.943-0.648-1.564-0.665-1.862-0.034c-0.474,1.005-0.258,2.088,0.669,3.123c0.918,1.026,2.261,1.851,3.687,2.587
					c0.304,0.157,0.615,0.333,0.914,0.471C19.833,55.28,19.819,55.183,19.804,55.086z"/>
				<path class="st22" d="M17.721,44.073c-0.261-0.458-0.289-1.031-0.072-1.712c0.067-0.217,0.148-0.409,0.242-0.576
					c0.235-0.415,0.587-0.765,1.051-1.042c0.081,0.233,0.928,0.422,2.471,0.665c1.532,0.24,3.209,0.479,4.932,0.735
					c1.381,0.206,2.681,0.412,3.827,0.595c1.135,0.18,1.842,0.305,2.105,0.298c-0.169-0.247-0.646-0.934-1.399-2.089
					c-0.753-1.155-1.554-2.433-2.39-3.846c-0.455-0.753-0.893-1.507-1.311-2.262c-0.418-0.754-0.792-1.449-1.125-2.08
					c0.066-0.267,0.226-0.518,0.482-0.751c0.256-0.232,0.531-0.285,0.823-0.158c-0.047,0.164,0.181,0.811,0.729,1.866
					c0.543,1.045,1.222,2.259,2.013,3.548c0.967,1.575,1.994,3.125,3.008,4.628c1.014,1.504,1.621,2.467,1.775,2.941
					c-0.017,0.024-0.026,0.036-0.043,0.061c-0.1,0.142-0.296,0.402-0.588,0.724c-0.36,0.397-0.8,0.646-1.253,0.74
					c-0.883,0.026-1.874,0.008-2.942-0.081C29,46.19,27.9,46.06,26.787,45.921c-2.043-0.265-3.975-0.586-5.752-0.96
					c-1.69-0.356-2.796-0.613-3.252-0.854C17.758,44.093,17.746,44.086,17.721,44.073z"/>
				<path class="st22" d="M36.657,31.487c0.504,0.523,1.048,0.988,1.582,1.405c0.991,0.773,1.965,1.396,2.905,1.801
					c0.94,0.405,1.722,0.459,2.346,0.151c0.575-0.284,1.02-0.684,1.344-1.147c0.32-0.457,0.585-0.991,0.756-1.6
					c0.284-1.084,0.341-2.308,0.174-3.688c-0.168-1.38-0.385-2.625-0.688-3.724c0.111-0.189,0.254-0.355,0.416-0.45
					c0.162-0.095,0.384-0.142,0.614-0.153c0.156,0.654,0.33,1.382,0.464,2.139c0.133,0.748,0.202,1.534,0.252,2.3
					c0.095,1.478-0.046,2.852-0.411,4.141c-0.271,0.92-0.744,1.661-1.438,2.249c-0.32,0.271-0.675,0.516-1.069,0.741
					c-1.161,0.623-2.295,0.998-3.382,1.154c-1.092,0.157-2.169,0.172-3.197-0.032c-1.584-0.328-2.998-0.991-4.204-2.069
					c-0.297-0.265-0.593-0.567-0.886-0.908c-1.38-1.621-2.132-3.443-2.145-5.488c0.005-1.119,0.264-2.238,0.755-3.329
					c0.451-1.002,1.138-1.934,2.063-2.74c0.088-0.076,0.132-0.114,0.219-0.19c0.984-0.788,1.901-0.926,2.647-0.428
					c0.739,0.493,1.242,1.374,1.541,2.554c0.16,0.627,0.27,1.346,0.284,2.098c0.014,0.753-0.068,1.573-0.205,2.369
					c-0.135,0.783-0.366,1.581-0.659,2.379c-0.062,0.156-0.092,0.234-0.153,0.39C36.613,31.441,36.628,31.457,36.657,31.487z
					 M35.934,30.427c0.211-0.981,0.331-1.902,0.347-2.768c0.013-1.618-0.231-2.947-0.805-3.963
					c-0.562-0.996-1.114-1.284-1.658-0.849c-0.867,0.694-1.146,1.76-0.766,3.096c0.376,1.323,1.221,2.653,2.179,3.94
					c0.204,0.275,0.406,0.569,0.614,0.824C35.874,30.614,35.904,30.521,35.934,30.427z"/>
				<path class="st22" d="M47.434,22.741c1.209,1.575,2.332,3.005,3.384,4.075c1.04,1.059,1.809,1.545,2.275,1.442
					c0.843-0.21,1.423-0.814,1.793-1.846c0.369-1.032,0.628-2.16,0.772-3.391c0.072-0.809,0.117-1.609,0.145-2.384
					c0.028-0.754,0.046-1.415,0.029-1.969c0.149-0.166,0.32-0.315,0.494-0.4c0.173-0.084,0.4-0.102,0.633-0.071
					c0.029,1.076-0.01,2.429-0.099,4.01c-0.09,1.594-0.39,3.025-0.861,4.275c-0.276,0.658-0.622,1.228-1.043,1.716
					c-0.233,0.256-0.501,0.467-0.806,0.636c-0.262,0.145-0.528,0.255-0.801,0.33c-1.234,0.302-2.481,0.156-3.793-0.447
					s-2.604-1.525-3.854-2.67c-0.665-0.609-1.344-1.326-1.97-2.1c-0.423-0.523-0.857-1.074-1.26-1.65
					c-0.209-0.3-0.314-0.45-0.524-0.749c-0.662-1.053-1.245-2.135-1.741-3.243c-0.505-1.128-0.894-2.244-1.149-3.343
					c-0.459-2.063-0.434-3.975,0.114-5.672c0.4-1.237,1.171-2.182,2.251-2.785c0.381-0.213,0.824-0.389,1.329-0.527
					c0.901-0.243,1.656,0.071,2.252,0.925c0.596,0.854,1.013,2.03,1.346,3.419c0.176,0.735,0.323,1.552,0.409,2.404
					c0.089,0.875,0.158,1.749,0.196,2.61c0.037,1.718-0.027,3.372-0.182,4.967c-0.049,0.439-0.118,0.866-0.207,1.278
					C46.85,21.985,47.152,22.373,47.434,22.741z M45.535,16.016c-0.099-1.481-0.255-2.928-0.514-4.309
					c-0.259-1.381-0.557-2.499-0.926-3.336c-0.189-0.429-0.392-0.802-0.611-1.029c-0.21-0.218-0.486-0.298-0.74-0.24
					c-0.923,0.182-1.459,0.783-1.598,1.746c-0.136,0.946-0.008,2.119,0.423,3.469c0.226,0.707,0.533,1.46,0.902,2.25
					c0.369,0.791,0.76,1.617,1.194,2.402c0.544,0.985,1.188,1.98,1.829,2.961c0.022,0.036,0.033,0.054,0.055,0.09
					C45.636,18.727,45.627,17.386,45.535,16.016z"/>
			</g>
		</g>
	</g>
	<g>
	</g>
	<g>
	</g>
	<g>
	</g>
	<g>
	</g>
	<g>
	</g>
</g>
</svg>
