<?xml version="1.0" encoding="utf-8"?>
<!-- Generator: Adobe Illustrator 24.0.3, SVG Export Plug-In . SVG Version: 6.00 Build 0)  -->
<svg version="1.1" id="Layer_1" xmlns="http://www.w3.org/2000/svg" xmlns:xlink="http://www.w3.org/1999/xlink" x="0px" y="0px"
	 viewBox="0 0 27.305 22.737" style="enable-background:new 0 0 27.305 22.737;" xml:space="preserve">
<style type="text/css">
	.st0{fill:#FFFFFF;}
</style>
<path class="st0" d="M16.014,16.3c-0.01-0.03-0.01-0.06-0.02-0.09c-0.25-0.19-0.49-0.4-0.71-0.6c-0.91-0.83-1.92-1.84-2.28-3.37
	c-0.26-1.06-0.25-2.17-0.18-3.26c-0.3-0.55-0.62-1.1-0.94-1.65c-0.35-0.61-0.82-1.29-1.43-1.45c-0.83-0.21-1.41,0.54-1.85,1.18
	c-0.68,0.99-1.45,1.86-2.27,2.67c-0.34,0.34-0.74,0.61-1.18,0.79c-1.07,0.43-2.16,0.8-3.33,1.04c-0.77,0.16-1.69,0.4-1.81,1.24
	c-0.1,0.64,0.35,1.32,0.77,1.9c1.1,1.5,2.3,2.94,3.54,4.31c1.01,1.12,2.03,2.32,3.3,3.07c1.21,0.71,2.51,0.7,3.73,0.62
	c0.85-0.06,1.72-0.16,2.39-0.62c0.73-0.5,1.16-1.36,1.55-2.21C15.794,18.79,16.254,17.66,16.014,16.3z M6.184,15.9
	c-1.36,0.91-3.4-0.45-3.34-0.76c0.04-0.24,1.32,0.2,2.46-0.56c1.14-0.76,1.22-2.09,1.46-2.04C7.064,12.6,7.544,14.99,6.184,15.9z
	 M7.574,12c0.05-0.24,1.32,0.2,2.47-0.56c1.13-0.76,1.21-2.09,1.45-2.04c0.31,0.06,0.78,2.45-0.57,3.36
	C9.554,13.67,7.524,12.3,7.574,12z M11.544,18.81c-2.21,1.46-2.69,2.89-3.2,2.63c-0.79-0.41-1.14-4.46,1.04-5.88
	c2.16-1.42,5.72,0.47,5.78,1.35C15.204,17.49,13.734,17.37,11.544,18.81z"/>
<g>
	<path class="st0" d="M27.134,2.94c-0.27-0.47-0.74-0.6-1.25-0.6c-0.29,0-0.6,0.04-0.88,0.09c-1,0.16-1.97,0.22-2.94,0.22
		c-0.19,0-0.37,0-0.56-0.01c-0.48-0.01-0.95-0.11-1.39-0.31c-1.05-0.47-2.07-1-3.06-1.68C16.604,0.34,16.064,0,15.544,0
		c-0.21,0-0.43,0.06-0.63,0.21c-0.53,0.37-0.71,1.16-0.84,1.86c-0.32,1.84-0.53,3.7-0.66,5.54c-0.05,0.74-0.11,1.49-0.13,2.23
		c-0.01,0.78,0.03,1.55,0.2,2.29c0.33,1.35,1.23,2.29,2.14,3.11c0.05,0.05,0.11,0.09,0.16,0.14c0.58,0.52,1.21,1,1.94,1.16
		c0.19,0.04,0.38,0.05,0.57,0.05c0.69,0,1.4-0.23,2.09-0.46c1.13-0.39,2.27-0.85,3.08-1.96c0.88-1.21,1.41-2.69,1.95-4.11
		c0.63-1.66,1.18-3.36,1.66-5.08C27.274,4.3,27.444,3.5,27.134,2.94z M14.644,6.27c-0.16-0.27,1.25-2.28,2.86-1.91
		c1.59,0.37,2,2.76,1.73,2.93c-0.2,0.14-0.75-1.08-2.09-1.38C15.804,5.6,14.774,6.47,14.644,6.27z M18.244,14.09
		c-2.54-0.55-3.67-4.46-3.08-5.11c0.39-0.44,1.35,0.73,3.93,1.3c2.56,0.56,3.9-0.07,4.06,0.48
		C23.414,11.61,20.774,14.64,18.244,14.09z M24.784,8.53c-0.21,0.14-0.76-1.08-2.09-1.38c-1.34-0.31-2.38,0.56-2.5,0.36
		c-0.17-0.27,1.25-2.28,2.85-1.91C24.634,5.97,25.044,8.36,24.784,8.53z"/>
</g>
<g>
</g>
<g>
</g>
<g>
</g>
<g>
</g>
<g>
</g>
</svg>
