<?xml version="1.0" encoding="utf-8"?>
<!-- Generator: Adobe Illustrator 24.0.3, SVG Export Plug-In . SVG Version: 6.00 Build 0)  -->
<svg version="1.1" id="Layer_1" xmlns="http://www.w3.org/2000/svg" xmlns:xlink="http://www.w3.org/1999/xlink" x="0px" y="0px"
	 viewBox="0 0 24.861 23.16" style="enable-background:new 0 0 24.861 23.16;" xml:space="preserve">
<style type="text/css">
	.st0{fill:#FFFFFF;}
</style>
<g>
	<path class="st0" d="M24.509,8.181c-0.28-0.19-0.73-0.45-1.42-0.78c-0.67,0.52-2.4,1.7-2.46,1.7c-0.08,0.01-0.1-0.07-0.1-0.07
		c0.65-1.43,0.75-1.54,0.92-1.68c0.23-0.2,0.48-0.31,0.72-0.37c-0.57-0.22-1.17-0.37-1.79-0.44c-0.63-0.07-1.14-0.03-1.73,0.22
		c-0.21,0.09-0.43,0.18-0.64,0.26c0.18-0.36,0.37-0.71,0.55-1.06c0.59-1.13,1.23-2.25,1.87-3.37c0.27-0.47,0.57-0.94,0.84-1.42
		c0.17-0.31,0.51-0.87,0.2-1.15c-0.01-0.01-0.03-0.02-0.05-0.02c0,0-0.01,0-0.02,0c-0.67,0-1.05,0.6-1.39,1.04
		c-1.84,2.42-3.59,4.89-5.38,7.34c-2.7,1.06-5.4,2.06-8.15,2.99c-0.48-0.05-1.04-0.11-1.19-0.13c-0.87-0.11-2.14-0.6-3.87-2.29
		c-0.15-0.15-0.36-0.23-0.57-0.23h-0.1l-0.75,0.1l1.37,3.85c0.04,0.11,0.11,0.21,0.19,0.28c-0.09,0.04-0.17,0.08-0.24,0.13
		c-0.06,0.04-0.66,0.59-0.32,0.65s0.69,0.11,1.03,0.15l-1.33,1.82c-0.07,0.08-0.07,0.2-0.01,0.28c0.05,0.07,0.13,0.11,0.21,0.11
		c0.02,0,0.04,0,0.06-0.01l1.23-0.32c0.05-0.02,0.1-0.05,0.14-0.09l1.23-1.64c2.44,0.18,4.93,0.04,7.36-0.22
		c-0.7,1.12-1.32,2.28-1.95,3.44c-0.61,1.12-1.27,2.23-1.92,3.33c-0.28,0.48-0.59,0.94-0.87,1.42c-0.18,0.3-0.52,0.86-0.22,1.15
		c0.01,0.01,0.03,0.01,0.05,0.01h0.04c0.66,0,1.05-0.58,1.39-1.02c1.43-1.8,2.79-3.64,4.16-5.48l2.29,0.07
		c0.78,0,1.41-0.63,1.41-1.41c0-0.76-0.61-1.38-1.37-1.4h-0.04l-0.2-0.03c0.11-0.15,0.23-0.29,0.34-0.45
		c2.42-0.28,4.88-0.43,7.18-1.25c1.02-0.36,1.86-1.07,2.64-1.8c0.48-0.44,0.77-0.9,0.94-1.25
		C24.949,8.801,24.829,8.391,24.509,8.181z M8.129,13.071c-0.27,0.07-0.54-0.1-0.6-0.37c-0.07-0.27,0.1-0.54,0.37-0.6
		c0.27-0.07,0.54,0.1,0.6,0.37C8.569,12.741,8.399,13.011,8.129,13.071z M10.079,12.611c-0.27,0.06-0.54-0.1-0.61-0.37
		c-0.06-0.27,0.11-0.54,0.38-0.61c0.26-0.06,0.54,0.1,0.6,0.37C10.509,12.271,10.349,12.541,10.079,12.611z M12.019,12.141
		c-0.27,0.07-0.54-0.1-0.6-0.37s0.1-0.54,0.37-0.6c0.27-0.07,0.54,0.1,0.6,0.37C12.459,11.811,12.289,12.081,12.019,12.141z
		 M13.889,14.421c0.5,0,0.91,0.4,0.91,0.9s-0.4,0.9-0.9,0.91h-0.01c-0.5,0-0.9-0.41-0.9-0.91S13.389,14.421,13.889,14.421z
		 M13.969,11.681c-0.27,0.06-0.54-0.1-0.6-0.37c-0.07-0.27,0.1-0.54,0.37-0.61c0.27-0.06,0.54,0.11,0.6,0.38
		C14.399,11.341,14.239,11.621,13.969,11.681z M15.909,11.221c-0.26,0.06-0.54-0.11-0.6-0.38s0.1-0.54,0.37-0.6s0.54,0.1,0.61,0.37
		C16.349,10.881,16.179,11.151,15.909,11.221z M17.859,10.751c-0.27,0.07-0.54-0.1-0.6-0.37c-0.07-0.27,0.1-0.54,0.37-0.6
		c0.27-0.07,0.54,0.1,0.6,0.37C18.299,10.421,18.129,10.691,17.859,10.751z"/>
</g>
<g>
</g>
<g>
</g>
<g>
</g>
<g>
</g>
<g>
</g>
</svg>
