<?xml version="1.0" encoding="utf-8"?>
<!-- Generator: Adobe Illustrator 24.0.3, SVG Export Plug-In . SVG Version: 6.00 Build 0)  -->
<svg version="1.1" xmlns="http://www.w3.org/2000/svg" xmlns:xlink="http://www.w3.org/1999/xlink" x="0px" y="0px"
	 viewBox="0 0 29.39 22.878" style="enable-background:new 0 0 29.39 22.878;" xml:space="preserve">
<style type="text/css">
	.st0{fill:#FFFFFF;}
</style>
<g id="head">
	<path class="st0" d="M27.179,8.981c-0.688-0.727-0.987-1.818-0.792-2.818c0.273-1.363-0.039-5.596-0.221-5.96
		c-0.208-0.429-1.753-0.156-3.181,0.584c-1.428,0.753-3.051,3.61-4.285,3.675c-1.234,0.065-2.48,0.247-3.727,0.273
		c-1.428,0.013-2.857-0.195-4.285-0.273C9.468,4.398,7.832,1.541,6.404,0.788c-1.428-0.74-2.96-1.013-3.168-0.584
		C3.054,0.567,2.729,4.8,3.002,6.164c0.195,1-0.104,2.09-0.779,2.818c-1.389,1.493-2.961,3.727-1.844,5.765
		c0.584,1.065,1.61,1.519,2.61,2.09c1.233,0.688,2.493,1.324,3.727,2.026c0.922,0.532,1.844,1.104,2.714,1.74
		c1.402,1.013,1.48,1.454,2.454,1.818c1.662,0.623,3.96,0.597,5.622,0c0.974-0.364,1.052-0.805,2.454-1.818
		c0.87-0.636,1.792-1.208,2.727-1.74c1.234-0.701,2.48-1.337,3.714-2.026c1.013-0.571,2.039-1.026,2.61-2.09
		C30.127,12.708,28.556,10.474,27.179,8.981z M20.622,4.605c0.182-0.338,0.442-0.623,0.675-0.896
		c0.39-0.429,0.844-0.779,1.285-1.143c0.143-0.13,0.338-0.299,0.532-0.325c0.117-0.013,0.078,0.026,0.013,0.091
		c-0.143,0.182-0.338,0.325-0.467,0.506c-0.117,0.156-0.208,0.338-0.273,0.532c-0.052,0.169-0.156,0.714,0.026,0.571
		c0.039-0.026,0.156-0.104,0.234-0.169c0.078-0.065,0.169-0.13,0.26-0.208c0.247-0.182,0.506-0.377,0.753-0.571
		c0.234-0.195,0.48-0.39,0.74-0.571c0.026-0.013,0.039-0.013,0.052-0.026c0.377-0.26,0.922-0.623,1.389-0.493
		c0.117,0.026-0.156,0.13-0.195,0.156c-0.13,0.065-0.26,0.169-0.377,0.273c-0.467,0.364-0.948,0.87-1.143,1.428
		c-0.052,0.156-0.052,0.377,0.013,0.519c0.013,0.013,0.026,0.039,0.052,0.052c0.026,0.013,0.065-0.013,0.078-0.026
		c0.143-0.169,0.169-0.39,0.273-0.571c0.299-0.48,0.961-0.805,1.467-1.013c0.104-0.039,0.156,0,0.078,0.091
		c-0.234,0.312-0.442,0.649-0.493,1.039c-0.052,0.338-0.065,0.688-0.026,1.026c0.026,0.208,0.182,0.636-0.065,0.766
		c-0.078,0.039-0.156,0.039-0.234,0.052c-0.792,0.052-1.584,0.039-2.35-0.091c-0.727-0.13-1.623-0.312-2.233-0.753
		c-0.039-0.026-0.091-0.078-0.104-0.143C20.596,4.67,20.609,4.631,20.622,4.605z M3.431,2.723C3.937,2.93,4.599,3.255,4.898,3.735
		c0.104,0.182,0.13,0.403,0.273,0.571C5.184,4.32,5.222,4.346,5.248,4.333C5.274,4.32,5.287,4.294,5.3,4.281
		c0.065-0.143,0.065-0.364,0.013-0.519C5.119,3.203,4.638,2.697,4.171,2.333C4.054,2.229,3.924,2.125,3.794,2.06
		c-0.039-0.026-0.312-0.13-0.195-0.156c0.467-0.13,1,0.234,1.376,0.493c0.026,0.013,0.039,0.013,0.065,0.026
		c0.26,0.182,0.493,0.377,0.74,0.571c0.247,0.195,0.506,0.39,0.753,0.571c0.091,0.078,0.182,0.143,0.26,0.208
		c0.078,0.065,0.195,0.143,0.234,0.169c0.182,0.143,0.078-0.403,0.026-0.571C6.988,3.177,6.897,2.995,6.781,2.84
		C6.638,2.658,6.456,2.515,6.313,2.333C6.248,2.268,6.209,2.229,6.326,2.242c0.195,0.026,0.39,0.195,0.532,0.325
		C7.3,2.93,7.754,3.281,8.144,3.709c0.234,0.273,0.493,0.558,0.675,0.896C8.832,4.631,8.845,4.67,8.845,4.709
		c0,0.065-0.052,0.117-0.091,0.143c-0.61,0.441-1.506,0.623-2.233,0.753c-0.766,0.13-1.558,0.143-2.35,0.091
		C4.093,5.683,4.015,5.683,3.937,5.644C3.69,5.514,3.846,5.086,3.872,4.878C3.898,4.541,3.898,4.19,3.846,3.852
		c-0.052-0.39-0.26-0.727-0.506-1.039C3.275,2.723,3.327,2.684,3.431,2.723z M27.803,12.799c-1.156,1.714-2.844,2.649-4.558,3.688
		c-2.454,1.467-3.246-0.896-5.505-0.896c-1.324,0-2.129,0.948-2.129,1.48c0,0.338,0.195,0.714,0.273,1.013
		c0.299,0.065,0.597,0.169,0.831,0.351c0.506,0.377,0.61,1.013,0.377,1.584c-0.13,0.325-0.364,0.597-0.623,0.818
		c-0.273,0.221-0.61,0.234-0.948,0.169c-0.169-0.026-0.338-0.052-0.506-0.065v0.623c0.13,0.13,0.351,0.286,0.649,0.338
		c0.623,0.117,1.117-0.286,1.208-0.364c0.13-0.117,0.338-0.117,0.454,0.026c0.117,0.13,0.104,0.338-0.026,0.454
		c-0.156,0.143-0.688,0.558-1.402,0.558c-0.117,0-0.234-0.013-0.351-0.039c-0.312-0.065-0.597-0.195-0.857-0.39
		c-0.208,0.169-0.493,0.325-0.844,0.39c-0.117,0.026-0.234,0.039-0.351,0.039c-0.753,0-1.285-0.455-1.402-0.558
		c-0.13-0.117-0.143-0.325-0.026-0.454c0.13-0.143,0.325-0.143,0.467-0.026c0.052,0.052,0.558,0.48,1.195,0.364
		c0.286-0.052,0.493-0.195,0.636-0.338v-0.61c-0.234,0.026-0.467,0.078-0.701,0.091c-0.519,0.026-0.935-0.26-1.221-0.688
		c-0.351-0.571-0.39-1.363,0.117-1.844c0.26-0.26,0.597-0.377,0.935-0.442c0.078-0.286,0.286-0.597,0.286-1
		c0-0.532-0.818-1.48-2.129-1.48c-2.259,0-3.051,2.363-5.505,0.896c-1.727-1.039-3.402-1.974-4.558-3.688
		c-0.208-0.312-0.403-0.714-0.208-1.039c0.104-0.208,0.364-0.312,0.584-0.403c0.948-0.312,1.909-0.39,2.805-0.818
		c0.818-0.39,1.558-0.922,2.324-1.363c1.545-0.883,3.142-1.402,4.856-0.649c1.104,0.467,2.753,1.935,2.753,3.285
		c0-1.35,1.636-2.818,2.74-3.285c1.714-0.753,3.311-0.234,4.843,0.649c0.766,0.441,1.519,0.974,2.324,1.363
		c0.909,0.429,1.87,0.506,2.805,0.818c0.234,0.091,0.48,0.195,0.597,0.403C28.205,12.085,28.01,12.487,27.803,12.799z"/>
</g>
<g id="eyes">
	<path class="st0" d="M9.897,10.565c-0.584,0-1.052,0.467-1.052,1.039c0,0.584,0.468,1.039,1.052,1.039
		c0.571,0,1.039-0.454,1.039-1.039C10.936,11.033,10.468,10.565,9.897,10.565z M9.897,12.123c-0.286,0-0.519-0.234-0.519-0.519
		c0-0.273,0.234-0.506,0.519-0.506c0.273,0,0.506,0.234,0.506,0.506C10.403,11.89,10.17,12.123,9.897,12.123z"/>
	<path class="st0" d="M19.532,10.565c-0.571,0-1.039,0.467-1.039,1.039c0,0.584,0.467,1.039,1.039,1.039s1.039-0.454,1.039-1.039
		C20.57,11.033,20.103,10.565,19.532,10.565z M19.532,12.123c-0.286,0-0.519-0.234-0.519-0.519c0-0.273,0.234-0.506,0.519-0.506
		c0.286,0,0.506,0.234,0.506,0.506C20.038,11.89,19.817,12.123,19.532,12.123z"/>
	<g>
	</g>
	<g>
	</g>
	<g>
	</g>
	<g>
	</g>
	<g>
	</g>
</g>
</svg>
