<?xml version="1.0" encoding="utf-8"?>
<!-- Generator: Adobe Illustrator 24.0.3, SVG Export Plug-In . SVG Version: 6.00 Build 0)  -->
<svg version="1.1" id="Layer_2" xmlns="http://www.w3.org/2000/svg" xmlns:xlink="http://www.w3.org/1999/xlink" x="0px" y="0px"
	 viewBox="0 0 20.358 23.621" style="enable-background:new 0 0 20.358 23.621;" xml:space="preserve">
<style type="text/css">
	.st0{fill:#FFFFFF;}
	.st1{fill:none;stroke:#FFFFFF;stroke-miterlimit:10;}
</style>
<path id="stem" class="st0" d="M0.693,23.551L17.157,3.867c0.122-0.143,0.164-0.31,0.093-0.37v0
	c-0.071-0.061-0.229,0.007-0.351,0.15L0.046,22.999c-0.099,0.116-0.034,0.335,0.144,0.486l0,0
	C0.368,23.637,0.594,23.666,0.693,23.551z"/>
<path id="shape" class="st1" d="M5.678,7.644c-5.26,6.161-1.06,6.881,0.803,8.472s3.233,5.626,8.493-0.535
	c4.654-5.451,4.89-13.096,4.883-14.786c-0.001-0.183-0.161-0.32-0.342-0.292C17.846,0.761,10.332,2.193,5.678,7.644z"/>
<path class="st0" d="M8.087,14.236c0,0,3.974,0.437,5.087-0.373s1.113-0.809,1.113-0.809s-0.318,0.784-1.216,1.425
	c-0.899,0.64-4.3,0.903-4.869,0.84s-0.844-0.228-0.844-0.228L8.087,14.236z"/>
<path class="st0" d="M13.119,8.342c0,0,2.707,0.297,3.465-0.254c0.758-0.551,0.758-0.551,0.758-0.551s-0.216,0.534-0.829,0.971
	s-2.929,0.615-3.317,0.572s-0.575-0.155-0.575-0.155L13.119,8.342z"/>
<path class="st0" d="M10.326,11.613c0,0-0.975-3.566-0.397-4.7c0.578-1.134,0.578-1.134,0.578-1.134s-0.67,0.404-1.125,1.318
	S9.18,11.155,9.32,11.666c0.14,0.511,0.33,0.738,0.33,0.738L10.326,11.613z"/>
<path class="st0" d="M14.95,6.198c0,0-0.499-1.825-0.203-2.406s0.296-0.58,0.296-0.58s-0.343,0.207-0.576,0.674
	c-0.233,0.468-0.103,2.077-0.031,2.339c0.072,0.262,0.169,0.378,0.169,0.378L14.95,6.198z"/>
<g>
</g>
<g>
</g>
<g>
</g>
<g>
</g>
<g>
</g>
</svg>
