<?xml version="1.0" encoding="utf-8"?>
<!-- Generator: Adobe Illustrator 24.0.3, SVG Export Plug-In . SVG Version: 6.00 Build 0)  -->
<svg version="1.1" xmlns="http://www.w3.org/2000/svg" xmlns:xlink="http://www.w3.org/1999/xlink" x="0px" y="0px"
	 viewBox="0 0 25.916 18.271" style="enable-background:new 0 0 25.916 18.271;" xml:space="preserve">
<style type="text/css">
	.st0{fill:none;stroke:#FFFFFF;stroke-linejoin:round;stroke-miterlimit:10;}
	.st1{fill:none;stroke:#FFFFFF;stroke-linecap:round;stroke-linejoin:round;stroke-miterlimit:10;}
	.st2{fill:#FFFFFF;}
	.st3{fill:#FFFFFF;stroke:#FFFFFF;stroke-width:0.5;stroke-linecap:round;stroke-linejoin:round;stroke-miterlimit:10;}
</style>
<g id="bomb">
	<g id="Layer_3">
		<path class="st0" d="M15.47,6.938c-0.175,0.175-0.395,0.304-0.63,0.357c0.402,0.919,0.623,1.928,0.623,2.999
			c0,4.13-3.348,7.478-7.485,7.478c-4.13,0-7.478-3.348-7.478-7.478s3.348-7.485,7.478-7.485c1.093,0,2.133,0.235,3.067,0.653
			c0.061-0.22,0.175-0.425,0.349-0.592c0.281-0.281,0.645-0.425,1.01-0.425c0.364,0,0.729,0.144,1.01,0.425l2.057,2.05
			C16.024,5.473,16.024,6.384,15.47,6.938z"/>
	</g>
</g>
<g id="fuse">
	<path class="st1" d="M14.527,3.957c0.462-0.58,0.969-1.111,1.429-1.692c0.266-0.337,0.571-0.663,0.967-0.827
		c0.397-0.163,0.905-0.122,1.189,0.2c0.247,0.28,0.269,0.692,0.222,1.062c-0.048,0.37-0.152,0.739-0.112,1.11
		c0.058,0.534,0.432,1.014,0.923,1.234c0.91,0.407,1.94-0.077,2.503-0.826"/>
</g>
<g id="sparks">
	<g>
		<path class="st2" d="M20.661,0.301c0.205,0.679,0.41,1.358,0.615,2.037c0.017,0.056,0.01,0.104-0.018,0.146
			c-0.028,0.041-0.07,0.074-0.128,0.101c-0.058,0.027-0.113,0.04-0.167,0.036c-0.054-0.004-0.097-0.028-0.128-0.077
			c-0.374-0.6-0.748-1.2-1.122-1.801c-0.03-0.048-0.009-0.115,0.07-0.195c0.078-0.08,0.192-0.158,0.337-0.226
			c0.145-0.067,0.269-0.099,0.368-0.102C20.588,0.218,20.644,0.246,20.661,0.301z"/>
		<path class="st2" d="M23.028,0.315c-0.217,0.677-0.433,1.353-0.65,2.03c-0.018,0.056-0.049,0.092-0.091,0.11
			c-0.042,0.018-0.089,0.021-0.143,0.009c-0.055-0.011-0.098-0.033-0.132-0.068c-0.034-0.035-0.05-0.08-0.046-0.138
			c0.059-0.709,0.118-1.419,0.176-2.128c0.005-0.057,0.052-0.098,0.146-0.118c0.093-0.019,0.21-0.017,0.346,0.011
			c0.135,0.029,0.241,0.074,0.313,0.127C23.019,0.205,23.045,0.261,23.028,0.315z"/>
		<path class="st2" d="M24.899,1.615c-0.55,0.445-1.1,0.89-1.65,1.335C23.203,2.987,23.158,3,23.112,2.992
			c-0.045-0.007-0.086-0.03-0.125-0.069c-0.039-0.039-0.063-0.08-0.072-0.127c-0.009-0.047,0.003-0.093,0.038-0.139
			c0.437-0.557,0.873-1.113,1.31-1.67c0.035-0.045,0.096-0.053,0.184-0.019c0.087,0.034,0.182,0.098,0.279,0.194
			c0.097,0.096,0.161,0.189,0.193,0.272C24.951,1.52,24.943,1.58,24.899,1.615z"/>
		<path class="st2" d="M25.788,3.723c-0.708,0.069-1.417,0.139-2.125,0.208c-0.059,0.006-0.104-0.009-0.139-0.041
			c-0.034-0.032-0.056-0.074-0.068-0.128c-0.012-0.054-0.01-0.102,0.008-0.146c0.018-0.044,0.053-0.077,0.107-0.095
			c0.673-0.227,1.347-0.453,2.02-0.68c0.054-0.018,0.111,0.008,0.167,0.085c0.056,0.076,0.102,0.183,0.132,0.318
			c0.03,0.135,0.033,0.25,0.014,0.339C25.885,3.671,25.845,3.718,25.788,3.723z"/>
		<path class="st2" d="M25.211,6.161C24.606,5.796,24,5.431,23.394,5.066c-0.05-0.03-0.075-0.073-0.081-0.124
			c-0.005-0.051,0.007-0.106,0.033-0.164c0.026-0.059,0.059-0.102,0.101-0.132c0.042-0.03,0.09-0.039,0.146-0.023
			c0.682,0.195,1.364,0.39,2.046,0.585c0.055,0.016,0.084,0.074,0.081,0.178c-0.004,0.104-0.035,0.231-0.101,0.377
			c-0.066,0.146-0.142,0.258-0.218,0.332C25.324,6.169,25.26,6.19,25.211,6.161z"/>
	</g>
</g>
<g id="light">
	<path class="st3" d="M3.963,6.398c0.364-0.526,1.055-0.965,1.609-1.27C6.537,4.597,8.08,4.126,9.165,4.56
		c0,0,0.481,0.192,0.481,0.577c0,0.128,0.018,0.266-0.03,0.378C8.776,5.329,8.043,5.11,7.162,5.198
		C5.979,5.317,5.04,5.983,3.963,6.398z"/>
	<g>
	</g>
	<g>
	</g>
	<g>
	</g>
	<g>
	</g>
	<g>
	</g>
</g>
</svg>
