<?xml version="1.0" encoding="utf-8"?>
<!-- Generator: Adobe Illustrator 24.0.3, SVG Export Plug-In . SVG Version: 6.00 Build 0)  -->
<svg version="1.1" id="Layer_1" xmlns="http://www.w3.org/2000/svg" xmlns:xlink="http://www.w3.org/1999/xlink" x="0px" y="0px"
	 viewBox="0 0 22.94 21.27" style="enable-background:new 0 0 22.94 21.27;" xml:space="preserve">
<style type="text/css">
	.st0{fill:#FFFFFF;}
</style>
<path class="st0" d="M19.54,13.61v6.35c0,0.72-0.59,1.31-1.31,1.31h-4.66v-5.63c0-0.59-0.49-1.08-1.08-1.08h-2.04
	c-0.59,0-1.08,0.49-1.08,1.08v5.63H4.71c-0.72,0-1.31-0.59-1.31-1.31v-6.35l0.04-0.04l7.73-7.59c0.15-0.15,0.2-0.2,0.3-0.2
	c0.1,0,0.15,0.05,0.3,0.2L19.54,13.61z"/>
<path class="st0" d="M22.94,11.31c0,0.72-0.76,1.59-1.58,1.59c-0.27,0-0.6-0.16-0.87-0.38l-0.95-0.96l-6.98-7.03l-0.29-0.29
	l-0.58-0.58c-0.11-0.05-0.11-0.1-0.22-0.1c-0.11,0-0.11,0.05-0.22,0.1l-0.58,0.58l-0.29,0.29L3.4,11.51l-0.95,0.95
	c-0.27,0.22-0.6,0.38-0.87,0.38C0.76,12.84,0,11.97,0,11.26c0-0.27,0.1-0.55,0.38-0.82L3.4,7.42l3.18-3.18l3.47-3.47
	C10.49,0.33,10.87,0,11.47,0c0.6,0,0.98,0.33,1.42,0.77l2.89,2.91V1.92c0-0.34,0.28-0.61,0.62-0.61h2.09c0.33,0,0.61,0.27,0.61,0.61
	v5.1l0.44,0.44l3.02,3.04C22.84,10.77,22.94,11.04,22.94,11.31z"/>
<g>
</g>
<g>
</g>
<g>
</g>
<g>
</g>
<g>
</g>
</svg>
