<?xml version="1.0" encoding="utf-8"?>
<!-- Generator: Adobe Illustrator 25.0.0, SVG Export Plug-In . SVG Version: 6.00 Build 0)  -->
<svg version="1.1" id="Layer_1" xmlns="http://www.w3.org/2000/svg" xmlns:xlink="http://www.w3.org/1999/xlink" x="0px" y="0px"
	 viewBox="0 0 28.05 19.44" style="enable-background:new 0 0 28.05 19.44;" xml:space="preserve">
<style type="text/css">
	.st0{fill:#FFFFFF;}
</style>
<path class="st0" d="M27.38,0.68v0.37c0,0.1-0.06,0.18-0.13,0.18h-3.01c-0.07,0-0.12-0.08-0.12-0.18V0.68c0-0.1,0.05-0.18,0.11-0.19
	c0.01,0,0.01,0,0.01,0h0.01c0.02-0.07,0.05-0.13,0.08-0.19c0.03-0.08,0.07-0.14,0.12-0.21c0.02-0.04,0.07-0.06,0.12-0.06h1.45
	l0.12,0.16c0.01,0.03,0.02,0.05,0,0.08l-0.12,0.22h0.19c0.03,0,0.05-0.01,0.06-0.04l0.09-0.19c0.01-0.02,0.01-0.04,0-0.06l-0.1-0.14
	c-0.01-0.02-0.03-0.03-0.06-0.03h0.73c0.05,0,0.09,0.02,0.12,0.06c0.05,0.07,0.09,0.13,0.12,0.21c0.03,0.06,0.06,0.12,0.08,0.19
	c0.01,0,0.01,0,0.01,0C27.33,0.5,27.38,0.58,27.38,0.68z"/>
<path class="st0" d="M3.98,1.04v0.24c0,0.07-0.06,0.12-0.13,0.12H0.84c-0.07,0-0.12-0.05-0.12-0.12V1.04c0-0.07,0.05-0.12,0.11-0.12
	C0.87,0.84,0.91,0.77,0.96,0.7c0.03-0.04,0.08-0.07,0.13-0.07H3.6c0.06,0,0.1,0.03,0.13,0.07c0.05,0.07,0.09,0.14,0.13,0.22
	C3.92,0.92,3.98,0.97,3.98,1.04z"/>
<path class="st0" d="M17.87,17.59c-1.02,0.61-2.21,0.96-3.49,0.96s-2.47-0.35-3.49-0.96H0v1.03c0,0.45,0.37,0.82,0.82,0.82h26.41
	c0.46,0,0.82-0.37,0.82-0.82v-1.03H17.87z M27.23,1.64h-3.05c-0.29,0-0.53-0.24-0.53-0.53V0.53c0-0.29-0.24-0.53-0.53-0.53H9.44
	C9.15,0,8.91,0.24,8.91,0.53v0.58c0,0.29-0.23,0.53-0.53,0.53H0.82C0.37,1.64,0,2,0,2.46v3.32h10.88c1.03-0.62,2.22-0.97,3.5-0.97
	s2.47,0.35,3.5,0.97h10.17V2.46C28.05,2,27.69,1.64,27.23,1.64z M23.32,4.46c0,0.5-0.41,0.91-0.9,0.91h-2.27
	c-0.49,0-0.9-0.41-0.9-0.91V3.44c0-0.5,0.41-0.91,0.9-0.91h2.27c0.49,0,0.9,0.41,0.9,0.91V4.46z"/>
<circle class="st0" cx="14.38" cy="11.68" r="4.87"/>
<path class="st0" d="M18.52,5.78c-1.17-0.82-2.6-1.31-4.14-1.31s-2.97,0.49-4.14,1.31c-1.86,1.3-3.07,3.46-3.07,5.9
	s1.21,4.6,3.07,5.91c1.17,0.82,2.6,1.31,4.14,1.31s2.97-0.49,4.14-1.31c1.86-1.31,3.07-3.47,3.07-5.91S20.38,7.08,18.52,5.78z
	 M17.87,17.59c-1.02,0.61-2.21,0.96-3.49,0.96s-2.47-0.35-3.49-0.96c-2.02-1.19-3.38-3.39-3.38-5.91c0-2.51,1.35-4.71,3.37-5.9
	c1.03-0.62,2.22-0.97,3.5-0.97s2.47,0.35,3.5,0.97c2.02,1.19,3.37,3.39,3.37,5.9C21.25,14.2,19.89,16.4,17.87,17.59z"/>
<g id="Layer_2">
	<rect y="5.628" class="st0" width="0.537" height="12.105"/>
	<rect x="27.513" y="5.633" class="st0" width="0.537" height="12.105"/>
</g>
<g>
</g>
<g>
</g>
<g>
</g>
<g>
</g>
<g>
</g>
</svg>
