<?xml version="1.0" encoding="utf-8"?>
<!-- Generator: Adobe Illustrator 25.0.0, SVG Export Plug-In . SVG Version: 6.00 Build 0)  -->
<svg version="1.1" id="Layer_1" xmlns="http://www.w3.org/2000/svg" xmlns:xlink="http://www.w3.org/1999/xlink" x="0px" y="0px"
	 viewBox="0 0 2.899 13.011" style="enable-background:new 0 0 2.899 13.011;" xml:space="preserve">
<style type="text/css">
	.st0{fill:#7FCEB6;}
	.st1{fill:#FFE766;}
	.st2{fill:#A0D4EC;}
</style>
<path class="st0" d="M2.899,11.253v0.508h-2.54c-0.14,0-0.21-0.08-0.24-0.149c-0.04-0.07-0.08-0.149-0.1-0.219
	c-0.01-0.04-0.06-0.14,0.06-0.14H2.899z"/>
<path class="st1" d="M2.899,6.251V6.76h-2.54c-0.14,0-0.21-0.08-0.24-0.149c-0.04-0.07-0.08-0.149-0.1-0.219
	c-0.01-0.04-0.06-0.14,0.06-0.14H2.899z"/>
<path class="st2" d="M2.899,1.248v0.508h-2.54c-0.14,0-0.21-0.08-0.24-0.149c-0.04-0.07-0.08-0.149-0.1-0.219
	c-0.01-0.04-0.06-0.14,0.06-0.14H2.899z"/>
<g>
</g>
<g>
</g>
<g>
</g>
<g>
</g>
<g>
</g>
</svg>
