<?xml version="1.0" encoding="utf-8"?>
<!-- Generator: Adobe Illustrator 25.0.0, SVG Export Plug-In . SVG Version: 6.00 Build 0)  -->
<svg version="1.1" id="highlighters" xmlns="http://www.w3.org/2000/svg" xmlns:xlink="http://www.w3.org/1999/xlink" x="0px"
	 y="0px" viewBox="0 0 26.508 13.011" style="enable-background:new 0 0 26.508 13.011;" xml:space="preserve">
<style type="text/css">
	.st0{fill:#FFFFFF;}
	.st1{fill:#61B7DF;}
	.st2{fill:#5A8FA8;}
	.st3{fill:#FFD700;}
	.st4{fill:#C2AE41;}
	.st5{fill:#2AAD86;}
	.st6{fill:#3E806C;}
</style>
<path class="st0" d="M26.508,1.502L26.508,1.502c0,0.826-0.676,1.502-1.502,1.502H8.194V0l16.812,0
	C25.832,0,26.508,0.676,26.508,1.502z"/>
<path class="st1" d="M8.194,0v3.004H5.464c-0.385,0-0.697-0.312-0.697-0.697v-1.61C4.767,0.312,5.079,0,5.464,0L8.194,0z"/>
<path class="st1" d="M4.767,0.567v1.869h-1.77c-0.375,0-0.679-0.304-0.679-0.679V1.246c0-0.375,0.304-0.679,0.679-0.679H4.767z"/>
<path class="st2" d="M0.076,1.246c0,0,0.95,0,0.95,0c0.05,0,0.09,0.023,0.09,0.053v0.404c0,0.029-0.04,0.053-0.09,0.053
	c0,0-0.515,0.006-0.67,0C0.219,1.75,0.15,1.672,0.113,1.605C0.072,1.531,0.041,1.456,0.019,1.38
	C0.008,1.342-0.039,1.246,0.076,1.246z"/>
<path class="st1" d="M2.758,1.027v0.95H1.206c-0.087,0-0.158-0.071-0.158-0.158V1.185c0-0.087,0.071-0.158,0.158-0.158H2.758z"/>
<path class="st0" d="M26.508,6.506L26.508,6.506c0,0.826-0.676,1.502-1.502,1.502H8.194V5.004h16.812
	C25.832,5.004,26.508,5.68,26.508,6.506z"/>
<path class="st3" d="M8.194,5.004v3.004H5.464c-0.385,0-0.697-0.312-0.697-0.697v-1.61c0-0.385,0.312-0.697,0.697-0.697H8.194z"/>
<path class="st3" d="M4.767,5.571V7.44h-1.77c-0.375,0-0.679-0.304-0.679-0.679V6.25c0-0.375,0.304-0.679,0.679-0.679H4.767z"/>
<path class="st4" d="M0.076,6.25c0,0,0.95,0,0.95,0c0.05,0,0.09,0.023,0.09,0.053v0.404c0,0.029-0.04,0.053-0.09,0.053
	c0,0-0.515,0.006-0.67,0C0.219,6.754,0.15,6.675,0.113,6.608C0.072,6.535,0.041,6.46,0.019,6.384C0.008,6.346-0.039,6.25,0.076,6.25
	z"/>
<path class="st3" d="M2.758,6.031v0.95H1.206c-0.087,0-0.158-0.071-0.158-0.158V6.188c0-0.087,0.071-0.158,0.158-0.158H2.758z"/>
<path class="st0" d="M26.508,11.509L26.508,11.509c0,0.826-0.676,1.502-1.502,1.502H8.194v-3.004h16.812
	C25.832,10.007,26.508,10.683,26.508,11.509z"/>
<path class="st5" d="M8.194,10.007v3.004H5.464c-0.385,0-0.697-0.312-0.697-0.697v-1.61c0-0.385,0.312-0.697,0.697-0.697H8.194z"/>
<path class="st5" d="M4.767,10.575v1.869h-1.77c-0.375,0-0.679-0.304-0.679-0.679v-0.512c0-0.375,0.304-0.679,0.679-0.679H4.767z"/>
<path class="st6" d="M0.076,11.253c0,0,0.95,0,0.95,0c0.05,0,0.09,0.023,0.09,0.053v0.404c0,0.029-0.04,0.053-0.09,0.053
	c0,0-0.515,0.006-0.67,0c-0.136-0.005-0.205-0.083-0.243-0.15c-0.041-0.073-0.072-0.148-0.094-0.224
	C0.008,11.349-0.039,11.253,0.076,11.253z"/>
<path class="st5" d="M2.758,11.034v0.95H1.206c-0.087,0-0.158-0.071-0.158-0.158v-0.635c0-0.087,0.071-0.158,0.158-0.158H2.758z"/>
<g>
</g>
<g>
</g>
<g>
</g>
<g>
</g>
<g>
</g>
</svg>
